<svg width="800" height="800" viewBox="0 0 800 800" fill="none" xmlns="http://www.w3.org/2000/svg">
<rect width="800" height="800" fill="#D8B4FF"/>
<path d="M233.925 483.6L350.511 752.841C364.598 785.373 410.731 785.373 424.817 752.841L541.403 483.6C552.979 456.867 533.381 427.025 504.25 427.025L271.079 427.025C241.947 427.025 222.35 456.867 233.925 483.6Z" fill="#FDE09D" stroke="#7A725E" stroke-width="34.0809"/>
<path d="M385.433 503.508V760.244H389.536L395.397 759.072L398.914 757.899L401.845 755.555L407.707 750.279L529.627 467.167L517.904 456.03L503.836 485.924L480.39 503.508L429.394 509.37L385.433 503.508Z" fill="#CFB984"/>
<g filter="url(#filter0_d_36_67)">
<path d="M371.95 750.865L376.731 754.451C378.225 755.571 379.878 756.46 381.636 757.088V757.088C385.25 758.379 389.175 758.52 392.873 757.493L393.391 757.349C396.256 756.553 398.911 755.138 401.169 753.203L401.77 752.688C404.519 750.331 406.695 747.381 408.135 744.059L413.567 731.522L468.08 604.327L527.868 464.822" stroke="#5D5031" stroke-opacity="0.5" stroke-width="5.68014" stroke-linecap="round" shape-rendering="crispEdges"/>
</g>
<path d="M401.259 753.21L398.377 755.044C396.028 756.539 393.382 757.504 390.622 757.872V757.872C387.597 758.275 384.519 757.95 381.645 756.924L381.263 756.787C378.98 755.972 376.857 754.764 374.989 753.219L374.213 752.577C371.034 749.947 368.511 746.612 366.844 742.836L361.663 731.098L306.466 604.664L245.927 465.994" stroke="#5D5031" stroke-opacity="0.5" stroke-width="5.68014" stroke-linecap="round"/>
<path d="M233.925 483.6L350.511 752.841C364.598 785.373 410.731 785.373 424.817 752.841L541.403 483.6C552.979 456.867 533.381 427.025 504.25 427.025L271.079 427.025C241.947 427.025 222.35 456.867 233.925 483.6Z" stroke="#7A725E" stroke-width="34.0809"/>
<rect x="290.292" y="499.81" width="47.2554" height="47.2552" rx="5.68014" fill="#C7AB66" stroke="#7A725E" stroke-width="11.3603"/>
<rect x="362.975" y="499.81" width="47.2554" height="47.2552" rx="5.68014" fill="#C7AB66" stroke="#7A725E" stroke-width="11.3603"/>
<rect x="435.66" y="499.81" width="47.2554" height="47.2552" rx="5.68014" fill="#C7AB66" stroke="#7A725E" stroke-width="11.3603"/>
<rect x="331.324" y="599.457" width="47.2554" height="47.2552" rx="5.68014" fill="#C7AB66" stroke="#7A725E" stroke-width="11.3603"/>
<rect x="394.629" y="599.457" width="47.2554" height="47.2552" rx="5.68014" fill="#C7AB66" stroke="#7A725E" stroke-width="11.3603"/>
<path d="M400.672 640.669H430.161C433.298 640.669 435.841 638.126 435.841 634.989V605.5" stroke="#5D5031" stroke-opacity="0.4" stroke-width="11.3603" stroke-linecap="round"/>
<path d="M337.366 640.669H366.856C369.993 640.669 372.536 638.126 372.536 634.989V605.5" stroke="#5D5031" stroke-opacity="0.4" stroke-width="11.3603" stroke-linecap="round"/>
<path d="M296.335 541.022H325.824C328.961 541.022 331.504 538.479 331.504 535.342V505.853" stroke="#5D5031" stroke-opacity="0.4" stroke-width="11.3603" stroke-linecap="round"/>
<path d="M370.191 541.022H399.681C402.818 541.022 405.361 538.479 405.361 535.342V505.853" stroke="#5D5031" stroke-opacity="0.4" stroke-width="11.3603" stroke-linecap="round"/>
<path d="M441.702 541.022H471.191C474.329 541.022 476.872 538.479 476.872 535.342V505.853" stroke="#5D5031" stroke-opacity="0.4" stroke-width="11.3603" stroke-linecap="round"/>
<rect x="290.292" y="499.81" width="47.2554" height="47.2552" rx="5.68014" stroke="#7A725E" stroke-width="11.3603"/>
<rect x="362.975" y="499.81" width="47.2554" height="47.2552" rx="5.68014" stroke="#7A725E" stroke-width="11.3603"/>
<rect x="435.66" y="499.81" width="47.2554" height="47.2552" rx="5.68014" stroke="#7A725E" stroke-width="11.3603"/>
<rect x="331.324" y="599.457" width="47.2554" height="47.2552" rx="5.68014" stroke="#7A725E" stroke-width="11.3603"/>
<rect x="394.629" y="599.457" width="47.2554" height="47.2552" rx="5.68014" stroke="#7A725E" stroke-width="11.3603"/>
<path d="M395.735 458.937C405.47 457.945 415.787 457.059 425.99 456.183C438.264 455.129 450.373 454.09 461.106 452.895C481.634 450.611 501.595 447.383 519.01 441.097C536.649 434.73 552.603 424.895 563.935 408.88C575.254 392.883 580.664 372.553 580.664 347.591C580.664 242.682 493.979 158.221 387.776 158.221C281.573 158.221 194.888 242.682 194.888 347.591C194.888 371.9 199.103 391.682 208.492 407.36C218.079 423.371 231.995 433.334 247.938 439.78C263.445 446.05 281.393 449.201 299.928 451.548C308.472 452.63 317.462 453.575 326.629 454.538C327.505 454.63 328.382 454.723 329.261 454.815C339.409 455.884 349.848 457.003 360.639 458.41C372.229 459.92 384.027 460.131 395.735 458.937Z" fill="#FFFACC"/>
<path d="M395.735 458.937C405.47 457.945 415.787 457.059 425.99 456.183C438.264 455.129 450.373 454.09 461.106 452.895C481.634 450.611 501.595 447.383 519.01 441.097C536.649 434.73 552.603 424.895 563.935 408.88C575.254 392.883 580.664 372.553 580.664 347.591C580.664 242.682 493.979 158.221 387.776 158.221C281.573 158.221 194.888 242.682 194.888 347.591C194.888 371.9 199.103 391.682 208.492 407.36C218.079 423.371 231.995 433.334 247.938 439.78C263.445 446.05 281.393 449.201 299.928 451.548C308.472 452.63 317.462 453.575 326.629 454.538C327.505 454.63 328.382 454.723 329.261 454.815C339.409 455.884 349.848 457.003 360.639 458.41C372.229 459.92 384.027 460.131 395.735 458.937Z" stroke="#79765F" stroke-width="34.0809"/>
<path d="M395.735 458.937C405.47 457.945 415.787 457.059 425.99 456.183C438.264 455.129 450.373 454.09 461.106 452.895C481.634 450.611 501.595 447.383 519.01 441.097C536.649 434.73 552.603 424.895 563.935 408.88C575.254 392.883 580.664 372.553 580.664 347.591C580.664 242.682 493.979 158.221 387.776 158.221C281.573 158.221 194.888 242.682 194.888 347.591C194.888 371.9 199.103 391.682 208.492 407.36C218.079 423.371 231.995 433.334 247.938 439.78C263.445 446.05 281.393 449.201 299.928 451.548C308.472 452.63 317.462 453.575 326.629 454.538C327.505 454.63 328.382 454.723 329.261 454.815C339.409 455.884 349.848 457.003 360.639 458.41C372.229 459.92 384.027 460.131 395.735 458.937Z" stroke="black" stroke-opacity="0.2" stroke-width="34.0809"/>
<path d="M246.963 471.424C253.326 470.504 262.667 468.657 270.19 462.132C278.667 454.778 281.724 444.461 281.724 433.528C281.724 403.408 259.838 375.099 228.342 375.099C196.845 375.099 174.96 403.408 174.96 433.528C174.96 443.121 176.929 452.91 183.976 460.436C190.758 467.679 199.558 469.814 205.363 470.845C219.135 473.293 233.297 473.398 246.963 471.424Z" fill="#FFFACC"/>
<path d="M246.963 471.424C253.326 470.504 262.667 468.657 270.19 462.132C278.667 454.778 281.724 444.461 281.724 433.528C281.724 403.408 259.838 375.099 228.342 375.099C196.845 375.099 174.96 403.408 174.96 433.528C174.96 443.121 176.929 452.91 183.976 460.436C190.758 467.679 199.558 469.814 205.363 470.845C219.135 473.293 233.297 473.398 246.963 471.424Z" stroke="#79765F" stroke-width="34.0809"/>
<path d="M246.963 471.424C253.326 470.504 262.667 468.657 270.19 462.132C278.667 454.778 281.724 444.461 281.724 433.528C281.724 403.408 259.838 375.099 228.342 375.099C196.845 375.099 174.96 403.408 174.96 433.528C174.96 443.121 176.929 452.91 183.976 460.436C190.758 467.679 199.558 469.814 205.363 470.845C219.135 473.293 233.297 473.398 246.963 471.424Z" stroke="black" stroke-opacity="0.2" stroke-width="34.0809"/>
<path d="M456.135 489.433C465.334 488.137 477.81 485.807 487.521 477.179C498.116 467.765 502.119 454.134 502.119 438.012C502.119 416.173 495.478 395.75 483.929 380.406C472.375 365.055 455.13 353.997 434.669 353.997C414.209 353.997 396.963 365.055 385.409 380.406C373.861 395.75 367.219 416.173 367.219 438.012C367.219 452.85 369.997 465.951 378.906 475.462C387.604 484.749 399.222 487.281 407.45 488.679C423.434 491.396 439.98 491.71 456.135 489.433Z" fill="#FFFACC"/>
<path d="M456.135 489.433C465.334 488.137 477.81 485.807 487.521 477.179C498.116 467.765 502.119 454.134 502.119 438.012C502.119 416.173 495.478 395.75 483.929 380.406C472.375 365.055 455.13 353.997 434.669 353.997C414.209 353.997 396.963 365.055 385.409 380.406C373.861 395.75 367.219 416.173 367.219 438.012C367.219 452.85 369.997 465.951 378.906 475.462C387.604 484.749 399.222 487.281 407.45 488.679C423.434 491.396 439.98 491.71 456.135 489.433Z" stroke="#79765F" stroke-width="34.0809" stroke-linejoin="round"/>
<path d="M456.135 489.433C465.334 488.137 477.81 485.807 487.521 477.179C498.116 467.765 502.119 454.134 502.119 438.012C502.119 416.173 495.478 395.75 483.929 380.406C472.375 365.055 455.13 353.997 434.669 353.997C414.209 353.997 396.963 365.055 385.409 380.406C373.861 395.75 367.219 416.173 367.219 438.012C367.219 452.85 369.997 465.951 378.906 475.462C387.604 484.749 399.222 487.281 407.45 488.679C423.434 491.396 439.98 491.71 456.135 489.433Z" stroke="black" stroke-opacity="0.2" stroke-width="34.0809" stroke-linejoin="round"/>
<path d="M576.249 447.75L576.502 447.73C584.766 447.074 596.124 446.172 605.233 441.731C610.409 439.208 615.499 435.295 619.123 429.3C622.699 423.384 624.04 416.778 624.04 410.169C624.04 377.335 594.81 353.997 563.038 353.997C531.266 353.997 502.036 377.335 502.036 410.169C502.036 416.163 502.985 422.284 505.798 427.925C508.746 433.834 513.164 438.062 518.183 440.921C526.472 445.643 536.909 446.643 544.069 447.328C544.344 447.354 544.614 447.38 544.879 447.406C555.202 448.403 565.728 448.585 576.249 447.75Z" fill="#FFFACC"/>
<path d="M576.249 447.75L576.502 447.73C584.766 447.074 596.124 446.172 605.233 441.731C610.409 439.208 615.499 435.295 619.123 429.3C622.699 423.384 624.04 416.778 624.04 410.169C624.04 377.335 594.81 353.997 563.038 353.997C531.266 353.997 502.036 377.335 502.036 410.169C502.036 416.163 502.985 422.284 505.798 427.925C508.746 433.834 513.164 438.062 518.183 440.921C526.472 445.643 536.909 446.643 544.069 447.328C544.344 447.354 544.614 447.38 544.879 447.406C555.202 448.403 565.728 448.585 576.249 447.75Z" stroke="#79765F" stroke-width="34.0809" stroke-linejoin="round"/>
<path d="M576.249 447.75L576.502 447.73C584.766 447.074 596.124 446.172 605.233 441.731C610.409 439.208 615.499 435.295 619.123 429.3C622.699 423.384 624.04 416.778 624.04 410.169C624.04 377.335 594.81 353.997 563.038 353.997C531.266 353.997 502.036 377.335 502.036 410.169C502.036 416.163 502.985 422.284 505.798 427.925C508.746 433.834 513.164 438.062 518.183 440.921C526.472 445.643 536.909 446.643 544.069 447.328C544.344 447.354 544.614 447.38 544.879 447.406C555.202 448.403 565.728 448.585 576.249 447.75Z" stroke="black" stroke-opacity="0.2" stroke-width="34.0809" stroke-linejoin="round"/>
<path d="M394.41 448.931C485.995 439.386 563.623 444.437 563.623 352.106C563.623 254.438 484.894 175.262 387.776 175.262C290.658 175.262 211.929 254.438 211.929 352.106C211.929 444.293 274.492 436.723 362.444 448.435C373.035 449.846 383.783 450.038 394.41 448.931Z" fill="#FFFACC"/>
<path d="M245.341 473.614L253.975 468.633C258.303 466.136 261.899 462.546 264.402 458.222L265.205 456.834C266.411 454.752 267.986 452.908 269.853 451.391V451.391C274.04 447.989 279.434 446.444 284.787 447.113L287.347 447.433C289.425 447.692 291.463 448.204 293.417 448.955L298.8 451.025C303.398 452.794 308.164 454.093 313.024 454.903L317.72 455.686C323.774 456.695 329.901 457.202 336.038 457.202H342.138C344.424 457.202 346.707 457.397 348.96 457.786L369.419 461.313C375.397 462.344 379.923 467.285 380.426 473.329V473.329C380.952 479.636 385.843 484.701 392.127 485.446L415.913 488.268L421.571 489.4C427.553 490.597 433.639 491.199 439.74 491.199H443.103C447.627 491.199 452.138 490.704 456.554 489.723L468.73 487.017C476.948 485.191 484.107 480.182 488.639 473.088L492.626 466.849C494.185 464.408 494.81 461.486 494.386 458.621V458.621C493.443 452.257 497.682 446.279 504 445.064L516.641 442.633C520.928 441.809 525.354 442.101 529.496 443.481L544.281 448.41" stroke="#615E4C" stroke-width="34.0809"/>
<path d="M535.285 559.442C535.299 558.995 535.306 558.537 535.306 558.069C535.306 550.633 533.631 543.62 530.634 538.267C527.739 533.096 522.845 528.308 516.145 528.308C509.445 528.308 504.55 533.096 501.655 538.267C498.658 543.62 496.983 550.633 496.983 558.069C496.983 563.617 499.672 567.936 503.389 570.738C506.969 573.436 511.462 574.744 515.711 574.933C519.951 575.12 524.543 574.218 528.297 571.78C532.235 569.222 535.103 565.02 535.285 559.442Z" fill="#FFFACC"/>
<path d="M535.285 559.442C535.299 558.995 535.306 558.537 535.306 558.069C535.306 550.633 533.631 543.62 530.634 538.267C527.739 533.096 522.845 528.308 516.145 528.308C509.445 528.308 504.55 533.096 501.655 538.267C498.658 543.62 496.983 550.633 496.983 558.069C496.983 563.617 499.672 567.936 503.389 570.738C506.969 573.436 511.462 574.744 515.711 574.933C519.951 575.12 524.543 574.218 528.297 571.78C532.235 569.222 535.103 565.02 535.285 559.442Z" stroke="#615E4C" stroke-width="11.3603"/>
<path d="M535.285 559.442C535.299 558.995 535.306 558.537 535.306 558.069C535.306 550.633 533.631 543.62 530.634 538.267C527.739 533.096 522.845 528.308 516.145 528.308C509.445 528.308 504.55 533.096 501.655 538.267C498.658 543.62 496.983 550.633 496.983 558.069C496.983 563.617 499.672 567.936 503.389 570.738C506.969 573.436 511.462 574.744 515.711 574.933C519.951 575.12 524.543 574.218 528.297 571.78C532.235 569.222 535.103 565.02 535.285 559.442Z" stroke="black" stroke-opacity="0.1" stroke-width="11.3603"/>
<path d="M230.484 559.442C230.498 558.995 230.506 558.537 230.506 558.069C230.506 550.633 228.83 543.62 225.833 538.267C222.939 533.096 218.044 528.308 211.344 528.308C204.644 528.308 199.749 533.096 196.855 538.267C193.857 543.62 192.182 550.633 192.182 558.069C192.182 563.617 194.871 567.936 198.588 570.738C202.168 573.436 206.661 574.744 210.91 574.933C215.15 575.12 219.742 574.218 223.496 571.78C227.434 569.222 230.302 565.02 230.484 559.442Z" fill="#FFFACC"/>
<path d="M230.484 559.442C230.498 558.995 230.506 558.537 230.506 558.069C230.506 550.633 228.83 543.62 225.833 538.267C222.939 533.096 218.044 528.308 211.344 528.308C204.644 528.308 199.749 533.096 196.855 538.267C193.857 543.62 192.182 550.633 192.182 558.069C192.182 563.617 194.871 567.936 198.588 570.738C202.168 573.436 206.661 574.744 210.91 574.933C215.15 575.12 219.742 574.218 223.496 571.78C227.434 569.222 230.302 565.02 230.484 559.442Z" stroke="#615E4C" stroke-width="11.3603"/>
<path d="M230.484 559.442C230.498 558.995 230.506 558.537 230.506 558.069C230.506 550.633 228.83 543.62 225.833 538.267C222.939 533.096 218.044 528.308 211.344 528.308C204.644 528.308 199.749 533.096 196.855 538.267C193.857 543.62 192.182 550.633 192.182 558.069C192.182 563.617 194.871 567.936 198.588 570.738C202.168 573.436 206.661 574.744 210.91 574.933C215.15 575.12 219.742 574.218 223.496 571.78C227.434 569.222 230.302 565.02 230.484 559.442Z" stroke="black" stroke-opacity="0.1" stroke-width="11.3603"/>
<path d="M559.904 482.07C559.918 481.623 559.926 481.165 559.926 480.697C559.926 473.261 558.25 466.248 555.253 460.894C552.359 455.724 547.464 450.936 540.764 450.936C534.064 450.936 529.169 455.724 526.275 460.894C523.277 466.248 521.602 473.261 521.602 480.697C521.602 486.245 524.291 490.563 528.008 493.366C531.588 496.064 536.081 497.372 540.33 497.56C544.57 497.748 549.162 496.846 552.916 494.408C556.854 491.85 559.722 487.648 559.904 482.07Z" fill="#FFFACC"/>
<path d="M559.904 482.07C559.918 481.623 559.926 481.165 559.926 480.697C559.926 473.261 558.25 466.248 555.253 460.894C552.359 455.724 547.464 450.936 540.764 450.936C534.064 450.936 529.169 455.724 526.275 460.894C523.277 466.248 521.602 473.261 521.602 480.697C521.602 486.245 524.291 490.563 528.008 493.366C531.588 496.064 536.081 497.372 540.33 497.56C544.57 497.748 549.162 496.846 552.916 494.408C556.854 491.85 559.722 487.648 559.904 482.07Z" stroke="#615E4C" stroke-width="11.3603"/>
<path d="M559.904 482.07C559.918 481.623 559.926 481.165 559.926 480.697C559.926 473.261 558.25 466.248 555.253 460.894C552.359 455.724 547.464 450.936 540.764 450.936C534.064 450.936 529.169 455.724 526.275 460.894C523.277 466.248 521.602 473.261 521.602 480.697C521.602 486.245 524.291 490.563 528.008 493.366C531.588 496.064 536.081 497.372 540.33 497.56C544.57 497.748 549.162 496.846 552.916 494.408C556.854 491.85 559.722 487.648 559.904 482.07Z" stroke="black" stroke-opacity="0.1" stroke-width="11.3603"/>
<path d="M278.57 214.566L287.332 208.037C295.64 201.847 304.757 196.822 314.427 193.102L330.333 186.985L348.234 182.315C354.265 180.741 360.416 179.667 366.624 179.103L389.535 177.02L405.035 177.628C414.593 178.003 424.065 179.583 433.227 182.332L440.081 184.388C445.843 186.116 451.458 188.3 456.874 190.917L473.38 198.895C480.379 202.278 487.013 206.371 493.176 211.108L503.456 219.01C509.183 223.412 514.478 228.351 519.267 233.759L521.721 236.529C526.313 241.714 530.421 247.307 533.994 253.24L550.335 280.373C550.87 281.261 551.305 282.206 551.632 283.19L556.377 297.478C557.059 299.531 555.53 301.649 553.367 301.649C553.207 301.649 553.047 301.661 552.889 301.685L549.331 302.228C536.071 304.251 522.55 300.928 511.739 292.989L502.475 286.186C501.808 285.696 501.21 285.12 500.694 284.474C495.983 278.564 486.574 280.376 484.395 287.612L480.265 301.329C475.338 317.693 452.003 317.21 447.756 300.657L445.893 293.392C444.592 288.323 441.255 284.016 436.671 281.491L426.003 275.616C419.902 272.255 413.049 270.493 406.084 270.493H380.138C377.028 270.493 374.295 272.558 373.446 275.55C371.3 283.115 360.217 281.865 359.809 274.012L359.592 269.828C359.146 261.252 347.082 259.806 344.623 268.034L338.808 287.492C338.629 288.089 338.401 288.67 338.126 289.229L332.199 301.258C325.832 314.179 308.244 316.206 299.104 305.073C290.048 294.041 272.652 295.911 266.146 308.615L264.814 311.217C261.771 317.158 256.168 321.372 249.616 322.646L245.493 323.448C241.156 324.291 236.68 324.085 232.437 322.848L229.263 321.922C226.363 321.076 223.757 319.434 221.742 317.183C217.546 312.492 216.453 305.792 218.942 300.011L230.206 273.85C232.083 269.49 234.464 265.365 237.301 261.56L257.064 235.049L262.703 228.897C267.53 223.632 272.842 218.833 278.57 214.566Z" fill="#5D5031" stroke="#5D5031" stroke-width="5.68014" stroke-linecap="round"/>
<path d="M341.304 346.528C343.416 343.777 344.22 340.378 344.22 336.677C344.22 323.319 334.359 311.431 320.955 311.431C307.551 311.431 297.69 323.319 297.69 336.677C297.69 339.223 298.007 341.621 298.85 343.774C302.249 352.456 311.633 355.543 319.27 355.699C327.044 355.858 336.216 353.154 341.304 346.528Z" fill="#B2A585"/>
<path d="M341.304 346.528C343.416 343.777 344.22 340.378 344.22 336.677C344.22 323.319 334.359 311.431 320.955 311.431C307.551 311.431 297.69 323.319 297.69 336.677C297.69 339.223 298.007 341.621 298.85 343.774C302.249 352.456 311.633 355.543 319.27 355.699C327.044 355.858 336.216 353.154 341.304 346.528Z" stroke="#B9AC8A" stroke-width="11.3603"/>
<path d="M341.304 346.528C343.416 343.777 344.22 340.378 344.22 336.677C344.22 323.319 334.359 311.431 320.955 311.431C307.551 311.431 297.69 323.319 297.69 336.677C297.69 339.223 298.007 341.621 298.85 343.774C302.249 352.456 311.633 355.543 319.27 355.699C327.044 355.858 336.216 353.154 341.304 346.528Z" stroke="black" stroke-opacity="0.2" stroke-width="11.3603"/>
<path d="M460.165 417.775C460.244 417.155 460.279 416.529 460.279 415.902C460.279 405.998 452.106 398.182 442.29 398.182C432.473 398.182 424.3 405.998 424.3 415.902C424.3 420.969 427.299 424.545 430.622 426.624C433.856 428.647 437.82 429.601 441.507 429.773C445.2 429.945 449.234 429.362 452.659 427.676C456.152 425.956 459.53 422.758 460.165 417.775Z" fill="#B2A585"/>
<path d="M460.165 417.775C460.244 417.155 460.279 416.529 460.279 415.902C460.279 405.998 452.106 398.182 442.29 398.182C432.473 398.182 424.3 405.998 424.3 415.902C424.3 420.969 427.299 424.545 430.622 426.624C433.856 428.647 437.82 429.601 441.507 429.773C445.2 429.945 449.234 429.362 452.659 427.676C456.152 425.956 459.53 422.758 460.165 417.775Z" stroke="#B9AC8A" stroke-width="11.3603"/>
<path d="M460.165 417.775C460.244 417.155 460.279 416.529 460.279 415.902C460.279 405.998 452.106 398.182 442.29 398.182C432.473 398.182 424.3 405.998 424.3 415.902C424.3 420.969 427.299 424.545 430.622 426.624C433.856 428.647 437.82 429.601 441.507 429.773C445.2 429.945 449.234 429.362 452.659 427.676C456.152 425.956 459.53 422.758 460.165 417.775Z" stroke="black" stroke-opacity="0.2" stroke-width="11.3603"/>
<path d="M453.13 268.892C453.21 268.272 453.245 267.646 453.245 267.019C453.245 257.115 445.072 249.299 435.256 249.299C425.439 249.299 417.266 257.115 417.266 267.019C417.266 272.086 420.265 275.662 423.588 277.741C426.822 279.764 430.785 280.718 434.473 280.89C438.166 281.062 442.2 280.479 445.625 278.793C449.118 277.073 452.495 273.875 453.13 268.892Z" fill="#B2A585"/>
<path d="M453.13 268.892C453.21 268.272 453.245 267.646 453.245 267.019C453.245 257.115 445.072 249.299 435.256 249.299C425.439 249.299 417.266 257.115 417.266 267.019C417.266 272.086 420.265 275.662 423.588 277.741C426.822 279.764 430.785 280.718 434.473 280.89C438.166 281.062 442.2 280.479 445.625 278.793C449.118 277.073 452.495 273.875 453.13 268.892Z" stroke="#B9AC8A" stroke-width="11.3603"/>
<path d="M453.13 268.892C453.21 268.272 453.245 267.646 453.245 267.019C453.245 257.115 445.072 249.299 435.256 249.299C425.439 249.299 417.266 257.115 417.266 267.019C417.266 272.086 420.265 275.662 423.588 277.741C426.822 279.764 430.785 280.718 434.473 280.89C438.166 281.062 442.2 280.479 445.625 278.793C449.118 277.073 452.495 273.875 453.13 268.892Z" stroke="black" stroke-opacity="0.2" stroke-width="11.3603"/>
<path d="M235.376 298.94L245.258 278.026C255.231 256.922 271.462 239.402 291.744 227.849L306.887 219.223M328.575 211.017L348.504 203.397" stroke="#FFFEF2" stroke-width="11.3603" stroke-linecap="round"/>
<path d="M401.259 56.8585L403.869 46.0434C404.856 41.9548 406.574 38.0781 408.939 34.6V34.6C413.09 28.4949 419.07 23.8625 426.019 21.3681L438.187 17" stroke="#00C434" stroke-width="11.3603" stroke-linecap="round"/>
<path d="M421.25 156.549C430.789 155.502 440.715 154.036 448.133 148.88C456.186 143.284 460.279 134.194 460.279 120.665C460.279 86.3606 436.204 57.0396 404.776 57.0396C373.347 57.0396 349.272 86.3606 349.272 120.665C349.272 133.559 352.31 142.464 359.205 148.127C365.649 153.419 374.462 154.891 382.929 156.013C395.575 157.688 408.503 157.949 421.25 156.549Z" fill="#FF5353"/>
<path d="M421.25 156.549C430.789 155.502 440.715 154.036 448.133 148.88C456.186 143.284 460.279 134.194 460.279 120.665C460.279 86.3606 436.204 57.0396 404.776 57.0396C373.347 57.0396 349.272 86.3606 349.272 120.665C349.272 133.559 352.31 142.464 359.205 148.127C365.649 153.419 374.462 154.891 382.929 156.013C395.575 157.688 408.503 157.949 421.25 156.549Z" stroke="#FF6666" stroke-width="11.3603"/>
<path d="M421.25 156.549C430.789 155.502 440.715 154.036 448.133 148.88C456.186 143.284 460.279 134.194 460.279 120.665C460.279 86.3606 436.204 57.0396 404.776 57.0396C373.347 57.0396 349.272 86.3606 349.272 120.665C349.272 133.559 352.31 142.464 359.205 148.127C365.649 153.419 374.462 154.891 382.929 156.013C395.575 157.688 408.503 157.949 421.25 156.549Z" stroke="black" stroke-opacity="0.2" stroke-width="11.3603"/>
<path d="M371.365 102.578L374.199 94.7313C377.211 86.3891 383.982 79.9562 392.467 77.3738V77.3738" stroke="#FFFEF2" stroke-width="11.3603" stroke-linecap="round"/>
<path d="M298.736 247.945L283.44 263.843" stroke="#25C7E0" stroke-width="17.0404" stroke-linecap="round"/>
<path d="M534.316 392.139L548.384 397.487" stroke="#25C7E0" stroke-width="17.0404" stroke-linecap="round"/>
<path d="M400.674 368.107L411.564 359.684" stroke="#FBE51D" stroke-width="17.0404" stroke-linecap="round"/>
<path d="M384.316 287.803L394.811 310.077" stroke="#5FEE69" stroke-width="17.0404" stroke-linecap="round"/>
<path d="M485.079 347.591L473.356 331.838" stroke="#FF5A88" stroke-width="17.0404" stroke-linecap="round"/>
<path d="M258.822 385.619L264.684 371.037" stroke="#FF5A88" stroke-width="17.0404" stroke-linecap="round"/>
<path d="M343.229 392.139L369.02 403.348" stroke="#FF9C2A" stroke-width="17.0404" stroke-linecap="round"/>
<path d="M587.251 238.566C587.251 258.09 571.424 273.917 551.9 273.917C532.376 273.917 516.549 258.09 516.549 238.566C516.549 219.043 532.376 203.216 551.9 203.216C571.424 203.216 587.251 219.043 587.251 238.566Z" fill="white" stroke="black" stroke-width="11.3603"/>
<path d="M553.255 219.81C553.255 224.442 549.5 228.197 544.868 228.197C540.235 228.197 536.48 224.442 536.48 219.81C536.48 215.177 540.235 211.422 544.868 211.422C549.5 211.422 553.255 215.177 553.255 219.81Z" fill="black" stroke="black" stroke-width="11.3603"/>
<path d="M431.333 197.536C431.333 217.059 415.506 232.886 395.982 232.886C376.458 232.886 360.631 217.059 360.631 197.536C360.631 178.012 376.458 162.185 395.982 162.185C415.506 162.185 431.333 178.012 431.333 197.536Z" fill="white" stroke="black" stroke-width="11.3603"/>
<path d="M418.438 211.603C418.438 216.236 414.683 219.991 410.05 219.991C405.418 219.991 401.663 216.236 401.663 211.603C401.663 206.971 405.418 203.216 410.05 203.216C414.683 203.216 418.438 206.971 418.438 211.603Z" fill="black" stroke="black" stroke-width="11.3603"/>
<path d="M435.842 343.488L438.42 356.635C440.494 367.213 447.292 376.261 456.875 381.198V381.198C459.644 382.624 462.59 383.677 465.635 384.33L473.99 386.12C486.909 388.889 500.374 387.48 512.44 382.096L520.027 378.711C527.768 375.257 534.138 369.321 538.127 361.841V361.841C540.259 357.844 541.661 353.499 542.267 349.01L542.598 346.56C543.704 338.378 542.841 330.051 540.08 322.27L537.833 315.939" stroke="black" stroke-width="22.7206" stroke-linecap="round"/>
<defs>
<filter id="filter0_d_36_67" x="364.566" y="461.981" width="170.687" height="308.119" filterUnits="userSpaceOnUse" color-interpolation-filters="sRGB">
<feFlood flood-opacity="0" result="BackgroundImageFix"/>
<feColorMatrix in="SourceAlpha" type="matrix" values="0 0 0 0 0 0 0 0 0 0 0 0 0 0 0 0 0 0 127 0" result="hardAlpha"/>
<feOffset dy="4.54412"/>
<feGaussianBlur stdDeviation="2.27206"/>
<feComposite in2="hardAlpha" operator="out"/>
<feColorMatrix type="matrix" values="0 0 0 0 0 0 0 0 0 0 0 0 0 0 0 0 0 0 0.25 0"/>
<feBlend mode="normal" in2="BackgroundImageFix" result="effect1_dropShadow_36_67"/>
<feBlend mode="normal" in="SourceGraphic" in2="effect1_dropShadow_36_67" result="shape"/>
</filter>
</defs>
</svg>
