<svg width="322" height="141" viewBox="0 0 322 141" fill="none" xmlns="http://www.w3.org/2000/svg">
<path d="M303.95 72C303.95 118.772 317.138 92.2065 318.858 105.63C320.435 117.641 308.537 124 298.216 124C288.325 124 278.434 118.065 278.434 103.935C278.434 96.3044 281.301 85.4239 281.301 72C281.301 53.3478 277 43.8804 277 34.837C277 23.5326 283.881 20 293.055 20C302.23 20 308.394 23.5326 308.394 34.5543C308.394 43.8804 303.95 53.6304 303.95 72Z" fill="#B6AAD9"/>
<path d="M264.336 87.08C258.32 87.464 254.352 83.752 255.12 79.4C255.76 76.328 253.328 76.2 252.432 76.2C247.824 76.2 244.624 81.704 244.624 90.152V91.176C244.624 109.864 249.744 106.536 251.024 111.656C252.432 117.672 245.392 124.328 236.304 124.328C228.88 124.328 222.352 119.72 222.352 109.224C222.352 103.208 224.528 97.192 224.528 91.176V90.152C224.528 87.208 224.272 83.752 223.376 80.168C221.584 72.36 218 69.8 218 65.448C218 60.712 222.48 57 229.392 57C235.28 57 240.144 59.816 241.04 64.04C241.808 67.368 240.528 73 238.096 76.968C237.072 78.632 236.816 79.656 237.84 79.656C238.224 79.656 238.608 79.4 239.888 76.968C246.032 64.552 255.376 57 264.592 57C275.216 57 277.264 66.984 277.264 71.976C277.264 80.04 272.144 86.696 264.336 87.08Z" fill="#B6AAD9"/>
<path d="M212.192 65.464C212.192 83.384 217.952 83.384 217.952 88.76C217.952 94.136 211.936 98.616 203.232 98.616C193.888 98.616 188 93.24 188 84.536C188 77.496 191.968 71.48 191.968 65.464V64.44C191.968 58.296 188 48.44 188 42.296C188 34.488 194.272 31.288 202.464 31.288C210.528 31.288 216.032 34.488 216.032 42.04C216.032 48.44 212.192 58.296 212.192 64.44V65.464ZM189.792 15.8C189.792 8.76 195.296 3 202.336 3C209.248 3 214.752 8.76 214.752 15.8C214.752 22.84 209.248 28.6 202.336 28.6C195.296 28.6 189.792 22.84 189.792 15.8Z" fill="#B6AAD9"/>
<path d="M140.673 94.256C138.753 109.872 131.073 113.328 122.625 113.328C115.713 113.328 108.417 110.896 105.601 102.96C102.657 94.768 106.497 87.088 104.577 79.152C102.913 72.752 95.7453 65.712 93.5693 58.288C91.0093 49.2 97.4093 46 106.241 46C115.073 46 120.833 49.2 121.601 58.288C122.113 64.176 121.473 82.224 123.521 89.904C123.905 91.312 124.161 91.568 124.673 91.568C124.929 91.568 128.385 91.696 130.945 85.936C135.041 76.848 130.817 67.504 128.257 64.432C126.337 62.128 124.545 57.904 125.057 54.064C125.441 48.304 130.945 46 138.241 46C147.073 46 152.833 49.2 153.601 58.288C154.241 64.176 153.473 82.224 155.009 87.728C155.905 91.312 158.465 92.336 158.849 92.336C159.233 92.336 161.025 91.568 162.817 87.984C167.681 78.384 162.817 67.504 160.257 64.432C156.161 59.696 152.833 46 170.497 46C170.497 46 183.937 46 184.833 62C185.345 71.6 181.505 86.704 178.689 94.768C173.313 109.232 166.145 113.328 158.209 113.328C150.913 113.328 141.953 109.872 142.849 94.128C142.977 90.8 142.593 90.544 142.081 90.544C141.569 90.544 141.185 90.8 140.673 94.256Z" fill="#B6AAD9"/>
<path d="M64.2256 42.9757C69.4691 33.1089 58.5195 29.314 50.5 29.314C42.9432 29.314 37.3912 32.8053 37.3912 37.511C37.3912 53.6014 98 48.7439 98 93.2202C98 121.302 73.7873 138 46.1818 138C20.8896 138 3 124.035 3 102.328C3 83.2016 16.7256 70.4508 38.0081 70.4508C47.5698 70.4508 53.8929 73.0313 57.5942 76.3708C67.0016 85.0232 62.5292 101.721 50.0373 101.114C42.1721 100.81 44.0227 94.4345 39.0877 94.4345C37.0828 94.4345 35.3864 95.6489 35.3864 98.9884C35.3864 105.212 40.6299 109.311 48.3409 109.311C59.1364 109.311 69.3149 101.721 69.3149 89.2735C69.3149 59.3696 9.78571 70.9061 9.78571 36.6002C9.78571 20.0545 23.8198 7 51.1169 7C76.2549 7 92.4481 17.9293 92.4481 34.1715C92.4481 47.8331 81.1899 53.6014 70.3945 52.2352C63.1461 51.4762 61.6039 47.9849 64.2256 42.9757Z" fill="#B6AAD9"/>
<mask id="mask0_12_110" style="mask-type:alpha" maskUnits="userSpaceOnUse" x="-1" y="-1" width="325" height="143">
<path d="M51.1172 5C63.945 5.00004 74.6995 7.78416 82.3135 12.8271C89.9832 17.9072 94.4482 25.2893 94.4482 34.1719C94.4481 41.6176 91.3457 47.0941 86.6328 50.4658C82.4523 53.4564 77.1418 54.6976 71.8936 54.3818C78.436 57.3907 84.9058 61.2347 89.9873 66.6455C96.0126 73.0615 99.9999 81.585 100 93.2197C100 122.783 74.4739 140 46.1816 140C33.1836 140 21.9104 136.412 13.8447 129.856C5.74217 123.271 1.00005 113.782 1 102.328C1 92.2629 4.62593 83.7376 11.1729 77.7422C17.7034 71.7619 26.9708 68.4512 38.0078 68.4512C41.296 68.4512 44.248 68.7469 46.877 69.2783C44.3141 68.3346 41.6318 67.4223 38.8975 66.4775C31.5038 63.9229 23.7567 61.1254 17.8828 56.6943C11.8777 52.1643 7.78623 45.8945 7.78613 36.6006C7.78613 27.7103 11.5796 19.7231 18.9941 14.0107C26.3645 8.33249 37.1724 5 51.1172 5ZM264.592 55C270.679 55 274.471 57.9306 276.635 61.5996C278.721 65.1377 279.264 69.2771 279.264 71.9756C279.264 80.8359 273.562 88.612 264.463 89.0752C261.03 89.2942 257.989 88.3553 255.876 86.5293C253.736 84.68 252.635 81.9734 253.15 79.0527L253.162 78.9922C253.243 78.6047 253.228 78.3932 253.214 78.3037C253.169 78.2854 253.094 78.2587 252.977 78.2383C252.8 78.2074 252.612 78.2002 252.432 78.2002C251.056 78.2003 249.677 78.9845 248.541 80.9932C247.388 83.031 246.624 86.1469 246.624 90.1523V91.1758C246.624 100.41 247.904 103.752 249.004 105.389C249.601 106.278 250.124 106.687 250.939 107.552C251.749 108.41 252.535 109.456 252.964 111.171L252.972 111.2C253.897 115.155 251.992 119.021 248.928 121.743C245.832 124.493 241.324 126.328 236.304 126.328C232.188 126.328 228.164 125.047 225.157 122.153C222.13 119.24 220.352 114.901 220.352 109.224C220.352 106.006 220.934 102.819 221.472 99.8438C222.021 96.8036 222.528 93.9736 222.528 91.1758V90.1523C222.528 87.3197 222.281 84.0349 221.436 80.6533L221.431 80.6338L221.427 80.6152C220.59 76.9713 219.347 74.5664 218.24 72.4326C217.158 70.3463 216 68.19 216 65.4482C216 59.1454 221.903 55.0001 229.392 55C235.68 55 241.785 58.0289 242.987 63.5898H242.989C243.278 64.8389 243.322 66.2693 243.19 67.749C249.145 59.839 256.739 55.0001 264.592 55ZM293.056 18C297.84 18 302.239 18.9104 305.452 21.6133C308.737 24.376 310.394 28.6734 310.394 34.5547C310.394 39.4596 309.223 44.4935 308.138 50.2559C307.038 56.0941 305.95 62.9889 305.95 72C305.95 83.6488 306.776 90.5232 307.956 94.5352C309.124 98.5074 310.474 99.1865 311.247 99.3809C311.777 99.5141 312.382 99.5072 313.202 99.4316C313.895 99.3678 315.002 99.2126 315.976 99.2969C317.101 99.3943 318.325 99.8119 319.279 100.992C320.146 102.064 320.607 103.549 320.841 105.37H320.842C321.738 112.197 318.753 117.459 314.209 120.912C309.738 124.31 303.738 126 298.216 126C292.894 126 287.446 124.405 283.298 120.771C279.105 117.097 276.434 111.506 276.434 103.935C276.434 99.9474 277.18 95.1335 277.885 89.874C278.599 84.5424 279.301 78.5739 279.301 72C279.301 62.8407 278.247 55.9413 277.184 50.1777C276.135 44.4927 275 39.597 275 34.8369C275 28.7603 276.87 24.3951 280.337 21.6182C283.717 18.9114 288.269 18 293.056 18ZM170.526 44C170.539 44.0001 170.555 44.0006 170.574 44.001C170.613 44.0017 170.664 44.0034 170.728 44.0059C170.854 44.0109 171.029 44.0198 171.245 44.0381C171.677 44.0746 172.279 44.1463 172.996 44.2871C174.425 44.5675 176.354 45.1301 178.327 46.2666C182.384 48.6036 186.344 53.2135 186.83 61.8877V61.8936C187.1 66.9535 186.226 73.3301 184.967 79.3682C183.701 85.4359 182.014 91.3123 180.577 95.4277L180.571 95.4463L180.564 95.4648C177.805 102.889 174.503 107.883 170.677 111.019C166.804 114.192 162.556 115.328 158.209 115.328C154.295 115.328 149.648 114.407 146.094 111.096C143.712 108.877 141.987 105.742 141.224 101.492C139.903 105.802 137.932 108.948 135.415 111.152C131.691 114.413 127.101 115.328 122.625 115.328C115.332 115.328 106.949 112.727 103.719 103.636C102.085 99.0892 102.36 94.7288 102.713 90.7822C103.075 86.7351 103.497 83.2114 102.638 79.6406C101.903 76.8295 99.9214 73.7747 97.5898 70.1953C95.3533 66.7617 92.8362 62.8962 91.6504 58.8506L91.6475 58.8408L91.6445 58.8301C90.9401 56.3294 90.8036 54.0667 91.2822 52.0684C91.7683 50.0392 92.8584 48.4129 94.3721 47.1836C97.3016 44.8045 101.69 44 106.241 44C110.849 44 114.995 44.8257 118.128 47.123C120.524 48.8804 122.151 51.3663 122.998 54.5752C123.014 54.3407 123.037 54.1066 123.066 53.873C123.325 50.2786 125.233 47.7061 128.087 46.123C130.844 44.5935 134.432 44 138.241 44C142.849 44 146.995 44.8257 150.128 47.123C152.555 48.9028 154.191 51.4298 155.029 54.6982C155.067 54.1377 155.142 53.5764 155.262 53.0195C155.797 50.5303 157.2 48.1984 159.786 46.5322C162.323 44.898 165.846 44 170.497 44V45.6826C170.497 44 170.499 44 170.5 44H170.526ZM59.1133 75.0566C64.2879 79.9383 65.6259 86.9929 63.9482 92.7725C62.2392 98.6594 57.2919 103.459 49.96 103.111C49.9538 103.111 49.9476 103.112 49.9414 103.111H49.9404V103.11C47.6989 103.021 45.9873 102.491 44.6309 101.631C43.2858 100.778 42.4437 99.6939 41.8232 98.8037C41.1292 97.8079 40.8472 97.3075 40.4072 96.8955C40.1252 96.6314 39.8011 96.4346 39.0879 96.4346C38.4879 96.4346 38.1497 96.6077 37.9453 96.8262C37.7271 97.0596 37.3867 97.6394 37.3867 98.9883C37.3867 101.483 38.4132 103.489 40.2139 104.916C42.0546 106.375 44.8215 107.311 48.3408 107.311C58.2643 107.311 67.3145 100.397 67.3145 89.2734C67.3144 82.7328 64.1801 78.4355 59.1133 75.0566ZM202.336 1C210.418 1 216.752 7.72206 216.752 15.7998C216.752 22.129 212.863 27.6247 207.292 29.708C209.621 30.1475 211.722 30.9517 213.453 32.2178C216.42 34.3884 218.032 37.7158 218.032 42.04C218.032 45.526 216.999 49.846 216.058 53.7988C215.076 57.9227 214.192 61.6579 214.192 64.4404V65.4639C214.192 74.1889 215.59 78.3517 216.865 80.9297C217.194 81.5942 217.526 82.1764 217.856 82.7422C218.176 83.2886 218.526 83.8738 218.825 84.4473C219.461 85.6665 219.952 86.9957 219.952 88.7598C219.952 92.2586 217.985 95.2812 214.993 97.3496C212.006 99.4145 207.91 100.616 203.232 100.616C198.184 100.616 193.849 99.1594 190.757 96.3105C187.645 93.4441 186 89.3587 186 84.5361C186 80.6673 187.092 77.1274 188.077 74.0127C189.098 70.786 189.968 68.099 189.968 65.4639V64.4404C189.968 61.6685 189.058 57.9407 188.043 53.8496C187.074 49.9408 186 45.6679 186 42.2959C186 37.768 187.864 34.3825 191.029 32.2139C192.842 30.9718 195.014 30.1763 197.381 29.7324C191.718 27.6698 187.792 22.1629 187.792 15.7998C187.792 7.70845 194.139 1.00004 202.336 1ZM155.745 60.1787C155.914 63.5154 155.905 68.4297 155.969 73.125C156.009 76.0867 156.076 79.0043 156.228 81.5137C156.362 83.7506 156.558 85.5381 156.819 86.7207L156.936 87.1904L156.943 87.2168L156.949 87.2432C157.293 88.6201 157.93 89.4243 158.442 89.875C158.571 89.9884 158.694 90.0798 158.804 90.1533C158.856 90.1116 158.915 90.0639 158.977 90.0088C159.473 89.5673 160.225 88.6973 161.028 87.0898L161.033 87.0801C163.198 82.808 163.23 78.1875 162.366 74.1816C161.494 70.1353 159.759 66.9576 158.721 65.7119H158.72C157.511 64.3043 156.425 62.3329 155.745 60.1787ZM123.705 60.0186C123.848 63.3371 123.856 68.3839 123.984 73.3721C124.145 79.623 124.501 85.8049 125.451 89.3779L125.459 89.4053C125.608 89.3492 125.776 89.2747 125.96 89.1709C126.743 88.728 127.981 87.68 129.117 85.124L129.122 85.1143C130.951 81.0569 130.94 76.9089 130.146 73.3652C129.343 69.7855 127.776 66.9786 126.721 65.7119C125.551 64.3082 124.415 62.288 123.705 60.0186ZM50.5 31.3145C47.0041 31.3145 44.1175 32.1254 42.1738 33.3428C40.2398 34.5542 39.3917 36.0404 39.3916 37.5107C39.3916 38.7967 39.9638 39.9788 41.335 41.2148C42.7509 42.4912 44.8822 43.6926 47.667 44.9189C50.4332 46.1371 53.6795 47.3115 57.248 48.6006C58.7702 49.1504 60.3452 49.7214 61.9521 50.3193C61.9343 50.2908 61.9149 50.2632 61.8975 50.2344C60.382 47.7285 61.0358 44.7578 62.4541 42.0479L62.46 42.0371C63.6118 39.8696 63.7463 38.2849 63.4746 37.1416C63.2022 35.9957 62.445 34.9709 61.1816 34.0771C58.5711 32.2303 54.3017 31.3145 50.5 31.3145Z" fill="#B6AAD9" stroke="black" stroke-width="4"/>
</mask>
<g mask="url(#mask0_12_110)">
</g>
<mask id="mask1_12_110" style="mask-type:alpha" maskUnits="userSpaceOnUse" x="0" y="0" width="323" height="141">
<path d="M51.1172 5.5C63.8801 5.50004 74.529 8.27134 82.0371 13.2441C89.5871 18.2448 93.9482 25.4797 93.9482 34.1719C93.9481 41.4636 90.9182 46.785 86.3428 50.0586C81.8255 53.2903 75.9288 54.4396 70.2383 53.7266V53.7275C69.6955 53.6707 69.1724 53.5951 68.6699 53.5059C76.188 56.6904 83.8277 60.8172 89.623 66.9883C95.5625 73.3129 99.4999 81.714 99.5 93.2197C99.5 122.412 74.3022 139.5 46.1816 139.5C33.2716 139.5 22.1179 135.936 14.1602 129.468C6.17488 122.977 1.50005 113.632 1.5 102.328C1.5 92.3884 5.07664 84.0015 11.5098 78.1104C17.9306 72.2305 27.0697 68.9512 38.0078 68.9512C47.8264 68.9512 54.5473 71.6017 58.5986 75.2568L58.6045 75.2617L58.6094 75.2666C63.77 80.013 65.1164 86.9568 63.4688 92.6328C61.8112 98.3431 57.04 102.948 49.9795 102.611V102.612C47.7994 102.528 46.1712 102.016 44.8984 101.209C43.6372 100.409 42.8409 99.3892 42.2334 98.5176C41.5707 97.5668 41.2399 96.9899 40.749 96.5303C40.3767 96.1817 39.9311 95.9346 39.0879 95.9346C38.3873 95.9346 37.9021 96.1403 37.5801 96.4844C37.2478 96.8396 36.8867 97.5591 36.8867 98.9883C36.8867 101.637 37.9842 103.787 39.9033 105.308C41.8526 106.852 44.7374 107.811 48.3408 107.811C58.4823 107.811 67.8145 100.728 67.8145 89.2734C67.8144 82.4356 64.4736 77.9698 59.1914 74.5059C53.8045 70.9733 46.5794 68.6037 39.0605 66.0059C31.655 63.4471 23.9842 60.6716 18.1836 56.2959C12.2845 51.8459 8.28623 45.7152 8.28613 36.6006C8.28613 27.8646 12.0088 20.0244 19.2998 14.4072C26.5577 8.81565 37.2465 5.5 51.1172 5.5ZM264.592 55.5C270.486 55.5 274.121 58.3226 276.204 61.8545C278.229 65.288 278.764 69.3278 278.764 71.9756C278.764 80.6369 273.207 88.133 264.431 88.5762C264.425 88.5765 264.419 88.5768 264.413 88.5771L264.41 88.5781L264.409 88.5771C261.092 88.784 258.196 87.873 256.203 86.1514C254.186 84.4084 253.16 81.8742 253.643 79.1396L253.646 79.1162L253.651 79.0938C253.774 78.5054 253.717 78.2086 253.677 78.0898C253.644 77.9953 253.603 77.9499 253.534 77.9053C253.441 77.8448 253.287 77.7852 253.062 77.7461C252.844 77.7079 252.623 77.7002 252.432 77.7002C250.824 77.7003 249.302 78.6326 248.105 80.7471C246.897 82.8834 246.124 86.0925 246.124 90.1523V91.1758C246.124 100.438 247.404 103.904 248.589 105.668C249.217 106.603 249.799 107.071 250.575 107.895C251.299 108.662 251.986 109.565 252.4 110.998L252.479 111.292L252.482 111.303L252.484 111.314C253.354 115.032 251.574 118.724 248.596 121.369C245.594 124.035 241.205 125.828 236.304 125.828C232.289 125.828 228.399 124.579 225.504 121.793C222.594 118.992 220.852 114.794 220.852 109.224C220.852 106.058 221.424 102.916 221.964 99.9326C222.512 96.9006 223.028 94.0261 223.028 91.1758V90.1523C223.028 87.2919 222.779 83.9643 221.921 80.5322L221.917 80.5176L221.914 80.5039C221.063 76.7949 219.794 74.3425 218.685 72.2021C217.593 70.0975 216.5 68.0485 216.5 65.4482C216.5 59.5371 222.047 55.5001 229.392 55.5C235.59 55.5 241.395 58.4849 242.508 63.7285H242.507C242.897 65.4457 242.816 67.5522 242.422 69.6709C248.475 60.8814 256.433 55.5001 264.592 55.5ZM293.056 18.5C297.79 18.5 302.049 19.4036 305.131 21.9961C308.266 24.6334 309.894 28.7661 309.894 34.5547C309.894 39.3991 308.737 44.3665 307.646 50.1631C306.543 56.0166 305.45 62.9455 305.45 72C305.45 83.6598 306.276 90.5927 307.477 94.6758C308.668 98.7293 310.106 99.61 311.125 99.8662C311.742 100.021 312.419 100.005 313.248 99.9287C313.982 99.8611 315.018 99.7157 315.933 99.7949C316.961 99.884 318.044 100.259 318.891 101.307C319.672 102.274 320.118 103.652 320.347 105.439H320.346C321.213 112.059 318.331 117.152 313.906 120.514C309.536 123.835 303.648 125.5 298.216 125.5C292.988 125.5 287.665 123.933 283.627 120.395C279.555 116.827 276.934 111.379 276.934 103.935C276.934 99.9904 277.672 95.223 278.38 89.9404C279.095 84.6037 279.801 78.6084 279.801 72C279.801 62.799 278.741 55.8668 277.675 50.0869C276.62 44.3661 275.5 39.5373 275.5 34.8369C275.5 28.8665 277.332 24.6655 280.649 22.0088C283.901 19.4046 288.319 18.5 293.056 18.5ZM170.521 44.5C170.533 44.5001 170.547 44.5006 170.564 44.501C170.6 44.5017 170.648 44.5025 170.708 44.5049C170.828 44.5096 170.995 44.5185 171.203 44.5361C171.619 44.5714 172.203 44.6414 172.9 44.7783C174.291 45.0512 176.164 45.5978 178.078 46.7002C181.867 48.8826 185.613 53.134 186.276 61.1309L186.331 61.916V61.9199C186.597 66.9149 185.734 73.242 184.478 79.2666C183.216 85.3133 181.535 91.1682 180.105 95.2627L180.101 95.2764L180.096 95.291C177.354 102.667 174.094 107.572 170.36 110.632C166.592 113.72 162.461 114.828 158.209 114.828C154.362 114.828 149.861 113.921 146.435 110.729C143.712 108.193 141.844 104.379 141.394 98.9043C140.135 104.439 137.961 108.258 135.085 110.776C131.488 113.926 127.038 114.828 122.625 114.828C115.428 114.828 107.316 112.27 104.189 103.468L104.046 103.052C102.613 98.7668 102.869 94.647 103.211 90.8262C103.571 86.8018 104.008 83.1796 103.119 79.5049H103.118C102.356 76.6006 100.322 73.4738 98.0088 69.9229C95.7634 66.4757 93.2913 62.6722 92.1299 58.71L92.1279 58.7021L92.125 58.6943C91.4368 56.2509 91.315 54.0778 91.7686 52.1846C92.2276 50.2681 93.2541 48.7353 94.6875 47.5713C97.4807 45.303 101.724 44.5 106.241 44.5C110.801 44.5 114.822 45.3194 117.832 47.5264C120.903 49.7784 122.684 53.2972 123.096 58.1582L123.142 58.7568C123.354 61.9249 123.337 67.6597 123.484 73.3857C123.645 79.6261 124 85.8702 124.969 89.5098L125.091 89.9277C125.101 89.9612 125.113 89.9925 125.123 90.0225C125.392 89.9691 125.768 89.8549 126.207 89.6064C127.098 89.1022 128.402 87.9638 129.574 85.3271L129.578 85.3193C131.461 81.1404 131.445 76.8775 130.634 73.2559C129.816 69.6071 128.216 66.7266 127.104 65.3926C124.994 62.86 123.002 58.2496 123.565 53.9062C123.811 50.4983 125.609 48.0697 128.329 46.5605C130.981 45.0894 134.472 44.5 138.241 44.5C142.801 44.5 146.822 45.3194 149.832 47.5264C152.896 49.7735 154.676 53.2817 155.093 58.126L155.15 58.7305C155.419 61.9271 155.395 67.6458 155.469 73.1318C155.509 76.0951 155.577 79.0224 155.729 81.5439C155.863 83.7813 156.059 85.6054 156.332 86.835L156.454 87.3252L156.46 87.3447L156.465 87.3643C156.835 88.8449 157.528 89.736 158.112 90.25C158.386 90.4904 158.639 90.6494 158.828 90.748C158.95 90.672 159.114 90.556 159.309 90.3828C159.861 89.8917 160.649 88.9672 161.476 87.3135L161.479 87.3057C163.711 82.9017 163.734 78.1564 162.854 74.0762C161.968 69.9654 160.203 66.7108 159.104 65.3926V65.3916C157.938 64.0355 156.876 62.1134 156.214 60.0029C155.548 57.8801 155.25 55.4524 155.751 53.124C156.261 50.7554 157.59 48.5421 160.057 46.9531C162.486 45.3879 165.905 44.5 170.497 44.5V45.625C170.497 44.5372 170.498 44.5012 170.499 44.5H170.521ZM202.336 1.5C210.125 1.5 216.252 7.98151 216.252 15.7998C216.252 22.7751 211.375 28.6852 204.792 29.8789C208.042 30.1425 210.932 30.9935 213.157 32.6211C215.979 34.685 217.532 37.8528 217.532 42.04C217.532 45.4546 216.517 49.7109 215.571 53.6836C214.595 57.7844 213.692 61.5855 213.692 64.4404V65.4639C213.692 74.2477 215.101 78.4899 216.417 81.1514C216.753 81.8317 217.092 82.4264 217.425 82.9951C217.749 83.5492 218.09 84.1192 218.382 84.6787C218.993 85.8521 219.452 87.1008 219.452 88.7598C219.452 92.0558 217.601 94.9382 214.709 96.9375C211.821 98.9343 207.828 100.116 203.232 100.116C198.278 100.116 194.075 98.688 191.096 95.9434C188.102 93.1855 186.5 89.2411 186.5 84.5361C186.5 80.7547 187.567 77.284 188.554 74.1641C189.567 70.96 190.468 68.1923 190.468 65.4639V64.4404C190.468 61.5936 189.537 57.7977 188.528 53.7295C187.553 49.7979 186.5 45.5929 186.5 42.2959C186.5 37.9239 188.291 34.6974 191.312 32.627C193.657 31.0206 196.65 30.1716 199.926 29.8936C193.216 28.7347 188.292 22.8123 188.292 15.7998C188.292 7.97132 194.428 1.50004 202.336 1.5ZM50.5 30.8145C46.9335 30.8145 43.9491 31.6407 41.9082 32.9189C39.8745 34.1928 38.8917 35.8198 38.8916 37.5107C38.8916 38.978 39.5573 40.2854 41 41.5859C42.4763 42.9167 44.6668 44.1433 47.4658 45.376C50.2508 46.6024 53.5139 47.7828 57.0781 49.0703C59.1965 49.8356 61.4136 50.637 63.6719 51.5C63.1288 51.0616 62.6761 50.5559 62.3252 49.9756C60.9477 47.6978 61.5051 44.9388 62.8965 42.2803L62.9014 42.2715C64.0929 40.0291 64.2694 38.3187 63.9619 37.0254C63.654 35.7301 62.8028 34.612 61.4697 33.6689C58.7406 31.7385 54.3535 30.8145 50.5 30.8145Z" fill="#B6AAD9" stroke="white" stroke-width="3"/>
</mask>
<g mask="url(#mask1_12_110)">
<path d="M-17 62L25 -7.00002C49.1667 -4.00002 97.6 2.39998 98 3.99998C98.4 5.59999 100.167 25.3333 101 35L86 57.5L101 81L104 118L62 166.5L-19.5 127L-17 62Z" fill="#F89BE4"/>
<path d="M-17 62L25 -7.00002C49.1667 -4.00002 97.6 2.39998 98 3.99998C98.4 5.59999 100.167 25.3333 101 35L86 57.5L101 81L104 118L62 166.5L-19.5 127L-17 62Z" fill="url(#paint0_linear_12_110)"/>
<path d="M-17 62L25 -7.00002C49.1667 -4.00002 97.6 2.39998 98 3.99998C98.4 5.59999 100.167 25.3333 101 35L86 57.5L101 81L104 118L62 166.5L-19.5 127L-17 62Z" stroke="black"/>
<path d="M-17 62L25 -7.00002C49.1667 -4.00002 97.6 2.39998 98 3.99998C98.4 5.59999 100.167 25.3333 101 35L86 57.5L94 69L101 81L104 118L62 166.5L-19.5 127L-17 62Z" fill="#F89BE4"/>
<path d="M-17 62L25 -7.00002C49.1667 -4.00002 97.6 2.39998 98 3.99998C98.4 5.59999 100.167 25.3333 101 35L86 57.5L94 69L101 81L104 118L62 166.5L-19.5 127L-17 62Z" fill="url(#paint1_linear_12_110)"/>
<path d="M95.08 42.3714L119.32 36.9657L185.98 35L189 65L180.5 104.5L167.5 117.5L135.985 121L112 117L101 107V96.5V82.5L95.08 69L87 55.1486L95.08 42.3714Z" fill="#F89BE4"/>
<path d="M95.08 42.3714L119.32 36.9657L185.98 35L189 65L180.5 104.5L167.5 117.5L135.985 121L112 117L101 107V96.5V82.5L95.08 69L87 55.1486L95.08 42.3714Z" fill="url(#paint2_linear_12_110)"/>
<path d="M185 42.5L186 -4.00002L216 -7.00002L223.5 35.5L216 71.5L220.5 84L221 90.5L220.5 98.5L195 104L184.5 91.5L185 83.5L186 79L187.5 71.5L188.5 64L185 42.5Z" fill="#F89BE4"/>
<path d="M185 42.5L186 -4.00002L216 -7.00002L223.5 35.5L216 71.5L220.5 84L221 90.5L220.5 98.5L195 104L184.5 91.5L185 83.5L186 79L187.5 71.5L188.5 64L185 42.5Z" fill="url(#paint3_linear_12_110)"/>
<path d="M257 113.5L250 91L265 92.5L279 88L283.5 62.5L271 52L250 55.5L219 48.5L216 60.5L215 64V65.5V67L217.5 75.5L221 84L219 109.5L217.5 122.5L228 128H254L257 113.5Z" fill="#F89BE4"/>
<path d="M257 113.5L250 91L265 92.5L279 88L283.5 62.5L271 52L250 55.5L219 48.5L216 60.5L215 64V65.5V67L217.5 75.5L221 84L219 109.5L217.5 122.5L228 128H254L257 113.5Z" fill="url(#paint4_linear_12_110)"/>
<path d="M309.5 86L317 24.5C284.927 3.2424 269.5 -15.1745 269.5 34C269.5 37.2 276.333 57.6666 280.5 68.5V76.5L278 81.5L273 94V113L281 126L325.5 129V102L309.5 86Z" fill="#F89BE4"/>
<path d="M309.5 86L317 24.5C284.927 3.2424 269.5 -15.1745 269.5 34C269.5 37.2 276.333 57.6666 280.5 68.5V76.5L278 81.5L273 94V113L281 126L325.5 129V102L309.5 86Z" fill="url(#paint5_linear_12_110)"/>
<path d="M-3 146L-9 -5.00002L361.5 -28L366.5 144L-3 146Z" fill="white" fill-opacity="0.35"/>
</g>
<path d="M303.95 72C303.95 118.772 317.138 92.2065 318.858 105.63C320.435 117.641 308.537 124 298.216 124C288.325 124 278.434 118.065 278.434 103.935C278.434 96.3044 281.301 85.4239 281.301 72C281.301 53.3478 277 43.8804 277 34.837C277 23.5326 283.881 20 293.055 20C302.23 20 308.394 23.5326 308.394 34.5543C308.394 43.8804 303.95 53.6304 303.95 72Z" fill="#B6AAD9"/>
<path d="M264.336 87.08C258.32 87.464 254.352 83.752 255.12 79.4C255.76 76.328 253.328 76.2 252.432 76.2C247.824 76.2 244.624 81.704 244.624 90.152V91.176C244.624 109.864 249.744 106.536 251.024 111.656C252.432 117.672 245.392 124.328 236.304 124.328C228.88 124.328 222.352 119.72 222.352 109.224C222.352 103.208 224.528 97.192 224.528 91.176V90.152C224.528 87.208 224.272 83.752 223.376 80.168C221.584 72.36 218 69.8 218 65.448C218 60.712 222.48 57 229.392 57C235.28 57 240.144 59.816 241.04 64.04C241.808 67.368 240.528 73 238.096 76.968C237.072 78.632 236.816 79.656 237.84 79.656C238.224 79.656 238.608 79.4 239.888 76.968C246.032 64.552 255.376 57 264.592 57C275.216 57 277.264 66.984 277.264 71.976C277.264 80.04 272.144 86.696 264.336 87.08Z" fill="#B6AAD9"/>
<path d="M212.192 65.464C212.192 83.384 217.952 83.384 217.952 88.76C217.952 94.136 211.936 98.616 203.232 98.616C193.888 98.616 188 93.24 188 84.536C188 77.496 191.968 71.48 191.968 65.464V64.44C191.968 58.296 188 48.44 188 42.296C188 34.488 194.272 31.288 202.464 31.288C210.528 31.288 216.032 34.488 216.032 42.04C216.032 48.44 212.192 58.296 212.192 64.44V65.464ZM189.792 15.8C189.792 8.76 195.296 3 202.336 3C209.248 3 214.752 8.76 214.752 15.8C214.752 22.84 209.248 28.6 202.336 28.6C195.296 28.6 189.792 22.84 189.792 15.8Z" fill="#B6AAD9"/>
<path d="M140.673 94.256C138.753 109.872 131.073 113.328 122.625 113.328C115.713 113.328 108.417 110.896 105.601 102.96C102.657 94.768 106.497 87.088 104.577 79.152C102.913 72.752 95.7453 65.712 93.5693 58.288C91.0093 49.2 97.4093 46 106.241 46C115.073 46 120.833 49.2 121.601 58.288C122.113 64.176 121.473 82.224 123.521 89.904C123.905 91.312 124.161 91.568 124.673 91.568C124.929 91.568 128.385 91.696 130.945 85.936C135.041 76.848 130.817 67.504 128.257 64.432C126.337 62.128 124.545 57.904 125.057 54.064C125.441 48.304 130.945 46 138.241 46C147.073 46 152.833 49.2 153.601 58.288C154.241 64.176 153.473 82.224 155.009 87.728C155.905 91.312 158.465 92.336 158.849 92.336C159.233 92.336 161.025 91.568 162.817 87.984C167.681 78.384 162.817 67.504 160.257 64.432C156.161 59.696 152.833 46 170.497 46C170.497 46 183.937 46 184.833 62C185.345 71.6 181.505 86.704 178.689 94.768C173.313 109.232 166.145 113.328 158.209 113.328C150.913 113.328 141.953 109.872 142.849 94.128C142.977 90.8 142.593 90.544 142.081 90.544C141.569 90.544 141.185 90.8 140.673 94.256Z" fill="#B6AAD9"/>
<path d="M64.2256 42.9757C69.4691 33.1089 58.5195 29.314 50.5 29.314C42.9432 29.314 37.3912 32.8053 37.3912 37.511C37.3912 53.6014 98 48.7439 98 93.2202C98 121.302 73.7873 138 46.1818 138C20.8896 138 3 124.035 3 102.328C3 83.2016 16.7256 70.4508 38.0081 70.4508C47.5698 70.4508 53.8929 73.0313 57.5942 76.3708C67.0016 85.0232 62.5292 101.721 50.0373 101.114C42.1721 100.81 44.0227 94.4345 39.0877 94.4345C37.0828 94.4345 35.3864 95.6489 35.3864 98.9884C35.3864 105.212 40.6299 109.311 48.3409 109.311C59.1364 109.311 69.3149 101.721 69.3149 89.2735C69.3149 59.3696 9.78571 70.9061 9.78571 36.6002C9.78571 20.0545 23.8198 7 51.1169 7C76.2549 7 92.4481 17.9293 92.4481 34.1715C92.4481 47.8331 81.1899 53.6014 70.3945 52.2352C63.1461 51.4762 61.6039 47.9849 64.2256 42.9757Z" fill="#B6AAD9"/>
<path d="M109.479 14.8965C111.143 10.8816 116.979 11.367 117.956 15.6014C118.392 17.4935 120.007 18.8869 121.942 19.0478C126.272 19.408 127.561 25.1461 123.862 27.4268C122.212 28.4438 121.373 30.413 121.809 32.3011L121.852 32.485C122.824 36.6975 117.831 39.6873 114.576 36.8416C113.105 35.5553 110.967 35.3775 109.304 36.4032C105.624 38.6722 101.194 34.8986 102.848 30.9046L102.92 30.7302C103.662 28.94 103.16 26.8593 101.701 25.5838C98.4297 22.7234 100.648 17.2769 104.979 17.6371C106.914 17.798 108.736 16.6904 109.479 14.8965Z" fill="url(#paint6_linear_12_110)"/>
<circle cx="188" cy="116" r="8" fill="url(#paint7_linear_12_110)"/>
<circle cx="198.5" cy="108.5" r="2.5" fill="url(#paint8_linear_12_110)"/>
<circle cx="130.5" cy="32.5" r="2.5" fill="url(#paint9_linear_12_110)"/>
<mask id="mask2_12_110" style="mask-type:alpha" maskUnits="userSpaceOnUse" x="3" y="3" width="316" height="135">
<path d="M303.95 72C303.95 118.772 317.138 92.2065 318.858 105.63C320.435 117.641 308.537 124 298.216 124C288.325 124 278.434 118.065 278.434 103.935C278.434 96.3044 281.301 85.4239 281.301 72C281.301 53.3478 277 43.8804 277 34.837C277 23.5326 283.881 20 293.055 20C302.23 20 308.394 23.5326 308.394 34.5543C308.394 43.8804 303.95 53.6304 303.95 72Z" fill="#B6AAD9"/>
<path d="M264.336 87.08C258.32 87.464 254.352 83.752 255.12 79.4C255.76 76.328 253.328 76.2 252.432 76.2C247.824 76.2 244.624 81.704 244.624 90.152V91.176C244.624 109.864 249.744 106.536 251.024 111.656C252.432 117.672 245.392 124.328 236.304 124.328C228.88 124.328 222.352 119.72 222.352 109.224C222.352 103.208 224.528 97.192 224.528 91.176V90.152C224.528 87.208 224.272 83.752 223.376 80.168C221.584 72.36 218 69.8 218 65.448C218 60.712 222.48 57 229.392 57C235.28 57 240.144 59.816 241.04 64.04C241.808 67.368 240.528 73 238.096 76.968C237.072 78.632 236.816 79.656 237.84 79.656C238.224 79.656 238.608 79.4 239.888 76.968C246.032 64.552 255.376 57 264.592 57C275.216 57 277.264 66.984 277.264 71.976C277.264 80.04 272.144 86.696 264.336 87.08Z" fill="#B6AAD9"/>
<path d="M212.192 65.464C212.192 83.384 217.952 83.384 217.952 88.76C217.952 94.136 211.936 98.616 203.232 98.616C193.888 98.616 188 93.24 188 84.536C188 77.496 191.968 71.48 191.968 65.464V64.44C191.968 58.296 188 48.44 188 42.296C188 34.488 194.272 31.288 202.464 31.288C210.528 31.288 216.032 34.488 216.032 42.04C216.032 48.44 212.192 58.296 212.192 64.44V65.464ZM189.792 15.8C189.792 8.76 195.296 3 202.336 3C209.248 3 214.752 8.76 214.752 15.8C214.752 22.84 209.248 28.6 202.336 28.6C195.296 28.6 189.792 22.84 189.792 15.8Z" fill="#B6AAD9"/>
<path d="M140.673 94.256C138.753 109.872 131.073 113.328 122.625 113.328C115.713 113.328 108.417 110.896 105.601 102.96C102.657 94.768 106.497 87.088 104.577 79.152C102.913 72.752 95.7453 65.712 93.5693 58.288C91.0093 49.2 97.4093 46 106.241 46C115.073 46 120.833 49.2 121.601 58.288C122.113 64.176 121.473 82.224 123.521 89.904C123.905 91.312 124.161 91.568 124.673 91.568C124.929 91.568 128.385 91.696 130.945 85.936C135.041 76.848 130.817 67.504 128.257 64.432C126.337 62.128 124.545 57.904 125.057 54.064C125.441 48.304 130.945 46 138.241 46C147.073 46 152.833 49.2 153.601 58.288C154.241 64.176 153.473 82.224 155.009 87.728C155.905 91.312 158.465 92.336 158.849 92.336C159.233 92.336 161.025 91.568 162.817 87.984C167.681 78.384 162.817 67.504 160.257 64.432C156.161 59.696 152.833 46 170.497 46C170.497 46 183.937 46 184.833 62C185.345 71.6 181.505 86.704 178.689 94.768C173.313 109.232 166.145 113.328 158.209 113.328C150.913 113.328 141.953 109.872 142.849 94.128C142.977 90.8 142.593 90.544 142.081 90.544C141.569 90.544 141.185 90.8 140.673 94.256Z" fill="#B6AAD9"/>
<path d="M64.2256 42.9757C69.4691 33.1089 58.5195 29.314 50.5 29.314C42.9432 29.314 37.3912 32.8053 37.3912 37.511C37.3912 53.6014 98 48.7439 98 93.2202C98 121.302 73.7873 138 46.1818 138C20.8896 138 3 124.035 3 102.328C3 83.2016 16.7256 70.4508 38.0081 70.4508C47.5698 70.4508 53.8929 73.0313 57.5942 76.3708C67.0016 85.0232 62.5292 101.721 50.0373 101.114C42.1721 100.81 44.0227 94.4345 39.0877 94.4345C37.0828 94.4345 35.3864 95.6489 35.3864 98.9884C35.3864 105.212 40.6299 109.311 48.3409 109.311C59.1364 109.311 69.3149 101.721 69.3149 89.2735C69.3149 59.3696 9.78571 70.9061 9.78571 36.6002C9.78571 20.0545 23.8198 7 51.1169 7C76.2549 7 92.4481 17.9293 92.4481 34.1715C92.4481 47.8331 81.1899 53.6014 70.3945 52.2352C63.1461 51.4762 61.6039 47.9849 64.2256 42.9757Z" fill="#B6AAD9"/>
</mask>
<g mask="url(#mask2_12_110)">
<path d="M-17 62L25 -7.00002C49.1667 -4.00002 97.6 2.39998 98 3.99998C98.4 5.59999 100.167 25.3333 101 35L86 57.5L101 81L104 118L62 166.5L-19.5 127L-17 62Z" fill="#F89BE4"/>
<path d="M-17 62L25 -7.00002C49.1667 -4.00002 97.6 2.39998 98 3.99998C98.4 5.59999 100.167 25.3333 101 35L86 57.5L101 81L104 118L62 166.5L-19.5 127L-17 62Z" fill="url(#paint10_linear_12_110)"/>
<path d="M-17 62L25 -7.00002C49.1667 -4.00002 97.6 2.39998 98 3.99998C98.4 5.59999 100.167 25.3333 101 35L86 57.5L101 81L104 118L62 166.5L-19.5 127L-17 62Z" stroke="black"/>
<path d="M-23.5 59L18.5 -10C42.6667 -7.00002 91.1 -0.600016 91.5 0.999985C91.9 2.59999 93.6667 22.3333 94.5 32L79.5 54.5L87.5 66L94.5 78L97.5 115L55.5 163.5L-26 124L-23.5 59Z" fill="#F89BE4"/>
<path d="M-23.5 59L18.5 -10C42.6667 -7.00002 91.1 -0.600016 91.5 0.999985C91.9 2.59999 93.6667 22.3333 94.5 32L79.5 54.5L87.5 66L94.5 78L97.5 115L55.5 163.5L-26 124L-23.5 59Z" fill="url(#paint11_linear_12_110)"/>
<path d="M95.08 42.3714L119.32 36.9657L185.98 35L189 65L180.5 104.5L167.5 117.5L135.985 121L112 117L101 107V96.5V82.5L95.08 69L87 55.1486L95.08 42.3714Z" fill="#F89BE4"/>
<path d="M95.08 42.3714L119.32 36.9657L185.98 35L189 65L180.5 104.5L167.5 117.5L135.985 121L112 117L101 107V96.5V82.5L95.08 69L87 55.1486L95.08 42.3714Z" fill="url(#paint12_linear_12_110)"/>
<path d="M185 42.5L186 -4.00002L216 -7.00002L223.5 35.5L216 71.5L220.5 84L221 90.5L220.5 98.5L195 104L184.5 91.5L185 83.5L186 79L187.5 71.5L188.5 64L185 42.5Z" fill="#F89BE4"/>
<path d="M185 42.5L186 -4.00002L216 -7.00002L223.5 35.5L216 71.5L220.5 84L221 90.5L220.5 98.5L195 104L184.5 91.5L185 83.5L186 79L187.5 71.5L188.5 64L185 42.5Z" fill="url(#paint13_linear_12_110)"/>
<path d="M257 113.5L250 91L265 92.5L279 88L283.5 62.5L271 52L250 55.5L219 48.5L216 60.5L215 64V65.5V67L217.5 75.5L221 84L219 109.5L217.5 122.5L228 128H254L257 113.5Z" fill="#F89BE4"/>
<path d="M257 113.5L250 91L265 92.5L279 88L283.5 62.5L271 52L250 55.5L219 48.5L216 60.5L215 64V65.5V67L217.5 75.5L221 84L219 109.5L217.5 122.5L228 128H254L257 113.5Z" fill="url(#paint14_linear_12_110)"/>
<path d="M309.5 86L317 24.5C284.927 3.2424 269.5 -15.1745 269.5 34C269.5 37.2 276.333 57.6666 280.5 68.5V76.5L278 81.5L273 94V113L281 126L325.5 129V102L309.5 86Z" fill="#F89BE4"/>
<path d="M309.5 86L317 24.5C284.927 3.2424 269.5 -15.1745 269.5 34C269.5 37.2 276.333 57.6666 280.5 68.5V76.5L278 81.5L273 94V113L281 126L325.5 129V102L309.5 86Z" fill="url(#paint15_linear_12_110)"/>
<path d="M9.68933 35C8.70302 31.778 -5.88549 25.6722 -7.06846 24.6247C4.03344 11.5942 42.048 -8.03026 42.9941 -8.31989C43.9403 -8.60952 67.4378 -7.34521 79.0682 -6.67686L86.9569 10.6421C86.9569 10.6421 86.7252 13.5157 85.5779 14.5881C83.8781 16.1771 82.0299 15.6743 79.6641 14.2841C77.6097 13.077 76.1784 12.0423 73.9471 12.5103C72.2252 12.8715 71.3075 13.3838 70.2023 15.0662C69.031 16.8492 69.324 18.0787 69.2178 20.3011C69.0562 23.6825 69.6095 25.669 68.6282 28.9389C67.5422 32.5576 66.4611 34.5358 63.7017 36.0853C60.9422 37.6348 56.8736 38.4702 54.0426 36.223C52.7765 35.218 52.6622 33.8264 52.6622 33.8264C52.2677 32.5376 52.126 30.9804 52.6613 29.598C53.7629 26.7531 52.5803 23.9339 50.2942 21.8653C48.3327 20.0905 46.7901 20.9467 44.3804 21.5613C41.7635 22.2287 38.9085 23.5043 37.8761 25.6667C37.1461 27.1957 36.912 29.3548 37.2638 31.0833C37.7118 33.2848 38.8959 33.8837 39.767 36.0689C40.9437 39.021 42.3991 42.8812 40.5519 45.2409C38.7174 47.5844 34.5624 49.1336 33.3413 49.0169C31.2489 48.8169 29.8519 46.8772 28.8125 44.6513C27.5212 41.886 29.0084 38.953 29.0079 36.8388C29.0075 34.7246 30.4132 30.1799 26.0494 29.2871C24.6695 29.0047 24.8208 29.0067 24.0782 29.1857C22.3847 29.5941 21.097 30.1874 20.2201 31.7763C19.3561 33.3419 20.0521 36.3521 20.0521 36.3521C20.8412 38.9297 21.8847 39.7474 21.8084 42.0893C21.7503 43.8732 20.99 45.3376 19.5816 46.7722C19.183 47.1782 15.2787 48.0894 13.6807 44.5774C12.0827 41.0654 12.8933 38.5889 12.6006 37.6327C11.9497 35.5065 9.84714 35.5155 9.68933 35Z" fill="white" fill-opacity="0.35"/>
<path d="M57.2736 10.6555C57.4246 9.74121 58.2883 9.12248 59.2027 9.27356L66.1127 10.4154C67.027 10.5664 67.6457 11.4301 67.4946 12.3445C67.3435 13.2588 66.4799 13.8775 65.5655 13.7264L58.6555 12.5846C57.7412 12.4336 57.1225 11.5699 57.2736 10.6555Z" fill="url(#paint16_linear_12_110)"/>
<path d="M27.4386 16.5797C27.6809 15.7073 28.5845 15.1964 29.457 15.4386L34.011 16.7031C34.8835 16.9453 35.3943 17.849 35.1521 18.7214C34.9099 19.5939 34.0062 20.1048 33.1337 19.8625L28.5797 18.5981C27.7073 18.3558 27.1964 17.4522 27.4386 16.5797Z" fill="url(#paint17_linear_12_110)"/>
<path d="M13.8814 28.2852C13.3946 27.4966 13.6393 26.4628 14.4279 25.976L17.8213 23.8814C18.6099 23.3946 19.6438 23.6393 20.1306 24.4279C20.6173 25.2165 20.3727 26.2504 19.5841 26.7371L16.1906 28.8318C15.402 29.3185 14.3681 29.0738 13.8814 28.2852Z" fill="url(#paint18_linear_12_110)"/>
<path d="M38.5382 11.9447C38.241 11.067 38.7116 10.1145 39.5893 9.81722L43.3665 8.53819C44.2443 8.24096 45.1968 8.71157 45.494 9.58934C45.7913 10.4671 45.3207 11.4196 44.4429 11.7169L40.6657 12.9959C39.7879 13.2931 38.8354 12.8225 38.5382 11.9447Z" fill="url(#paint19_linear_12_110)"/>
<path d="M58.5923 22.6738C58.3211 21.7877 58.8196 20.8495 59.7058 20.5783L61.7486 19.9532C62.6348 19.682 63.573 20.1805 63.8442 21.0667C64.1153 21.9529 63.6168 22.8911 62.7306 23.1623L60.6878 23.7874C59.8017 24.0586 58.8634 23.56 58.5923 22.6738Z" fill="url(#paint20_linear_12_110)"/>
<circle cx="48.5" cy="16.5" r="1.5" fill="url(#paint21_linear_12_110)"/>
<circle cx="22.5" cy="18.5" r="1.5" transform="rotate(-33.8291 22.5 18.5)" fill="url(#paint22_linear_12_110)"/>
<circle cx="32.5" cy="27.5" r="1.5" fill="url(#paint23_linear_12_110)"/>
<path d="M196.208 7.41356C196.659 5.40447 198.534 3.69593 199.903 2.14416C202.303 -0.577818 205.526 -0.380634 208.933 0.92815C211.803 2.03065 214.679 6.19754 214.679 6.19754C214.679 6.19754 215.401 9.77372 214.679 11.8723C213.768 14.5242 212.164 16.1541 209.754 17.1417C206.008 18.6764 200.384 18.242 197.85 15.115C196.208 13.0883 195.654 9.88627 196.208 7.41356Z" fill="white" fill-opacity="0.35"/>
</g>
<defs>
<linearGradient id="paint0_linear_12_110" x1="42.25" y1="-7.00002" x2="42.25" y2="166.5" gradientUnits="userSpaceOnUse">
<stop offset="0.211538" stop-color="#BE79F3" stop-opacity="0"/>
<stop offset="0.673077" stop-color="#643398"/>
</linearGradient>
<linearGradient id="paint1_linear_12_110" x1="42.25" y1="-7.00002" x2="42.25" y2="166.5" gradientUnits="userSpaceOnUse">
<stop offset="0.211538" stop-color="#BE79F3" stop-opacity="0"/>
<stop offset="0.673077" stop-color="#643398"/>
</linearGradient>
<linearGradient id="paint2_linear_12_110" x1="137.5" y1="35" x2="137.5" y2="121" gradientUnits="userSpaceOnUse">
<stop offset="0.211538" stop-color="#BE79F3" stop-opacity="0"/>
<stop offset="0.673077" stop-color="#643398"/>
</linearGradient>
<linearGradient id="paint3_linear_12_110" x1="202.75" y1="-7.00002" x2="202.75" y2="104" gradientUnits="userSpaceOnUse">
<stop offset="0.211538" stop-color="#BE79F3" stop-opacity="0"/>
<stop offset="0.673077" stop-color="#643398"/>
</linearGradient>
<linearGradient id="paint4_linear_12_110" x1="247" y1="48.5" x2="247" y2="128" gradientUnits="userSpaceOnUse">
<stop offset="0.211538" stop-color="#BE79F3" stop-opacity="0"/>
<stop offset="0.673077" stop-color="#643398"/>
</linearGradient>
<linearGradient id="paint5_linear_12_110" x1="297" y1="6.73412" x2="297" y2="129" gradientUnits="userSpaceOnUse">
<stop offset="0.211538" stop-color="#BE79F3" stop-opacity="0"/>
<stop offset="0.673077" stop-color="#643398"/>
</linearGradient>
<linearGradient id="paint6_linear_12_110" x1="114.819" y1="2.00687" x2="111.262" y2="44.774" gradientUnits="userSpaceOnUse">
<stop stop-color="#F096DC" stop-opacity="0.31"/>
<stop offset="0.75" stop-color="#643398" stop-opacity="0.87"/>
</linearGradient>
<linearGradient id="paint7_linear_12_110" x1="188" y1="108" x2="188" y2="124" gradientUnits="userSpaceOnUse">
<stop stop-color="#F096DC" stop-opacity="0.44"/>
<stop offset="0.745192" stop-color="#582093" stop-opacity="0.86"/>
</linearGradient>
<linearGradient id="paint8_linear_12_110" x1="198.5" y1="106" x2="198.5" y2="111" gradientUnits="userSpaceOnUse">
<stop stop-color="#F096DC" stop-opacity="0.44"/>
<stop offset="0.745192" stop-color="#582093" stop-opacity="0.86"/>
</linearGradient>
<linearGradient id="paint9_linear_12_110" x1="130.5" y1="30" x2="130.5" y2="35" gradientUnits="userSpaceOnUse">
<stop stop-color="#F096DC" stop-opacity="0.44"/>
<stop offset="0.745192" stop-color="#582093" stop-opacity="0.86"/>
</linearGradient>
<linearGradient id="paint10_linear_12_110" x1="42.25" y1="-7.00002" x2="42.25" y2="166.5" gradientUnits="userSpaceOnUse">
<stop offset="0.211538" stop-color="#BE79F3" stop-opacity="0"/>
<stop offset="0.673077" stop-color="#643398"/>
</linearGradient>
<linearGradient id="paint11_linear_12_110" x1="35.75" y1="-10" x2="35.75" y2="163.5" gradientUnits="userSpaceOnUse">
<stop offset="0.211538" stop-color="#BE79F3" stop-opacity="0"/>
<stop offset="0.673077" stop-color="#643398"/>
</linearGradient>
<linearGradient id="paint12_linear_12_110" x1="137.5" y1="35" x2="137.5" y2="121" gradientUnits="userSpaceOnUse">
<stop offset="0.211538" stop-color="#BE79F3" stop-opacity="0"/>
<stop offset="0.673077" stop-color="#643398"/>
</linearGradient>
<linearGradient id="paint13_linear_12_110" x1="202.75" y1="-7.00002" x2="202.75" y2="104" gradientUnits="userSpaceOnUse">
<stop offset="0.211538" stop-color="#BE79F3" stop-opacity="0"/>
<stop offset="0.673077" stop-color="#643398"/>
</linearGradient>
<linearGradient id="paint14_linear_12_110" x1="247" y1="48.5" x2="247" y2="128" gradientUnits="userSpaceOnUse">
<stop offset="0.211538" stop-color="#BE79F3" stop-opacity="0"/>
<stop offset="0.673077" stop-color="#643398"/>
</linearGradient>
<linearGradient id="paint15_linear_12_110" x1="297" y1="6.73412" x2="297" y2="129" gradientUnits="userSpaceOnUse">
<stop offset="0.211538" stop-color="#BE79F3" stop-opacity="0"/>
<stop offset="0.673077" stop-color="#643398"/>
</linearGradient>
<linearGradient id="paint16_linear_12_110" x1="63" y1="10.5" x2="62" y2="14" gradientUnits="userSpaceOnUse">
<stop stop-color="#976CC4"/>
<stop offset="1" stop-color="#6E4E91"/>
</linearGradient>
<linearGradient id="paint17_linear_12_110" x1="31.734" y1="16.0708" x2="30.8567" y2="19.2303" gradientUnits="userSpaceOnUse">
<stop stop-color="#E394DE"/>
<stop offset="1" stop-color="#9C6699"/>
</linearGradient>
<linearGradient id="paint18_linear_12_110" x1="16.1246" y1="24.9287" x2="17.8873" y2="27.7844" gradientUnits="userSpaceOnUse">
<stop stop-color="#B386E2"/>
<stop offset="1" stop-color="#8163A1"/>
</linearGradient>
<linearGradient id="paint19_linear_12_110" x1="41.4779" y1="9.17771" x2="42.5543" y2="12.3564" gradientUnits="userSpaceOnUse">
<stop stop-color="#BE94E8"/>
<stop offset="1" stop-color="#80639C"/>
</linearGradient>
<linearGradient id="paint20_linear_12_110" x1="60.7272" y1="20.2657" x2="61.7092" y2="23.4748" gradientUnits="userSpaceOnUse">
<stop stop-color="#D695E8"/>
<stop offset="1" stop-color="#9C68AA"/>
</linearGradient>
<linearGradient id="paint21_linear_12_110" x1="48.5" y1="15" x2="48.5" y2="18" gradientUnits="userSpaceOnUse">
<stop stop-color="#F096DC"/>
<stop offset="1" stop-color="#8A567F"/>
</linearGradient>
<linearGradient id="paint22_linear_12_110" x1="22.5" y1="17" x2="22.5" y2="20" gradientUnits="userSpaceOnUse">
<stop stop-color="#F096DC"/>
<stop offset="1" stop-color="#8A567F"/>
</linearGradient>
<linearGradient id="paint23_linear_12_110" x1="32.5" y1="26" x2="32.5" y2="29" gradientUnits="userSpaceOnUse">
<stop stop-color="#CB80CF"/>
<stop offset="1" stop-color="#674169"/>
</linearGradient>
</defs>
</svg>
