<svg width="50" height="49" viewBox="0 0 50 49" fill="none" xmlns="http://www.w3.org/2000/svg">
<path d="M42.9992 34.4501C44.4494 32.1958 45 29.5354 45 26.69C45 15.2264 36.5344 5 25 5C13.4656 5 5 15.2264 5 26.69C5 28.5884 5.20533 30.3863 5.72956 32.0355C8.28767 40.0835 16.8679 42.943 23.5822 43.1232C30.4278 43.307 38.8467 40.9048 42.9992 34.4501Z" fill="#B2A585"/>
<path d="M42.9992 34.4501C44.4494 32.1958 45 29.5354 45 26.69C45 15.2264 36.5344 5 25 5C13.4656 5 5 15.2264 5 26.69C5 28.5884 5.20533 30.3863 5.72956 32.0355C8.28767 40.0835 16.8679 42.943 23.5822 43.1232C30.4278 43.307 38.8467 40.9048 42.9992 34.4501Z" stroke="#B9AC8A" stroke-width="10"/>
<path d="M42.9992 34.4501C44.4494 32.1958 45 29.5354 45 26.69C45 15.2264 36.5344 5 25 5C13.4656 5 5 15.2264 5 26.69C5 28.5884 5.20533 30.3863 5.72956 32.0355C8.28767 40.0835 16.8679 42.943 23.5822 43.1232C30.4278 43.307 38.8467 40.9048 42.9992 34.4501Z" stroke="black" stroke-opacity="0.2" stroke-width="10"/>
</svg>
