<svg width="125" height="155" viewBox="0 0 125 155" fill="none" xmlns="http://www.w3.org/2000/svg">
<path d="M58.7803 46.339L61.4223 35.3935C62.4211 31.2556 64.1592 27.3322 66.5528 23.8122V23.8122C70.7543 17.6335 76.8059 12.9452 83.8384 10.4207L96.1532 6" stroke="#00C434" stroke-width="11.8644" stroke-linecap="round"/>
<path d="M79.6425 147.346C89.1727 146.28 99.1182 144.741 106.56 139.455C114.63 133.724 118.695 124.497 118.695 110.915C118.695 76.1227 94.2723 46.339 62.3388 46.339C30.4053 46.339 5.98283 76.1227 5.98283 110.915C5.98283 123.837 8.98955 132.863 15.8753 138.661C22.3344 144.099 31.1576 145.652 39.5968 146.79C52.812 148.572 66.3265 148.837 79.6425 147.346Z" fill="#FF5353"/>
<path d="M79.6425 147.346C89.1727 146.28 99.1182 144.741 106.56 139.455C114.63 133.724 118.695 124.497 118.695 110.915C118.695 76.1227 94.2723 46.339 62.3388 46.339C30.4053 46.339 5.98283 76.1227 5.98283 110.915C5.98283 123.837 8.98955 132.863 15.8753 138.661C22.3344 144.099 31.1576 145.652 39.5968 146.79C52.812 148.572 66.3265 148.837 79.6425 147.346Z" stroke="#FF6666" stroke-width="11.8644"/>
<path d="M79.6425 147.346C89.1727 146.28 99.1182 144.741 106.56 139.455C114.63 133.724 118.695 124.497 118.695 110.915C118.695 76.1227 94.2723 46.339 62.3388 46.339C30.4053 46.339 5.98283 76.1227 5.98283 110.915C5.98283 123.837 8.98955 132.863 15.8753 138.661C22.3344 144.099 31.1576 145.652 39.5968 146.79C52.812 148.572 66.3265 148.837 79.6425 147.346Z" stroke="black" stroke-opacity="0.2" stroke-width="11.8644"/>
<path d="M28.5259 92.6103L31.3938 84.6685C34.4425 76.2258 41.2945 69.7154 49.8819 67.1018V67.1018" stroke="#FFFEF2" stroke-width="11.8644" stroke-linecap="round"/>
</svg>
