<svg width="800" height="800" viewBox="0 0 800 800" fill="none" xmlns="http://www.w3.org/2000/svg">
<g clip-path="url(#clip0_14_59)">
<rect width="800" height="800" fill="#D8B4FF"/>
<path d="M349.915 768.931C364.363 802.298 411.68 802.297 426.128 768.931L544.118 496.444C555.991 469.025 535.891 438.418 506.012 438.418L270.031 438.418C240.152 438.418 220.052 469.025 231.925 496.444L349.915 768.931Z" fill="#FDE09D" stroke="#7A725E" stroke-width="35.5932"/>
<path d="M385.763 516.373V776.204H389.916L395.848 775.018L399.407 773.831L402.373 771.458L408.306 766.119L531.695 479.594L519.831 468.323L505.594 498.577L481.865 516.373L430.255 522.306L385.763 516.373Z" fill="#CFB984"/>
<g filter="url(#filter0_d_14_59)">
<path d="M372.119 766.713L376.957 770.342C378.469 771.475 380.142 772.375 381.921 773.01V773.01C385.579 774.317 389.551 774.46 393.293 773.42L393.818 773.275C396.717 772.469 399.405 771.037 401.69 769.078L402.298 768.557C405.08 766.172 407.283 763.186 408.739 759.824L414.237 747.136L469.407 618.407L529.915 477.221" stroke="#5D5031" stroke-opacity="0.5" stroke-width="5.93221" stroke-linecap="round" shape-rendering="crispEdges"/>
</g>
<path d="M401.78 769.086L398.863 770.942C396.486 772.455 393.808 773.431 391.015 773.803V773.803C387.954 774.212 384.839 773.883 381.93 772.844L381.544 772.706C379.233 771.881 377.085 770.659 375.194 769.095L374.409 768.445C371.191 765.783 368.637 762.408 366.951 758.587L361.707 746.707L305.845 618.749L244.577 478.407" stroke="#5D5031" stroke-opacity="0.5" stroke-width="5.93221" stroke-linecap="round"/>
<path d="M349.915 768.931C364.363 802.298 411.68 802.297 426.128 768.931L544.118 496.444C555.991 469.025 535.891 438.418 506.012 438.418L270.031 438.418C240.152 438.418 220.052 469.025 231.925 496.444L349.915 768.931Z" stroke="#7A725E" stroke-width="35.5932"/>
<rect x="289.659" y="512.814" width="47.4577" height="47.4577" rx="5.93221" fill="#C7AB66" stroke="#7A725E" stroke-width="11.8644"/>
<rect x="363.219" y="512.814" width="47.4577" height="47.4577" rx="5.93221" fill="#C7AB66" stroke="#7A725E" stroke-width="11.8644"/>
<rect x="436.778" y="512.814" width="47.4577" height="47.4577" rx="5.93221" fill="#C7AB66" stroke="#7A725E" stroke-width="11.8644"/>
<rect x="331.184" y="613.662" width="47.4577" height="47.4577" rx="5.93221" fill="#C7AB66" stroke="#7A725E" stroke-width="11.8644"/>
<rect x="395.252" y="613.662" width="47.4577" height="47.4577" rx="5.93221" fill="#C7AB66" stroke="#7A725E" stroke-width="11.8644"/>
<path d="M401.185 655.187H430.846C434.122 655.187 436.778 652.531 436.778 649.255V619.594" stroke="#5D5031" stroke-opacity="0.4" stroke-width="11.8644" stroke-linecap="round"/>
<path d="M337.117 655.187H366.778C370.054 655.187 372.71 652.531 372.71 649.255V619.594" stroke="#5D5031" stroke-opacity="0.4" stroke-width="11.8644" stroke-linecap="round"/>
<path d="M295.591 554.34H325.252C328.529 554.34 331.185 551.684 331.185 548.407V518.746" stroke="#5D5031" stroke-opacity="0.4" stroke-width="11.8644" stroke-linecap="round"/>
<path d="M370.336 554.34H399.997C403.274 554.34 405.93 551.684 405.93 548.407V518.746" stroke="#5D5031" stroke-opacity="0.4" stroke-width="11.8644" stroke-linecap="round"/>
<path d="M442.71 554.34H472.371C475.647 554.34 478.303 551.684 478.303 548.407V518.746" stroke="#5D5031" stroke-opacity="0.4" stroke-width="11.8644" stroke-linecap="round"/>
<rect x="289.659" y="512.814" width="47.4577" height="47.4577" rx="5.93221" stroke="#7A725E" stroke-width="11.8644"/>
<rect x="363.219" y="512.814" width="47.4577" height="47.4577" rx="5.93221" stroke="#7A725E" stroke-width="11.8644"/>
<rect x="436.778" y="512.814" width="47.4577" height="47.4577" rx="5.93221" stroke="#7A725E" stroke-width="11.8644"/>
<rect x="331.184" y="613.662" width="47.4577" height="47.4577" rx="5.93221" stroke="#7A725E" stroke-width="11.8644"/>
<rect x="395.252" y="613.662" width="47.4577" height="47.4577" rx="5.93221" stroke="#7A725E" stroke-width="11.8644"/>
<path d="M396.741 471.762C406.458 470.777 416.7 469.898 426.838 469.028C439.365 467.953 451.732 466.892 462.752 465.659C483.487 463.34 503.69 460.055 521.333 453.657C539.211 447.174 555.416 437.152 566.929 420.835C578.426 404.539 583.898 383.872 583.898 358.577C583.898 252.088 495.912 166.373 388.136 166.373C280.359 166.373 192.373 252.088 192.373 358.577C192.373 383.191 196.632 403.291 206.165 419.26C215.906 435.576 230.048 445.741 246.226 452.314C261.949 458.703 280.123 461.912 298.839 464.292C307.589 465.405 316.797 466.373 326.181 467.359C326.938 467.439 327.696 467.519 328.455 467.598C338.698 468.677 349.227 469.802 360.112 471.214C372.21 472.782 384.519 473.003 396.741 471.762Z" fill="#FFFACC"/>
<path d="M396.741 471.762C406.458 470.777 416.7 469.898 426.838 469.028C439.365 467.953 451.732 466.892 462.752 465.659C483.487 463.34 503.69 460.055 521.333 453.657C539.211 447.174 555.416 437.152 566.929 420.835C578.426 404.539 583.898 383.872 583.898 358.577C583.898 252.088 495.912 166.373 388.136 166.373C280.359 166.373 192.373 252.088 192.373 358.577C192.373 383.191 196.632 403.291 206.165 419.26C215.906 435.576 230.048 445.741 246.226 452.314C261.949 458.703 280.123 461.912 298.839 464.292C307.589 465.405 316.797 466.373 326.181 467.359C326.938 467.439 327.696 467.519 328.455 467.598C338.698 468.677 349.227 469.802 360.112 471.214C372.21 472.782 384.519 473.003 396.741 471.762Z" stroke="#79765F" stroke-width="35.5932"/>
<path d="M396.741 471.762C406.458 470.777 416.7 469.898 426.838 469.028C439.365 467.953 451.732 466.892 462.752 465.659C483.487 463.34 503.69 460.055 521.333 453.657C539.211 447.174 555.416 437.152 566.929 420.835C578.426 404.539 583.898 383.872 583.898 358.577C583.898 252.088 495.912 166.373 388.136 166.373C280.359 166.373 192.373 252.088 192.373 358.577C192.373 383.191 196.632 403.291 206.165 419.26C215.906 435.576 230.048 445.741 246.226 452.314C261.949 458.703 280.123 461.912 298.839 464.292C307.589 465.405 316.797 466.373 326.181 467.359C326.938 467.439 327.696 467.519 328.455 467.598C338.698 468.677 349.227 469.802 360.112 471.214C372.21 472.782 384.519 473.003 396.741 471.762Z" stroke="black" stroke-opacity="0.2" stroke-width="35.5932"/>
<path d="M246.416 484.341C252.851 483.364 262.29 481.371 269.883 474.57C278.353 466.982 281.356 456.506 281.356 445.549C281.356 414.832 259.025 385.865 226.78 385.865C194.534 385.865 172.203 414.832 172.203 445.549C172.203 455.128 174.125 465.008 181.082 472.728C187.876 480.267 196.738 482.605 202.67 483.72C217.174 486.447 232.105 486.514 246.416 484.341Z" fill="#FFFACC"/>
<path d="M246.416 484.341C252.851 483.364 262.29 481.371 269.883 474.57C278.353 466.982 281.356 456.506 281.356 445.549C281.356 414.832 259.025 385.865 226.78 385.865C194.534 385.865 172.203 414.832 172.203 445.549C172.203 455.128 174.125 465.008 181.082 472.728C187.876 480.267 196.738 482.605 202.67 483.72C217.174 486.447 232.105 486.514 246.416 484.341Z" stroke="#79765F" stroke-width="35.5932"/>
<path d="M246.416 484.341C252.851 483.364 262.29 481.371 269.883 474.57C278.353 466.982 281.356 456.506 281.356 445.549C281.356 414.832 259.025 385.865 226.78 385.865C194.534 385.865 172.203 414.832 172.203 445.549C172.203 455.128 174.125 465.008 181.082 472.728C187.876 480.267 196.738 482.605 202.67 483.72C217.174 486.447 232.105 486.514 246.416 484.341Z" stroke="black" stroke-opacity="0.2" stroke-width="35.5932"/>
<path d="M457.394 502.674C466.708 501.361 479.486 498.989 489.447 490.138C500.332 480.467 504.406 466.489 504.406 450.088C504.406 427.877 497.652 407.089 485.886 391.456C474.114 375.816 456.511 364.509 435.593 364.509C414.674 364.509 397.071 375.816 385.299 391.456C373.533 407.089 366.779 427.877 366.779 450.088C366.779 465.158 369.598 478.589 378.755 488.366C387.693 497.908 399.616 500.491 407.953 501.908C424.184 504.667 440.986 504.986 457.394 502.674Z" fill="#FFFACC"/>
<path d="M457.394 502.674C466.708 501.361 479.486 498.989 489.447 490.138C500.332 480.467 504.406 466.489 504.406 450.088C504.406 427.877 497.652 407.089 485.886 391.456C474.114 375.816 456.511 364.509 435.593 364.509C414.674 364.509 397.071 375.816 385.299 391.456C373.533 407.089 366.779 427.877 366.779 450.088C366.779 465.158 369.598 478.589 378.755 488.366C387.693 497.908 399.616 500.491 407.953 501.908C424.184 504.667 440.986 504.986 457.394 502.674Z" stroke="#79765F" stroke-width="35.5932" stroke-linejoin="round"/>
<path d="M457.394 502.674C466.708 501.361 479.486 498.989 489.447 490.138C500.332 480.467 504.406 466.489 504.406 450.088C504.406 427.877 497.652 407.089 485.886 391.456C474.114 375.816 456.511 364.509 435.593 364.509C414.674 364.509 397.071 375.816 385.299 391.456C373.533 407.089 366.779 427.877 366.779 450.088C366.779 465.158 369.598 478.589 378.755 488.366C387.693 497.908 399.616 500.491 407.953 501.908C424.184 504.667 440.986 504.986 457.394 502.674Z" stroke="black" stroke-opacity="0.2" stroke-width="35.5932" stroke-linejoin="round"/>
<path d="M579.395 460.454L579.496 460.446C587.79 459.781 599.383 458.852 608.715 454.218C613.992 451.597 619.159 447.554 622.83 441.406C626.448 435.348 627.796 428.613 627.796 421.908C627.796 388.317 597.905 364.509 565.508 364.509C533.111 364.509 503.22 388.317 503.22 421.908C503.22 427.976 504.171 434.202 507.007 439.966C509.98 446.008 514.452 450.377 519.569 453.354C528.084 458.306 538.76 459.338 545.935 460.032C546.164 460.054 546.389 460.076 546.61 460.098C557.402 461.147 568.401 461.335 579.395 460.454Z" fill="#FFFACC"/>
<path d="M579.395 460.454L579.496 460.446C587.79 459.781 599.383 458.852 608.715 454.218C613.992 451.597 619.159 447.554 622.83 441.406C626.448 435.348 627.796 428.613 627.796 421.908C627.796 388.317 597.905 364.509 565.508 364.509C533.111 364.509 503.22 388.317 503.22 421.908C503.22 427.976 504.171 434.202 507.007 439.966C509.98 446.008 514.452 450.377 519.569 453.354C528.084 458.306 538.76 459.338 545.935 460.032C546.164 460.054 546.389 460.076 546.61 460.098C557.402 461.147 568.401 461.335 579.395 460.454Z" stroke="#79765F" stroke-width="35.5932" stroke-linejoin="round"/>
<path d="M579.395 460.454L579.496 460.446C587.79 459.781 599.383 458.852 608.715 454.218C613.992 451.597 619.159 447.554 622.83 441.406C626.448 435.348 627.796 428.613 627.796 421.908C627.796 388.317 597.905 364.509 565.508 364.509C533.111 364.509 503.22 388.317 503.22 421.908C503.22 427.976 504.171 434.202 507.007 439.966C509.98 446.008 514.452 450.377 519.569 453.354C528.084 458.306 538.76 459.338 545.935 460.032C546.164 460.054 546.389 460.076 546.61 460.098C557.402 461.147 568.401 461.335 579.395 460.454Z" stroke="black" stroke-opacity="0.2" stroke-width="35.5932" stroke-linejoin="round"/>
<path d="M395.366 461.084C487.83 451.497 566.102 456.416 566.102 363.146C566.102 264.3 486.424 184.17 388.136 184.17C289.848 184.17 210.169 264.3 210.169 363.146C210.169 456.264 273.244 448.812 361.986 460.568C373.048 462.034 384.267 462.235 395.366 461.084Z" fill="#FFFACC"/>
<path d="M243.983 486.119L252.721 481.077C257.101 478.551 260.74 474.917 263.274 470.541L264.087 469.136C265.307 467.029 266.901 465.162 268.79 463.627V463.627C273.028 460.184 278.487 458.62 283.904 459.298L286.495 459.621C288.598 459.884 290.661 460.402 292.638 461.162L298.086 463.257C302.74 465.047 307.563 466.362 312.481 467.182L317.235 467.974C323.361 468.995 329.562 469.509 335.774 469.509H341.946C344.26 469.509 346.57 469.706 348.85 470.099L369.557 473.669C375.606 474.713 380.186 479.713 380.696 485.83V485.83C381.228 492.213 386.178 497.339 392.538 498.093L416.61 500.949L422.337 502.095C428.391 503.306 434.55 503.915 440.725 503.915H444.128C448.707 503.915 453.272 503.414 457.741 502.421L470.064 499.683C478.381 497.835 485.626 492.766 490.213 485.586L494.248 479.271C495.826 476.801 496.458 473.844 496.029 470.944V470.944C495.075 464.503 499.365 458.454 505.759 457.225L518.553 454.764C522.891 453.93 527.371 454.225 531.562 455.622L546.526 460.61" stroke="#615E4C" stroke-width="35.5932"/>
<path d="M537.605 572.987C537.62 572.533 537.628 572.068 537.628 571.592C537.628 564.041 535.927 556.911 532.875 551.461C529.931 546.202 524.928 541.288 518.051 541.288C511.174 541.288 506.171 546.202 503.227 551.461C500.176 556.911 498.475 564.041 498.475 571.592C498.475 577.272 501.23 581.694 505.032 584.56C508.689 587.317 513.275 588.65 517.604 588.842C521.924 589.033 526.612 588.115 530.45 585.622C534.481 583.004 537.419 578.699 537.605 572.987Z" fill="#FFFACC"/>
<path d="M537.605 572.987C537.62 572.533 537.628 572.068 537.628 571.592C537.628 564.041 535.927 556.911 532.875 551.461C529.931 546.202 524.928 541.288 518.051 541.288C511.174 541.288 506.171 546.202 503.227 551.461C500.176 556.911 498.475 564.041 498.475 571.592C498.475 577.272 501.23 581.694 505.032 584.56C508.689 587.317 513.275 588.65 517.604 588.842C521.924 589.033 526.612 588.115 530.45 585.622C534.481 583.004 537.419 578.699 537.605 572.987Z" stroke="#615E4C" stroke-width="11.8644"/>
<path d="M537.605 572.987C537.62 572.533 537.628 572.068 537.628 571.592C537.628 564.041 535.927 556.911 532.875 551.461C529.931 546.202 524.928 541.288 518.051 541.288C511.174 541.288 506.171 546.202 503.227 551.461C500.176 556.911 498.475 564.041 498.475 571.592C498.475 577.272 501.23 581.694 505.032 584.56C508.689 587.317 513.275 588.65 517.604 588.842C521.924 589.033 526.612 588.115 530.45 585.622C534.481 583.004 537.419 578.699 537.605 572.987Z" stroke="black" stroke-opacity="0.1" stroke-width="11.8644"/>
<path d="M229.13 572.987C229.145 572.533 229.152 572.068 229.152 571.592C229.152 564.041 227.452 556.911 224.4 551.461C221.456 546.202 216.453 541.288 209.576 541.288C202.699 541.288 197.696 546.202 194.752 551.461C191.701 556.911 190 564.041 190 571.592C190 577.272 192.755 581.694 196.556 584.56C200.214 587.317 204.8 588.65 209.129 588.842C213.449 589.033 218.137 588.115 221.975 585.622C226.006 583.004 228.944 578.699 229.13 572.987Z" fill="#FFFACC"/>
<path d="M229.13 572.987C229.145 572.533 229.152 572.068 229.152 571.592C229.152 564.041 227.452 556.911 224.4 551.461C221.456 546.202 216.453 541.288 209.576 541.288C202.699 541.288 197.696 546.202 194.752 551.461C191.701 556.911 190 564.041 190 571.592C190 577.272 192.755 581.694 196.556 584.56C200.214 587.317 204.8 588.65 209.129 588.842C213.449 589.033 218.137 588.115 221.975 585.622C226.006 583.004 228.944 578.699 229.13 572.987Z" stroke="#615E4C" stroke-width="11.8644"/>
<path d="M229.13 572.987C229.145 572.533 229.152 572.068 229.152 571.592C229.152 564.041 227.452 556.911 224.4 551.461C221.456 546.202 216.453 541.288 209.576 541.288C202.699 541.288 197.696 546.202 194.752 551.461C191.701 556.911 190 564.041 190 571.592C190 577.272 192.755 581.694 196.556 584.56C200.214 587.317 204.8 588.65 209.129 588.842C213.449 589.033 218.137 588.115 221.975 585.622C226.006 583.004 228.944 578.699 229.13 572.987Z" stroke="black" stroke-opacity="0.1" stroke-width="11.8644"/>
<path d="M562.52 494.682C562.535 494.227 562.543 493.762 562.543 493.287C562.543 485.736 560.842 478.606 557.79 473.156C554.846 467.897 549.843 462.983 542.966 462.983C536.089 462.983 531.086 467.897 528.142 473.156C525.091 478.606 523.39 485.736 523.39 493.287C523.39 498.967 526.145 503.389 529.947 506.255C533.604 509.012 538.19 510.345 542.519 510.537C546.839 510.728 551.527 509.81 555.365 507.317C559.396 504.699 562.334 500.394 562.52 494.682Z" fill="#FFFACC"/>
<path d="M562.52 494.682C562.535 494.227 562.543 493.762 562.543 493.287C562.543 485.736 560.842 478.606 557.79 473.156C554.846 467.897 549.843 462.983 542.966 462.983C536.089 462.983 531.086 467.897 528.142 473.156C525.091 478.606 523.39 485.736 523.39 493.287C523.39 498.967 526.145 503.389 529.947 506.255C533.604 509.012 538.19 510.345 542.519 510.537C546.839 510.728 551.527 509.81 555.365 507.317C559.396 504.699 562.334 500.394 562.52 494.682Z" stroke="#615E4C" stroke-width="11.8644"/>
<path d="M562.52 494.682C562.535 494.227 562.543 493.762 562.543 493.287C562.543 485.736 560.842 478.606 557.79 473.156C554.846 467.897 549.843 462.983 542.966 462.983C536.089 462.983 531.086 467.897 528.142 473.156C525.091 478.606 523.39 485.736 523.39 493.287C523.39 498.967 526.145 503.389 529.947 506.255C533.604 509.012 538.19 510.345 542.519 510.537C546.839 510.728 551.527 509.81 555.365 507.317C559.396 504.699 562.334 500.394 562.52 494.682Z" stroke="black" stroke-opacity="0.1" stroke-width="11.8644"/>
<path d="M277.892 223.74L286.076 217.642C294.753 211.177 304.274 205.929 314.373 202.045L330 196.034L347.823 191.385C354.123 189.741 360.547 188.619 367.03 188.03L389.916 185.949L405.137 186.546C415.119 186.938 425.011 188.588 434.58 191.459L440.791 193.322C446.808 195.127 452.672 197.408 458.329 200.141L474.431 207.924C481.74 211.457 488.668 215.731 495.105 220.679L504.931 228.232C510.912 232.829 516.442 237.987 521.444 243.635L523.471 245.924C528.267 251.339 532.557 257.18 536.289 263.377L552.653 290.548C553.194 291.447 553.634 292.403 553.965 293.399L558.768 307.859C559.458 309.937 557.911 312.081 555.722 312.081C555.56 312.081 555.398 312.093 555.238 312.118L551.637 312.667C538.217 314.715 524.534 311.351 513.592 303.316L504.216 296.431C503.542 295.936 502.936 295.353 502.414 294.699C497.646 288.718 488.124 290.551 485.919 297.875L481.739 311.757C476.752 328.318 453.136 327.829 448.838 311.077L446.952 303.724C445.636 298.594 442.258 294.235 437.619 291.68L426.823 285.734C420.648 282.333 413.713 280.549 406.664 280.549H380.405C377.257 280.549 374.492 282.639 373.633 285.667C371.46 293.324 360.244 292.059 359.831 284.111L359.611 279.876C359.16 271.197 346.951 269.734 344.462 278.061L338.577 297.753C338.396 298.358 338.165 298.946 337.886 299.511L331.888 311.685C325.444 324.762 307.644 326.814 298.394 315.546C289.229 304.381 271.623 306.273 265.04 319.13L263.691 321.764C260.612 327.777 254.941 332.042 248.31 333.331L244.138 334.142C239.748 334.996 235.218 334.788 230.925 333.536L227.712 332.599C224.777 331.742 222.14 330.081 220.101 327.802C215.853 323.055 214.747 316.274 217.267 310.423L228.666 283.946C230.566 279.534 232.976 275.36 235.847 271.509L255.848 244.678L261.32 238.708C266.361 233.209 271.909 228.198 277.892 223.74Z" fill="#5D5031" stroke="#5D5031" stroke-width="5.93221" stroke-linecap="round"/>
<path d="M341.863 356.738C343.584 354.063 344.237 350.907 344.237 347.531C344.237 333.93 334.193 321.797 320.508 321.797C306.823 321.797 296.779 333.93 296.779 347.531C296.779 349.783 297.023 351.916 297.645 353.873C300.68 363.421 310.86 366.814 318.826 367.028C326.948 367.246 336.936 364.396 341.863 356.738Z" fill="#B2A585"/>
<path d="M341.863 356.738C343.584 354.063 344.237 350.907 344.237 347.531C344.237 333.93 334.193 321.797 320.508 321.797C306.823 321.797 296.779 333.93 296.779 347.531C296.779 349.783 297.023 351.916 297.645 353.873C300.68 363.421 310.86 366.814 318.826 367.028C326.948 367.246 336.936 364.396 341.863 356.738Z" stroke="#B9AC8A" stroke-width="11.8644"/>
<path d="M341.863 356.738C343.584 354.063 344.237 350.907 344.237 347.531C344.237 333.93 334.193 321.797 320.508 321.797C306.823 321.797 296.779 333.93 296.779 347.531C296.779 349.783 297.023 351.916 297.645 353.873C300.68 363.421 310.86 366.814 318.826 367.028C326.948 367.246 336.936 364.396 341.863 356.738Z" stroke="black" stroke-opacity="0.2" stroke-width="11.8644"/>
<path d="M461.578 429.63C461.659 428.994 461.696 428.353 461.696 427.712C461.696 417.583 453.338 409.594 443.306 409.594C433.273 409.594 424.916 417.583 424.916 427.712C424.916 432.921 428.001 436.591 431.4 438.718C434.706 440.786 438.75 441.758 442.505 441.933C446.266 442.108 450.381 441.515 453.881 439.791C457.453 438.033 460.925 434.752 461.578 429.63Z" fill="#B2A585"/>
<path d="M461.578 429.63C461.659 428.994 461.696 428.353 461.696 427.712C461.696 417.583 453.338 409.594 443.306 409.594C433.273 409.594 424.916 417.583 424.916 427.712C424.916 432.921 428.001 436.591 431.4 438.718C434.706 440.786 438.75 441.758 442.505 441.933C446.266 442.108 450.381 441.515 453.881 439.791C457.453 438.033 460.925 434.752 461.578 429.63Z" stroke="#B9AC8A" stroke-width="11.8644"/>
<path d="M461.578 429.63C461.659 428.994 461.696 428.353 461.696 427.712C461.696 417.583 453.338 409.594 443.306 409.594C433.273 409.594 424.916 417.583 424.916 427.712C424.916 432.921 428.001 436.591 431.4 438.718C434.706 440.786 438.75 441.758 442.505 441.933C446.266 442.108 450.381 441.515 453.881 439.791C457.453 438.033 460.925 434.752 461.578 429.63Z" stroke="black" stroke-opacity="0.2" stroke-width="11.8644"/>
<path d="M454.459 278.952C454.541 278.315 454.577 277.674 454.577 277.033C454.577 266.904 446.219 258.915 436.187 258.915C426.155 258.915 417.797 266.904 417.797 277.033C417.797 282.242 420.882 285.913 424.282 288.04C427.588 290.108 431.632 291.079 435.387 291.254C439.147 291.43 443.262 290.836 446.762 289.113C450.334 287.354 453.807 284.074 454.459 278.952Z" fill="#B2A585"/>
<path d="M454.459 278.952C454.541 278.315 454.577 277.674 454.577 277.033C454.577 266.904 446.219 258.915 436.187 258.915C426.155 258.915 417.797 266.904 417.797 277.033C417.797 282.242 420.882 285.913 424.282 288.04C427.588 290.108 431.632 291.079 435.387 291.254C439.147 291.43 443.262 290.836 446.762 289.113C450.334 287.354 453.807 284.074 454.459 278.952Z" stroke="#B9AC8A" stroke-width="11.8644"/>
<path d="M454.459 278.952C454.541 278.315 454.577 277.674 454.577 277.033C454.577 266.904 446.219 258.915 436.187 258.915C426.155 258.915 417.797 266.904 417.797 277.033C417.797 282.242 420.882 285.913 424.282 288.04C427.588 290.108 431.632 291.079 435.387 291.254C439.147 291.43 443.262 290.836 446.762 289.113C450.334 287.354 453.807 284.074 454.459 278.952Z" stroke="black" stroke-opacity="0.2" stroke-width="11.8644"/>
<path d="M233.898 309.339L243.404 289.221C253.819 267.181 270.77 248.883 291.952 236.818L306.271 228.661M328.22 220.356L348.39 212.644" stroke="#FFFEF2" stroke-width="11.8644" stroke-linecap="round"/>
<path d="M401.78 64.339L404.422 53.3935C405.421 49.2556 407.159 45.3322 409.553 41.8122V41.8122C413.754 35.6335 419.806 30.9452 426.838 28.4207L439.153 24" stroke="#00C434" stroke-width="11.8644" stroke-linecap="round"/>
<path d="M422.642 165.346C432.173 164.28 442.118 162.741 449.56 157.455C457.63 151.724 461.695 142.497 461.695 128.915C461.695 94.1227 437.272 64.339 405.339 64.339C373.405 64.339 348.983 94.1227 348.983 128.915C348.983 141.837 351.99 150.863 358.875 156.661C365.334 162.099 374.158 163.652 382.597 164.79C395.812 166.572 409.326 166.837 422.642 165.346Z" fill="#FF5353"/>
<path d="M422.642 165.346C432.173 164.28 442.118 162.741 449.56 157.455C457.63 151.724 461.695 142.497 461.695 128.915C461.695 94.1227 437.272 64.339 405.339 64.339C373.405 64.339 348.983 94.1227 348.983 128.915C348.983 141.837 351.99 150.863 358.875 156.661C365.334 162.099 374.158 163.652 382.597 164.79C395.812 166.572 409.326 166.837 422.642 165.346Z" stroke="#FF6666" stroke-width="11.8644"/>
<path d="M422.642 165.346C432.173 164.28 442.118 162.741 449.56 157.455C457.63 151.724 461.695 142.497 461.695 128.915C461.695 94.1227 437.272 64.339 405.339 64.339C373.405 64.339 348.983 94.1227 348.983 128.915C348.983 141.837 351.99 150.863 358.875 156.661C365.334 162.099 374.158 163.652 382.597 164.79C395.812 166.572 409.326 166.837 422.642 165.346Z" stroke="black" stroke-opacity="0.2" stroke-width="11.8644"/>
<path d="M371.526 110.61L374.394 102.669C377.443 94.2258 384.294 87.7154 392.882 85.1018V85.1018" stroke="#FFFEF2" stroke-width="11.8644" stroke-linecap="round"/>
<path d="M298.024 257.729L282.543 273.819" stroke="#25C7E0" stroke-width="17.7966" stroke-linecap="round"/>
<path d="M536.442 403.661L550.679 409.074" stroke="#25C7E0" stroke-width="17.7966" stroke-linecap="round"/>
<path d="M401.187 379.34L412.208 370.815" stroke="#FBE51D" stroke-width="17.7966" stroke-linecap="round"/>
<path d="M384.633 298.068L395.255 320.611" stroke="#5FEE69" stroke-width="17.7966" stroke-linecap="round"/>
<path d="M486.611 358.576L474.746 342.633" stroke="#FF5A88" stroke-width="17.7966" stroke-linecap="round"/>
<path d="M257.628 397.063L263.56 382.306" stroke="#FF5A88" stroke-width="17.7966" stroke-linecap="round"/>
<path d="M343.052 403.661L369.153 415.006" stroke="#FF9C2A" stroke-width="17.7966" stroke-linecap="round"/>
</g>
<defs>
<filter id="filter0_d_14_59" x="364.407" y="474.254" width="173.222" height="312.311" filterUnits="userSpaceOnUse" color-interpolation-filters="sRGB">
<feFlood flood-opacity="0" result="BackgroundImageFix"/>
<feColorMatrix in="SourceAlpha" type="matrix" values="0 0 0 0 0 0 0 0 0 0 0 0 0 0 0 0 0 0 127 0" result="hardAlpha"/>
<feOffset dy="4.74577"/>
<feGaussianBlur stdDeviation="2.37288"/>
<feComposite in2="hardAlpha" operator="out"/>
<feColorMatrix type="matrix" values="0 0 0 0 0 0 0 0 0 0 0 0 0 0 0 0 0 0 0.25 0"/>
<feBlend mode="normal" in2="BackgroundImageFix" result="effect1_dropShadow_14_59"/>
<feBlend mode="normal" in="SourceGraphic" in2="effect1_dropShadow_14_59" result="shape"/>
</filter>
<clipPath id="clip0_14_59">
<rect width="800" height="800" fill="white"/>
</clipPath>
</defs>
</svg>
