<svg width="415" height="804" viewBox="0 0 415 804" fill="none" xmlns="http://www.w3.org/2000/svg">
<path d="M164.786 767.87C176.964 795.993 216.845 795.993 229.022 767.87L328.471 538.202C338.478 515.092 321.537 489.294 296.353 489.294H97.455C72.2715 489.294 55.33 515.092 65.3369 538.202L164.786 767.87Z" fill="#FDE09D" stroke="#7A725E" stroke-width="30"/>
<path d="M195 555V774H198.5L203.5 773L206.5 772L209 770L214 765.5L318 524L308 514.5L296 540L276 555L232.5 560L195 555Z" fill="#CFB984"/>
<g filter="url(#filter0_d_12_59)">
<path d="M183.5 766L187.578 769.059C188.852 770.014 190.263 770.772 191.762 771.308V771.308C194.845 772.409 198.193 772.53 201.347 771.654L201.789 771.531C204.233 770.852 206.498 769.644 208.424 767.994L208.937 767.554C211.281 765.544 213.138 763.027 214.366 760.194L219 749.5L265.5 641L316.5 522" stroke="#5D5031" stroke-opacity="0.5" stroke-width="5" stroke-linecap="round" shape-rendering="crispEdges"/>
</g>
<path d="M208.5 768L206.041 769.565C204.038 770.84 201.781 771.663 199.427 771.976V771.976C196.846 772.321 194.221 772.043 191.769 771.168L191.443 771.051C189.496 770.356 187.685 769.326 186.092 768.008L185.43 767.46C182.718 765.216 180.565 762.371 179.144 759.151L174.724 749.138L127.64 641.287L76 523" stroke="#5D5031" stroke-opacity="0.5" stroke-width="5" stroke-linecap="round"/>
<path d="M164.786 767.87C176.964 795.993 216.845 795.993 229.022 767.87L328.471 538.202C338.478 515.092 321.537 489.294 296.353 489.294H97.455C72.2715 489.294 55.33 515.092 65.3369 538.202L164.786 767.87Z" stroke="#7A725E" stroke-width="30"/>
<rect x="114" y="552" width="40" height="40" rx="5" fill="#C7AB66" stroke="#7A725E" stroke-width="10"/>
<rect x="176" y="552" width="40" height="40" rx="5" fill="#C7AB66" stroke="#7A725E" stroke-width="10"/>
<rect x="238" y="552" width="40" height="40" rx="5" fill="#C7AB66" stroke="#7A725E" stroke-width="10"/>
<rect x="149" y="637" width="40" height="40" rx="5" fill="#C7AB66" stroke="#7A725E" stroke-width="10"/>
<rect x="203" y="637" width="40" height="40" rx="5" fill="#C7AB66" stroke="#7A725E" stroke-width="10"/>
<path d="M208 672H233C235.761 672 238 669.761 238 667V642" stroke="#5D5031" stroke-opacity="0.4" stroke-width="10" stroke-linecap="round"/>
<path d="M154 672H179C181.761 672 184 669.761 184 667V642" stroke="#5D5031" stroke-opacity="0.4" stroke-width="10" stroke-linecap="round"/>
<path d="M119 587H144C146.761 587 149 584.761 149 582V557" stroke="#5D5031" stroke-opacity="0.4" stroke-width="10" stroke-linecap="round"/>
<path d="M182 587H207C209.761 587 212 584.761 212 582V557" stroke="#5D5031" stroke-opacity="0.4" stroke-width="10" stroke-linecap="round"/>
<path d="M243 587H268C270.761 587 273 584.761 273 582V557" stroke="#5D5031" stroke-opacity="0.4" stroke-width="10" stroke-linecap="round"/>
<rect x="114" y="552" width="40" height="40" rx="5" stroke="#7A725E" stroke-width="10"/>
<rect x="176" y="552" width="40" height="40" rx="5" stroke="#7A725E" stroke-width="10"/>
<rect x="238" y="552" width="40" height="40" rx="5" stroke="#7A725E" stroke-width="10"/>
<rect x="149" y="637" width="40" height="40" rx="5" stroke="#7A725E" stroke-width="10"/>
<rect x="203" y="637" width="40" height="40" rx="5" stroke="#7A725E" stroke-width="10"/>
<path d="M204.254 517.399C212.443 516.569 221.076 515.828 229.62 515.095C240.178 514.189 250.602 513.294 259.891 512.255C277.368 510.301 294.396 507.532 309.266 502.139C324.335 496.675 337.993 488.228 347.697 474.475C357.388 460.74 362 443.32 362 422C362 332.246 287.84 260 197 260C106.16 260 32 332.246 32 422C32 442.746 35.5895 459.688 43.6247 473.147C51.8347 486.9 63.7545 495.467 77.3903 501.007C90.6428 506.392 105.961 509.097 121.736 511.103C129.11 512.041 136.871 512.857 144.78 513.688C145.419 513.755 146.058 513.822 146.698 513.89C155.332 514.798 164.205 515.747 173.38 516.937C183.577 518.259 193.951 518.445 204.254 517.399Z" fill="#FFFACC"/>
<path d="M204.254 517.399C212.443 516.569 221.076 515.828 229.62 515.095C240.178 514.189 250.602 513.294 259.891 512.255C277.368 510.301 294.396 507.532 309.266 502.139C324.335 496.675 337.993 488.228 347.697 474.475C357.388 460.74 362 443.32 362 422C362 332.246 287.84 260 197 260C106.16 260 32 332.246 32 422C32 442.746 35.5895 459.688 43.6247 473.147C51.8347 486.9 63.7545 495.467 77.3903 501.007C90.6428 506.392 105.961 509.097 121.736 511.103C129.11 512.041 136.871 512.857 144.78 513.688C145.419 513.755 146.058 513.822 146.698 513.89C155.332 514.798 164.205 515.747 173.38 516.937C183.577 518.259 193.951 518.445 204.254 517.399Z" stroke="#79765F" stroke-width="30"/>
<path d="M204.254 517.399C212.443 516.569 221.076 515.828 229.62 515.095C240.178 514.189 250.602 513.294 259.891 512.255C277.368 510.301 294.396 507.532 309.266 502.139C324.335 496.675 337.993 488.228 347.697 474.475C357.388 460.74 362 443.32 362 422C362 332.246 287.84 260 197 260C106.16 260 32 332.246 32 422C32 442.746 35.5895 459.688 43.6247 473.147C51.8347 486.9 63.7545 495.467 77.3903 501.007C90.6428 506.392 105.961 509.097 121.736 511.103C129.11 512.041 136.871 512.857 144.78 513.688C145.419 513.755 146.058 513.822 146.698 513.89C155.332 514.798 164.205 515.747 173.38 516.937C183.577 518.259 193.951 518.445 204.254 517.399Z" stroke="black" stroke-opacity="0.2" stroke-width="30"/>
<path d="M77.5508 528.002C82.9744 527.178 90.93 525.498 97.3298 519.766C104.469 513.371 107 504.54 107 495.306C107 469.415 88.1785 445 61 445C33.8215 445 15 469.415 15 495.306C15 503.379 16.62 511.706 22.4838 518.213C28.2097 524.568 35.6796 526.538 40.6794 527.478C52.9036 529.776 65.4886 529.833 77.5508 528.002Z" fill="#FFFACC"/>
<path d="M77.5508 528.002C82.9744 527.178 90.93 525.498 97.3298 519.766C104.469 513.371 107 504.54 107 495.306C107 469.415 88.1785 445 61 445C33.8215 445 15 469.415 15 495.306C15 503.379 16.62 511.706 22.4838 518.213C28.2097 524.568 35.6796 526.538 40.6794 527.478C52.9036 529.776 65.4886 529.833 77.5508 528.002Z" stroke="#79765F" stroke-width="30"/>
<path d="M77.5508 528.002C82.9744 527.178 90.93 525.498 97.3298 519.766C104.469 513.371 107 504.54 107 495.306C107 469.415 88.1785 445 61 445C33.8215 445 15 469.415 15 495.306C15 503.379 16.62 511.706 22.4838 518.213C28.2097 524.568 35.6796 526.538 40.6794 527.478C52.9036 529.776 65.4886 529.833 77.5508 528.002Z" stroke="black" stroke-opacity="0.2" stroke-width="30"/>
<path d="M255.376 543.453C263.226 542.347 273.995 540.348 282.392 532.888C291.566 524.736 295 512.955 295 499.131C295 480.411 289.307 462.889 279.39 449.713C269.468 436.53 254.631 427 237 427C219.369 427 204.532 436.53 194.61 449.713C184.693 462.889 179 480.411 179 499.131C179 511.833 181.376 523.153 189.094 531.394C196.628 539.437 206.677 541.614 213.704 542.808C227.384 545.133 241.546 545.402 255.376 543.453Z" fill="#FFFACC"/>
<path d="M255.376 543.453C263.226 542.347 273.995 540.348 282.392 532.888C291.566 524.736 295 512.955 295 499.131C295 480.411 289.307 462.889 279.39 449.713C269.468 436.53 254.631 427 237 427C219.369 427 204.532 436.53 194.61 449.713C184.693 462.889 179 480.411 179 499.131C179 511.833 181.376 523.153 189.094 531.394C196.628 539.437 206.677 541.614 213.704 542.808C227.384 545.133 241.546 545.402 255.376 543.453Z" stroke="#79765F" stroke-width="30" stroke-linejoin="round"/>
<path d="M255.376 543.453C263.226 542.347 273.995 540.348 282.392 532.888C291.566 524.736 295 512.955 295 499.131C295 480.411 289.307 462.889 279.39 449.713C269.468 436.53 254.631 427 237 427C219.369 427 204.532 436.53 194.61 449.713C184.693 462.889 179 480.411 179 499.131C179 511.833 181.376 523.153 189.094 531.394C196.628 539.437 206.677 541.614 213.704 542.808C227.384 545.133 241.546 545.402 255.376 543.453Z" stroke="black" stroke-opacity="0.2" stroke-width="30" stroke-linejoin="round"/>
<path d="M358.205 507.868L358.289 507.861C365.28 507.301 375.052 506.518 382.917 502.612C387.365 500.403 391.72 496.995 394.814 491.814C397.863 486.708 399 481.031 399 475.38C399 447.067 373.806 427 346.5 427C319.194 427 294 447.067 294 475.38C294 480.494 294.802 485.741 297.192 490.6C299.698 495.692 303.467 499.375 307.78 501.884C314.956 506.058 323.955 506.928 330.002 507.513C330.195 507.531 330.385 507.55 330.572 507.568C339.668 508.453 348.938 508.611 358.205 507.868Z" fill="#FFFACC"/>
<path d="M358.205 507.868L358.289 507.861C365.28 507.301 375.052 506.518 382.917 502.612C387.365 500.403 391.72 496.995 394.814 491.814C397.863 486.708 399 481.031 399 475.38C399 447.067 373.806 427 346.5 427C319.194 427 294 447.067 294 475.38C294 480.494 294.802 485.741 297.192 490.6C299.698 495.692 303.467 499.375 307.78 501.884C314.956 506.058 323.955 506.928 330.002 507.513C330.195 507.531 330.385 507.55 330.572 507.568C339.668 508.453 348.938 508.611 358.205 507.868Z" stroke="#79765F" stroke-width="30" stroke-linejoin="round"/>
<path d="M358.205 507.868L358.289 507.861C365.28 507.301 375.052 506.518 382.917 502.612C387.365 500.403 391.72 496.995 394.814 491.814C397.863 486.708 399 481.031 399 475.38C399 447.067 373.806 427 346.5 427C319.194 427 294 447.067 294 475.38C294 480.494 294.802 485.741 297.192 490.6C299.698 495.692 303.467 499.375 307.78 501.884C314.956 506.058 323.955 506.928 330.002 507.513C330.195 507.531 330.385 507.55 330.572 507.568C339.668 508.453 348.938 508.611 358.205 507.868Z" stroke="black" stroke-opacity="0.2" stroke-width="30" stroke-linejoin="round"/>
<path d="M203.094 508.399C281.028 500.319 347 504.465 347 425.852C347 342.539 279.843 275 197 275C114.157 275 47 342.539 47 425.852C47 504.337 100.163 498.055 174.96 507.964C184.283 509.199 193.739 509.369 203.094 508.399Z" fill="#FFFACC"/>
<path d="M75.5 529.5L82.8652 525.251C86.5568 523.121 89.624 520.059 91.7594 516.37L92.4448 515.186C93.473 513.41 94.8164 511.837 96.4091 510.543V510.543C99.9806 507.641 104.582 506.323 109.148 506.894L111.332 507.166C113.104 507.388 114.843 507.824 116.51 508.465L121.101 510.231C125.024 511.74 129.089 512.848 133.234 513.539L137.241 514.207C142.405 515.067 147.631 515.5 152.866 515.5H158.069C160.019 515.5 161.966 515.667 163.888 515.998L181.341 519.007C186.44 519.886 190.3 524.1 190.73 529.257V529.257C191.178 534.636 195.35 538.957 200.711 539.593L221 542L225.827 542.965C230.93 543.986 236.121 544.5 241.325 544.5H244.194C248.053 544.5 251.901 544.078 255.668 543.241L266.054 540.932C273.064 539.375 279.171 535.102 283.037 529.051L286.437 523.729C287.767 521.647 288.301 519.154 287.939 516.71V516.71C287.134 511.281 290.75 506.183 296.14 505.146L306.923 503.073C310.579 502.369 314.355 502.618 317.888 503.796L330.5 508" stroke="#615E4C" stroke-width="30"/>
<path d="M322.981 602.718C322.994 602.334 323 601.942 323 601.541C323 595.177 321.566 589.168 318.995 584.574C316.513 580.142 312.296 576 306.5 576C300.704 576 296.487 580.142 294.005 584.574C291.434 589.168 290 595.177 290 601.541C290 606.329 292.322 610.056 295.526 612.472C298.609 614.796 302.474 615.919 306.123 616.081C309.764 616.242 313.715 615.468 316.95 613.367C320.348 611.16 322.824 607.532 322.981 602.718Z" fill="#FFFACC"/>
<path d="M322.981 602.718C322.994 602.334 323 601.942 323 601.541C323 595.177 321.566 589.168 318.995 584.574C316.513 580.142 312.296 576 306.5 576C300.704 576 296.487 580.142 294.005 584.574C291.434 589.168 290 595.177 290 601.541C290 606.329 292.322 610.056 295.526 612.472C298.609 614.796 302.474 615.919 306.123 616.081C309.764 616.242 313.715 615.468 316.95 613.367C320.348 611.16 322.824 607.532 322.981 602.718Z" stroke="#615E4C" stroke-width="10"/>
<path d="M322.981 602.718C322.994 602.334 323 601.942 323 601.541C323 595.177 321.566 589.168 318.995 584.574C316.513 580.142 312.296 576 306.5 576C300.704 576 296.487 580.142 294.005 584.574C291.434 589.168 290 595.177 290 601.541C290 606.329 292.322 610.056 295.526 612.472C298.609 614.796 302.474 615.919 306.123 616.081C309.764 616.242 313.715 615.468 316.95 613.367C320.348 611.16 322.824 607.532 322.981 602.718Z" stroke="black" stroke-opacity="0.1" stroke-width="10"/>
<path d="M62.9813 602.718C62.9938 602.334 63 601.942 63 601.541C63 595.177 61.5664 589.168 58.9946 584.574C56.5131 580.142 52.2964 576 46.5 576C40.7036 576 36.4869 580.142 34.0054 584.574C31.4336 589.168 30 595.177 30 601.541C30 606.329 32.3219 610.056 35.5262 612.472C38.6092 614.796 42.4741 615.919 46.1231 616.081C49.7641 616.242 53.7151 615.468 56.9502 613.367C60.3475 611.16 62.8241 607.532 62.9813 602.718Z" fill="#FFFACC"/>
<path d="M62.9813 602.718C62.9938 602.334 63 601.942 63 601.541C63 595.177 61.5664 589.168 58.9946 584.574C56.5131 580.142 52.2964 576 46.5 576C40.7036 576 36.4869 580.142 34.0054 584.574C31.4336 589.168 30 595.177 30 601.541C30 606.329 32.3219 610.056 35.5262 612.472C38.6092 614.796 42.4741 615.919 46.1231 616.081C49.7641 616.242 53.7151 615.468 56.9502 613.367C60.3475 611.16 62.8241 607.532 62.9813 602.718Z" stroke="#615E4C" stroke-width="10"/>
<path d="M62.9813 602.718C62.9938 602.334 63 601.942 63 601.541C63 595.177 61.5664 589.168 58.9946 584.574C56.5131 580.142 52.2964 576 46.5 576C40.7036 576 36.4869 580.142 34.0054 584.574C31.4336 589.168 30 595.177 30 601.541C30 606.329 32.3219 610.056 35.5262 612.472C38.6092 614.796 42.4741 615.919 46.1231 616.081C49.7641 616.242 53.7151 615.468 56.9502 613.367C60.3475 611.16 62.8241 607.532 62.9813 602.718Z" stroke="black" stroke-opacity="0.1" stroke-width="10"/>
<path d="M343.981 536.718C343.994 536.334 344 535.942 344 535.541C344 529.177 342.566 523.168 339.995 518.574C337.513 514.142 333.296 510 327.5 510C321.704 510 317.487 514.142 315.005 518.574C312.434 523.168 311 529.177 311 535.541C311 540.329 313.322 544.056 316.526 546.472C319.609 548.796 323.474 549.919 327.123 550.081C330.764 550.242 334.715 549.468 337.95 547.367C341.348 545.16 343.824 541.532 343.981 536.718Z" fill="#FFFACC"/>
<path d="M343.981 536.718C343.994 536.334 344 535.942 344 535.541C344 529.177 342.566 523.168 339.995 518.574C337.513 514.142 333.296 510 327.5 510C321.704 510 317.487 514.142 315.005 518.574C312.434 523.168 311 529.177 311 535.541C311 540.329 313.322 544.056 316.526 546.472C319.609 548.796 323.474 549.919 327.123 550.081C330.764 550.242 334.715 549.468 337.95 547.367C341.348 545.16 343.824 541.532 343.981 536.718Z" stroke="#615E4C" stroke-width="10"/>
<path d="M343.981 536.718C343.994 536.334 344 535.942 344 535.541C344 529.177 342.566 523.168 339.995 518.574C337.513 514.142 333.296 510 327.5 510C321.704 510 317.487 514.142 315.005 518.574C312.434 523.168 311 529.177 311 535.541C311 540.329 313.322 544.056 316.526 546.472C319.609 548.796 323.474 549.919 327.123 550.081C330.764 550.242 334.715 549.468 337.95 547.367C341.348 545.16 343.824 541.532 343.981 536.718Z" stroke="black" stroke-opacity="0.1" stroke-width="10"/>
<path d="M205.254 382.399C213.443 381.569 222.076 380.828 230.62 380.095C241.178 379.189 251.602 378.294 260.891 377.255C278.368 375.301 295.396 372.532 310.266 367.139C325.335 361.675 338.993 353.228 348.697 339.475C358.388 325.74 363 308.32 363 287C363 197.246 288.84 125 198 125C107.16 125 33 197.246 33 287C33 307.746 36.5895 324.688 44.6247 338.147C52.8347 351.9 64.7545 360.467 78.3903 366.007C91.6428 371.392 106.961 374.097 122.736 376.103C130.11 377.041 137.871 377.857 145.78 378.688C146.419 378.755 147.058 378.822 147.698 378.89C156.332 379.798 165.205 380.747 174.38 381.937C184.577 383.259 194.951 383.445 205.254 382.399Z" fill="#FFFACC"/>
<path d="M205.254 382.399C213.443 381.569 222.076 380.828 230.62 380.095C241.178 379.189 251.602 378.294 260.891 377.255C278.368 375.301 295.396 372.532 310.266 367.139C325.335 361.675 338.993 353.228 348.697 339.475C358.388 325.74 363 308.32 363 287C363 197.246 288.84 125 198 125C107.16 125 33 197.246 33 287C33 307.746 36.5895 324.688 44.6247 338.147C52.8347 351.9 64.7545 360.467 78.3903 366.007C91.6428 371.392 106.961 374.097 122.736 376.103C130.11 377.041 137.871 377.857 145.78 378.688C146.419 378.755 147.058 378.822 147.698 378.89C156.332 379.798 165.205 380.747 174.38 381.937C184.577 383.259 194.951 383.445 205.254 382.399Z" stroke="#79765F" stroke-width="30"/>
<path d="M205.254 382.399C213.443 381.569 222.076 380.828 230.62 380.095C241.178 379.189 251.602 378.294 260.891 377.255C278.368 375.301 295.396 372.532 310.266 367.139C325.335 361.675 338.993 353.228 348.697 339.475C358.388 325.74 363 308.32 363 287C363 197.246 288.84 125 198 125C107.16 125 33 197.246 33 287C33 307.746 36.5895 324.688 44.6247 338.147C52.8347 351.9 64.7545 360.467 78.3903 366.007C91.6428 371.392 106.961 374.097 122.736 376.103C130.11 377.041 137.871 377.857 145.78 378.688C146.419 378.755 147.058 378.822 147.698 378.89C156.332 379.798 165.205 380.747 174.38 381.937C184.577 383.259 194.951 383.445 205.254 382.399Z" stroke="black" stroke-opacity="0.2" stroke-width="30"/>
<path d="M78.5508 393.002C83.9744 392.178 91.93 390.498 98.3298 384.766C105.469 378.371 108 369.54 108 360.306C108 334.415 89.1785 310 62 310C34.8215 310 16 334.415 16 360.306C16 368.379 17.62 376.706 23.4838 383.213C29.2097 389.568 36.6796 391.538 41.6794 392.478C53.9036 394.776 66.4886 394.833 78.5508 393.002Z" fill="#FFFACC"/>
<path d="M78.5508 393.002C83.9744 392.178 91.93 390.498 98.3298 384.766C105.469 378.371 108 369.54 108 360.306C108 334.415 89.1785 310 62 310C34.8215 310 16 334.415 16 360.306C16 368.379 17.62 376.706 23.4838 383.213C29.2097 389.568 36.6796 391.538 41.6794 392.478C53.9036 394.776 66.4886 394.833 78.5508 393.002Z" stroke="#79765F" stroke-width="30"/>
<path d="M78.5508 393.002C83.9744 392.178 91.93 390.498 98.3298 384.766C105.469 378.371 108 369.54 108 360.306C108 334.415 89.1785 310 62 310C34.8215 310 16 334.415 16 360.306C16 368.379 17.62 376.706 23.4838 383.213C29.2097 389.568 36.6796 391.538 41.6794 392.478C53.9036 394.776 66.4886 394.833 78.5508 393.002Z" stroke="black" stroke-opacity="0.2" stroke-width="30"/>
<path d="M256.376 408.453C264.226 407.347 274.995 405.348 283.392 397.888C292.566 389.736 296 377.955 296 364.131C296 345.411 290.307 327.889 280.39 314.713C270.468 301.53 255.631 292 238 292C220.369 292 205.532 301.53 195.61 314.713C185.693 327.889 180 345.411 180 364.131C180 376.833 182.376 388.153 190.094 396.394C197.628 404.437 207.677 406.614 214.704 407.808C228.384 410.133 242.546 410.402 256.376 408.453Z" fill="#FFFACC"/>
<path d="M256.376 408.453C264.226 407.347 274.995 405.348 283.392 397.888C292.566 389.736 296 377.955 296 364.131C296 345.411 290.307 327.889 280.39 314.713C270.468 301.53 255.631 292 238 292C220.369 292 205.532 301.53 195.61 314.713C185.693 327.889 180 345.411 180 364.131C180 376.833 182.376 388.153 190.094 396.394C197.628 404.437 207.677 406.614 214.704 407.808C228.384 410.133 242.546 410.402 256.376 408.453Z" stroke="#79765F" stroke-width="30" stroke-linejoin="round"/>
<path d="M256.376 408.453C264.226 407.347 274.995 405.348 283.392 397.888C292.566 389.736 296 377.955 296 364.131C296 345.411 290.307 327.889 280.39 314.713C270.468 301.53 255.631 292 238 292C220.369 292 205.532 301.53 195.61 314.713C185.693 327.889 180 345.411 180 364.131C180 376.833 182.376 388.153 190.094 396.394C197.628 404.437 207.677 406.614 214.704 407.808C228.384 410.133 242.546 410.402 256.376 408.453Z" stroke="black" stroke-opacity="0.2" stroke-width="30" stroke-linejoin="round"/>
<path d="M359.205 372.868L359.289 372.861C366.28 372.301 376.052 371.518 383.917 367.612C388.365 365.403 392.72 361.995 395.814 356.814C398.863 351.708 400 346.031 400 340.38C400 312.067 374.806 292 347.5 292C320.194 292 295 312.067 295 340.38C295 345.494 295.802 350.741 298.192 355.6C300.698 360.692 304.467 364.375 308.78 366.884C315.956 371.058 324.955 371.928 331.002 372.513C331.195 372.531 331.385 372.55 331.572 372.568C340.668 373.453 349.938 373.611 359.205 372.868Z" fill="#FFFACC"/>
<path d="M359.205 372.868L359.289 372.861C366.28 372.301 376.052 371.518 383.917 367.612C388.365 365.403 392.72 361.995 395.814 356.814C398.863 351.708 400 346.031 400 340.38C400 312.067 374.806 292 347.5 292C320.194 292 295 312.067 295 340.38C295 345.494 295.802 350.741 298.192 355.6C300.698 360.692 304.467 364.375 308.78 366.884C315.956 371.058 324.955 371.928 331.002 372.513C331.195 372.531 331.385 372.55 331.572 372.568C340.668 373.453 349.938 373.611 359.205 372.868Z" stroke="#79765F" stroke-width="30" stroke-linejoin="round"/>
<path d="M359.205 372.868L359.289 372.861C366.28 372.301 376.052 371.518 383.917 367.612C388.365 365.403 392.72 361.995 395.814 356.814C398.863 351.708 400 346.031 400 340.38C400 312.067 374.806 292 347.5 292C320.194 292 295 312.067 295 340.38C295 345.494 295.802 350.741 298.192 355.6C300.698 360.692 304.467 364.375 308.78 366.884C315.956 371.058 324.955 371.928 331.002 372.513C331.195 372.531 331.385 372.55 331.572 372.568C340.668 373.453 349.938 373.611 359.205 372.868Z" stroke="black" stroke-opacity="0.2" stroke-width="30" stroke-linejoin="round"/>
<path d="M204.094 373.399C282.028 365.319 348 369.465 348 290.852C348 207.539 280.843 140 198 140C115.157 140 48 207.539 48 290.852C48 369.337 101.163 363.055 175.96 372.964C185.283 374.199 194.739 374.369 204.094 373.399Z" fill="#FFFACC"/>
<path d="M76.5 394.5L83.8652 390.251C87.5568 388.121 90.624 385.059 92.7594 381.37L93.4448 380.186C94.473 378.41 95.8164 376.837 97.4091 375.543V375.543C100.981 372.641 105.582 371.323 110.148 371.894L112.332 372.166C114.104 372.388 115.843 372.824 117.51 373.465L122.101 375.231C126.024 376.74 130.089 377.848 134.234 378.539L138.241 379.207C143.405 380.067 148.631 380.5 153.866 380.5H159.069C161.019 380.5 162.966 380.667 164.888 380.998L182.341 384.007C187.44 384.886 191.3 389.1 191.73 394.257V394.257C192.178 399.636 196.35 403.957 201.711 404.593L222 407L226.827 407.965C231.93 408.986 237.121 409.5 242.325 409.5H245.194C249.053 409.5 252.901 409.078 256.668 408.241L267.054 405.932C274.064 404.375 280.171 400.102 284.037 394.051L287.437 388.729C288.767 386.647 289.301 384.154 288.939 381.71V381.71C288.134 376.281 291.75 371.183 297.14 370.146L307.923 368.073C311.579 367.369 315.355 367.618 318.888 368.796L331.5 373" stroke="#615E4C" stroke-width="30"/>
<path d="M104.58 173.352L111.478 168.212C118.792 162.763 126.816 158.34 135.329 155.066L148.5 150L163.522 146.081C168.832 144.696 174.246 143.75 179.711 143.253L199 141.5L211.829 142.003C220.243 142.333 228.581 143.724 236.646 146.144L241.88 147.714C246.952 149.236 251.895 151.158 256.662 153.462L270.234 160.021C276.395 162.999 282.234 166.602 287.66 170.772L295.941 177.138C300.983 181.013 305.643 185.36 309.86 190.121L311.568 192.05C315.61 196.614 319.226 201.537 322.372 206.76L336.164 229.662C336.621 230.419 336.992 231.225 337.27 232.065L341.318 244.253C341.9 246.004 340.596 247.811 338.751 247.811C338.614 247.811 338.478 247.821 338.343 247.842L335.308 248.305C323.997 250.031 312.464 247.196 303.241 240.423L295.339 234.62C294.771 234.202 294.26 233.711 293.82 233.16C289.802 228.119 281.776 229.664 279.917 235.837L276.394 247.538C272.191 261.496 252.286 261.085 248.663 246.965L247.074 240.767C245.964 236.443 243.118 232.77 239.207 230.616L230.107 225.604C224.903 222.737 219.058 221.234 213.116 221.234H190.984C188.331 221.234 186 222.995 185.276 225.548C183.445 232.001 173.991 230.935 173.643 224.236L173.458 220.667C173.078 213.351 162.787 212.118 160.689 219.137L155.729 235.735C155.577 236.244 155.382 236.74 155.147 237.216L150.091 247.477C144.66 258.499 129.657 260.228 121.861 250.731C114.136 241.321 99.2966 242.916 93.7475 253.753L92.6107 255.972C90.0156 261.04 85.2359 264.635 79.647 265.721L76.1305 266.405C72.4304 267.125 68.6121 266.949 64.9935 265.894L62.2858 265.104C59.8115 264.383 57.5891 262.982 55.8705 261.061C52.2906 257.06 51.3585 251.345 53.4816 246.414L63.0901 224.097C64.6912 220.379 66.7224 216.86 69.1422 213.614L86 191L90.6127 185.968C94.8614 181.333 99.5378 177.109 104.58 173.352Z" fill="#5D5031" stroke="#5D5031" stroke-width="5" stroke-linecap="round"/>
<path d="M158.499 285.45C159.949 283.196 160.5 280.535 160.5 277.69C160.5 266.226 152.034 256 140.5 256C128.966 256 120.5 266.226 120.5 277.69C120.5 279.588 120.705 281.386 121.23 283.036C123.788 291.083 132.368 293.943 139.082 294.123C145.928 294.307 154.347 291.905 158.499 285.45Z" fill="#B2A585"/>
<path d="M158.499 285.45C159.949 283.196 160.5 280.535 160.5 277.69C160.5 266.226 152.034 256 140.5 256C128.966 256 120.5 266.226 120.5 277.69C120.5 279.588 120.705 281.386 121.23 283.036C123.788 291.083 132.368 293.943 139.082 294.123C145.928 294.307 154.347 291.905 158.499 285.45Z" stroke="#B9AC8A" stroke-width="10"/>
<path d="M158.499 285.45C159.949 283.196 160.5 280.535 160.5 277.69C160.5 266.226 152.034 256 140.5 256C128.966 256 120.5 266.226 120.5 277.69C120.5 279.588 120.705 281.386 121.23 283.036C123.788 291.083 132.368 293.943 139.082 294.123C145.928 294.307 154.347 291.905 158.499 285.45Z" stroke="black" stroke-opacity="0.2" stroke-width="10"/>
<path d="M259.401 346.888C259.469 346.351 259.5 345.811 259.5 345.271C259.5 336.733 252.456 330 244 330C235.544 330 228.5 336.733 228.5 345.271C228.5 349.661 231.1 352.755 233.965 354.548C236.752 356.291 240.161 357.11 243.325 357.257C246.495 357.405 249.963 356.905 252.913 355.452C255.924 353.97 258.851 351.205 259.401 346.888Z" fill="#B2A585"/>
<path d="M259.401 346.888C259.469 346.351 259.5 345.811 259.5 345.271C259.5 336.733 252.456 330 244 330C235.544 330 228.5 336.733 228.5 345.271C228.5 349.661 231.1 352.755 233.965 354.548C236.752 356.291 240.161 357.11 243.325 357.257C246.495 357.405 249.963 356.905 252.913 355.452C255.924 353.97 258.851 351.205 259.401 346.888Z" stroke="#B9AC8A" stroke-width="10"/>
<path d="M259.401 346.888C259.469 346.351 259.5 345.811 259.5 345.271C259.5 336.733 252.456 330 244 330C235.544 330 228.5 336.733 228.5 345.271C228.5 349.661 231.1 352.755 233.965 354.548C236.752 356.291 240.161 357.11 243.325 357.257C246.495 357.405 249.963 356.905 252.913 355.452C255.924 353.97 258.851 351.205 259.401 346.888Z" stroke="black" stroke-opacity="0.2" stroke-width="10"/>
<path d="M253.401 219.888C253.469 219.351 253.5 218.811 253.5 218.271C253.5 209.733 246.456 203 238 203C229.544 203 222.5 209.733 222.5 218.271C222.5 222.661 225.1 225.755 227.965 227.548C230.752 229.291 234.161 230.11 237.325 230.257C240.495 230.405 243.963 229.905 246.913 228.452C249.924 226.97 252.851 224.205 253.401 219.888Z" fill="#B2A585"/>
<path d="M253.401 219.888C253.469 219.351 253.5 218.811 253.5 218.271C253.5 209.733 246.456 203 238 203C229.544 203 222.5 209.733 222.5 218.271C222.5 222.661 225.1 225.755 227.965 227.548C230.752 229.291 234.161 230.11 237.325 230.257C240.495 230.405 243.963 229.905 246.913 228.452C249.924 226.97 252.851 224.205 253.401 219.888Z" stroke="#B9AC8A" stroke-width="10"/>
<path d="M253.401 219.888C253.469 219.351 253.5 218.811 253.5 218.271C253.5 209.733 246.456 203 238 203C229.544 203 222.5 209.733 222.5 218.271C222.5 222.661 225.1 225.755 227.965 227.548C230.752 229.291 234.161 230.11 237.325 230.257C240.495 230.405 243.963 229.905 246.913 228.452C249.924 226.97 252.851 224.205 253.401 219.888Z" stroke="black" stroke-opacity="0.2" stroke-width="10"/>
<path d="M67.5 245.5L75.5125 228.543C84.2907 209.966 98.578 194.544 116.431 184.375L128.5 177.5M147 170.5L164 164" stroke="#FFFEF2" stroke-width="10" stroke-linecap="round"/>
<path d="M154.999 454.45C156.449 452.196 157 449.535 157 446.69C157 435.226 148.534 425 137 425C125.466 425 117 435.226 117 446.69C117 448.588 117.205 450.386 117.73 452.036C120.288 460.083 128.868 462.943 135.582 463.123C142.428 463.307 150.847 460.905 154.999 454.45Z" fill="#B2A585"/>
<path d="M154.999 454.45C156.449 452.196 157 449.535 157 446.69C157 435.226 148.534 425 137 425C125.466 425 117 435.226 117 446.69C117 448.588 117.205 450.386 117.73 452.036C120.288 460.083 128.868 462.943 135.582 463.123C142.428 463.307 150.847 460.905 154.999 454.45Z" stroke="#B9AC8A" stroke-width="10"/>
<path d="M154.999 454.45C156.449 452.196 157 449.535 157 446.69C157 435.226 148.534 425 137 425C125.466 425 117 435.226 117 446.69C117 448.588 117.205 450.386 117.73 452.036C120.288 460.083 128.868 462.943 135.582 463.123C142.428 463.307 150.847 460.905 154.999 454.45Z" stroke="black" stroke-opacity="0.2" stroke-width="10"/>
<path d="M310.901 463.888C310.969 463.351 311 462.811 311 462.271C311 453.733 303.956 447 295.5 447C287.044 447 280 453.733 280 462.271C280 466.661 282.6 469.755 285.465 471.548C288.252 473.291 291.661 474.11 294.825 474.257C297.995 474.405 301.463 473.905 304.413 472.452C307.424 470.97 310.351 468.205 310.901 463.888Z" fill="#B2A585"/>
<path d="M310.901 463.888C310.969 463.351 311 462.811 311 462.271C311 453.733 303.956 447 295.5 447C287.044 447 280 453.733 280 462.271C280 466.661 282.6 469.755 285.465 471.548C288.252 473.291 291.661 474.11 294.825 474.257C297.995 474.405 301.463 473.905 304.413 472.452C307.424 470.97 310.351 468.205 310.901 463.888Z" stroke="#B9AC8A" stroke-width="10"/>
<path d="M310.901 463.888C310.969 463.351 311 462.811 311 462.271C311 453.733 303.956 447 295.5 447C287.044 447 280 453.733 280 462.271C280 466.661 282.6 469.755 285.465 471.548C288.252 473.291 291.661 474.11 294.825 474.257C297.995 474.405 301.463 473.905 304.413 472.452C307.424 470.97 310.351 468.205 310.901 463.888Z" stroke="black" stroke-opacity="0.2" stroke-width="10"/>
<path d="M209 39L211.227 29.7745C212.069 26.2869 213.534 22.98 215.551 20.0131V20.0131C219.092 14.8053 224.193 10.8538 230.12 8.72601L240.5 5" stroke="#00C434" stroke-width="10" stroke-linecap="round"/>
<path d="M226.585 124.135C234.617 123.236 243 121.939 249.272 117.483C256.074 112.653 259.5 104.876 259.5 93.4279C259.5 64.1034 238.915 39 212 39C185.085 39 164.5 64.1034 164.5 93.4279C164.5 104.319 167.034 111.928 172.838 116.814C178.282 121.398 185.719 122.706 192.832 123.666C203.97 125.168 215.361 125.391 226.585 124.135Z" fill="#FF5353"/>
<path d="M226.585 124.135C234.617 123.236 243 121.939 249.272 117.483C256.074 112.653 259.5 104.876 259.5 93.4279C259.5 64.1034 238.915 39 212 39C185.085 39 164.5 64.1034 164.5 93.4279C164.5 104.319 167.034 111.928 172.838 116.814C178.282 121.398 185.719 122.706 192.832 123.666C203.97 125.168 215.361 125.391 226.585 124.135Z" stroke="#FF6666" stroke-width="10"/>
<path d="M226.585 124.135C234.617 123.236 243 121.939 249.272 117.483C256.074 112.653 259.5 104.876 259.5 93.4279C259.5 64.1034 238.915 39 212 39C185.085 39 164.5 64.1034 164.5 93.4279C164.5 104.319 167.034 111.928 172.838 116.814C178.282 121.398 185.719 122.706 192.832 123.666C203.97 125.168 215.361 125.391 226.585 124.135Z" stroke="black" stroke-opacity="0.2" stroke-width="10"/>
<path d="M183.5 78L185.917 71.3062C188.487 64.1902 194.262 58.7029 201.5 56.5V56.5" stroke="#FFFEF2" stroke-width="10" stroke-linecap="round"/>
<path d="M121.548 202L108.5 215.562" stroke="#25C7E0" stroke-width="15" stroke-linecap="round"/>
<path d="M322.5 325L334.5 329.562" stroke="#25C7E0" stroke-width="15" stroke-linecap="round"/>
<path d="M238 494L250 498.562" stroke="#25C7E0" stroke-width="15" stroke-linecap="round"/>
<path d="M208.5 304.5L217.789 297.315" stroke="#FBE51D" stroke-width="15" stroke-linecap="round"/>
<path d="M194.548 236L203.5 255" stroke="#5FEE69" stroke-width="15" stroke-linecap="round"/>
<path d="M280.5 287L270.5 273.562" stroke="#FF5A88" stroke-width="15" stroke-linecap="round"/>
<path d="M87.5 319.438L92.5 307" stroke="#FF5A88" stroke-width="15" stroke-linecap="round"/>
<path d="M77 445.438L88 436" stroke="#FF9C2A" stroke-width="15" stroke-linecap="round"/>
<path d="M159.5 325L181.5 334.562" stroke="#FF9C2A" stroke-width="15" stroke-linecap="round"/>
<path d="M312 420.438L324 409" stroke="#FF5A88" stroke-width="15" stroke-linecap="round"/>
<path d="M206.048 440L200 450" stroke="#5FEE69" stroke-width="15" stroke-linecap="round"/>
<defs>
<filter id="filter0_d_12_59" x="177" y="519.499" width="146" height="263.233" filterUnits="userSpaceOnUse" color-interpolation-filters="sRGB">
<feFlood flood-opacity="0" result="BackgroundImageFix"/>
<feColorMatrix in="SourceAlpha" type="matrix" values="0 0 0 0 0 0 0 0 0 0 0 0 0 0 0 0 0 0 127 0" result="hardAlpha"/>
<feOffset dy="4"/>
<feGaussianBlur stdDeviation="2"/>
<feComposite in2="hardAlpha" operator="out"/>
<feColorMatrix type="matrix" values="0 0 0 0 0 0 0 0 0 0 0 0 0 0 0 0 0 0 0.25 0"/>
<feBlend mode="normal" in2="BackgroundImageFix" result="effect1_dropShadow_12_59"/>
<feBlend mode="normal" in="SourceGraphic" in2="effect1_dropShadow_12_59" result="shape"/>
</filter>
</defs>
</svg>
