<svg width="580" height="272" viewBox="0 0 580 272" fill="none" xmlns="http://www.w3.org/2000/svg">
<mask id="path-1-outside-1_3_257" maskUnits="userSpaceOnUse" x="0" y="0.5" width="581" height="271" fill="black">
<rect fill="white" y="0.5" width="581" height="271"/>
<path d="M33.7197 183.154L32.1261 186.872C31.3781 188.618 30.8422 190.447 30.53 192.32C30.1783 194.43 30.1135 196.579 30.3375 198.706L30.4733 199.997C30.8225 203.313 31.6681 206.559 32.9818 209.624L33.274 210.306C34.75 213.75 36.7246 216.958 39.1346 219.827L39.6611 220.454C43.8347 225.422 49.0618 229.4 54.9632 232.097L57.9377 233.457C61.6321 235.146 65.5186 236.378 69.5112 237.127L74.9326 238.144C77.971 238.713 81.0557 239 84.147 239H95.9388C99.3043 239 102.661 238.66 105.959 237.986L116.549 235.82C120.831 234.944 124.98 233.51 128.89 231.555L132.211 229.895C136.707 227.646 140.812 224.688 144.368 221.132L146.9 218.6C148.293 217.207 149.485 215.626 150.442 213.904C154.181 207.174 161.275 203 168.974 203H185.958C194.845 203 202.637 208.934 205 217.5L209.933 231.919C210.947 234.883 212.945 237.412 215.594 239.086L215.766 239.194C219.084 241.29 223.159 241.813 226.899 240.623C230.172 239.582 232.915 237.314 234.554 234.295L241.5 221.5L247.657 209.329C253.97 196.849 271.828 196.95 278 209.5L283.982 223.06C284.992 225.349 286.208 227.541 287.614 229.609L292.177 236.319C293.37 238.074 295.015 239.474 296.938 240.371C299.852 241.731 303.195 241.841 306.192 240.675L306.421 240.586C309.06 239.56 311.267 237.658 312.672 235.2L313.529 233.698C314.174 232.57 314.69 231.372 315.065 230.127L316.38 225.774C320.014 213.736 331.103 205.5 343.678 205.5H350.907C361.916 205.5 371.025 214.067 371.697 225.056L371.812 226.922C371.935 228.946 372.532 230.912 373.554 232.663L373.614 232.767C374.845 234.877 376.663 236.582 378.847 237.674L379.531 238.016C380.826 238.663 382.254 239 383.701 239C386.713 239 389.539 237.546 391.289 235.095L391.659 234.577C392.86 232.896 393.542 230.9 393.619 228.836L393.935 220.475C394.257 211.944 400.93 205.013 409.443 204.368C419.187 203.63 427.5 211.337 427.5 221.108V225.633C427.5 227.525 427.884 229.396 428.629 231.135L428.93 231.838C430.814 236.233 435.004 239.2 439.775 239.518L440.444 239.563C444.509 239.834 448.415 237.942 450.722 234.586C451.886 232.893 452.577 230.919 452.724 228.87L452.839 227.254C453.493 218.096 461.114 211 470.295 211H510.028C518.573 211 525.5 218.043 525.5 226.589C525.5 227.848 525.664 229.116 525.989 230.333L526.497 232.24C527.14 234.652 528.697 236.718 530.837 238.002C531.934 238.661 533.153 239.093 534.42 239.274L536.823 239.618C538.566 239.867 540.344 239.578 541.919 238.791C543.594 237.953 544.953 236.594 545.791 234.919L546.597 233.305C547.521 231.458 548.027 229.43 548.078 227.365L550 150.5L549 66.5L547.36 51.7432C547.127 49.6438 546.186 47.6863 544.693 46.1926C543.269 44.7694 541.423 43.8461 539.43 43.5615L538.237 43.391C536.45 43.1358 534.628 43.4023 532.99 44.1585C530.462 45.3251 528.585 47.5562 527.868 50.246L527 53.5L525.896 59.0199C525.3 62.0004 524.977 65.0291 524.931 68.0683L524.147 119.816C524.067 125.074 519.585 129.185 514.339 128.81L510.218 128.516C506.508 128.251 503.992 124.626 505.042 121.058C505.342 120.039 505.357 118.957 505.087 117.93L504.64 116.232C503.615 112.335 500.721 109.202 496.917 107.871L495.816 107.485C493.958 106.835 491.987 106.575 490.025 106.72L486.918 106.951C482.05 107.311 477.349 108.883 473.243 111.522L465.5 116.5L464.363 117.44C459.824 121.189 452.932 118.522 452.099 112.694C451.727 110.09 450.024 107.868 447.606 106.831L446.373 106.303C445.137 105.773 443.807 105.5 442.463 105.5H439.035C437.382 105.5 435.766 105.989 434.391 106.906C432.841 107.939 431.68 109.459 431.091 111.226L428.736 118.291C427.917 120.748 427.5 123.32 427.5 125.909V133.66C427.5 142.684 420.184 150 411.16 150C402.61 150 395.506 143.408 394.866 134.882L394.5 130V122.649C394.5 118.605 393.558 114.617 391.75 111L390.978 109.455C389.677 106.854 389 103.986 389 101.078V96.5827C389 92.242 391.452 88.2738 395.335 86.3325C397.083 85.4587 398.578 84.1526 399.678 82.5382L401.512 79.8496C404.11 76.0385 405.5 71.5328 405.5 66.9201C405.5 64.0002 404.943 61.1071 403.858 58.3961L401.119 51.5478C400.713 50.5323 400.057 49.6355 399.213 48.9403L395.83 46.1538C393.972 44.6243 394.207 41.7125 396.285 40.5003C397.347 39.8809 398 38.7441 398 37.5148V36.6829C398 35.5922 397.636 34.5326 396.967 33.6716L396.683 33.3066C395.329 31.5664 393.159 30.6676 390.972 30.941L389.431 31.1336C387.527 31.3716 385.749 32.213 384.358 33.5346L378.603 39.0019C377.22 40.3155 375.548 41.2856 373.721 41.8336C372.254 42.2739 370.882 42.9876 369.68 43.937L366.689 46.298C363.601 48.736 361.088 51.8245 359.328 55.3437L359.211 55.5783C357.428 59.1438 356.5 63.0753 356.5 67.0616V69.0419C356.5 73.2369 357.842 77.3219 360.331 80.6991L361.522 82.3153C362.817 84.0732 364.558 85.4535 366.565 86.3137C371.076 88.2467 374 92.6817 374 97.5888V106.35C374 108.771 373.656 111.18 372.978 113.504L371.147 119.78C370.718 121.253 370.5 122.779 370.5 124.312V126.795C370.5 134.364 364.364 140.5 356.795 140.5C348.286 140.5 341.834 132.829 343.292 124.446L344.12 119.686C344.369 118.254 344.231 116.783 343.721 115.423C343.248 114.161 342.469 113.035 341.454 112.148L340.733 111.517C339.591 110.517 338.248 109.774 336.794 109.338C334.965 108.79 333.022 108.744 331.17 109.207L329.646 109.588C328.556 109.861 327.514 110.304 326.561 110.899C324.886 111.946 323.533 113.435 322.649 115.201L322.528 115.444C322.177 116.146 321.897 116.882 321.694 117.64L300.588 196.174C300.532 196.381 300.39 196.555 300.198 196.651C299.817 196.842 299.353 196.678 299.177 196.29L277 147.5L272.423 139.872C271.489 138.315 270.185 137.011 268.628 136.077C266.908 135.045 264.941 134.5 262.935 134.5H262.264C260.45 134.5 258.666 134.955 257.073 135.824C255.075 136.913 253.471 138.605 252.488 140.657L250.961 143.845C242.221 162.091 215.497 159.608 210.269 140.064L204.897 119.984C204.633 118.997 204.283 118.034 203.85 117.108L202.95 115.179C201.695 112.489 199.485 110.362 196.75 109.21L196.105 108.939C193.192 107.712 189.88 107.864 187.091 109.351C185.085 110.421 183.48 112.114 182.518 114.175L182.215 114.826C181.099 117.215 180.759 119.894 181.24 122.486L181.657 124.727C184.213 138.494 172.039 150.48 158.314 147.71L132.5 142.5L114 136L95.622 131.023C91.8866 130.011 88.2813 128.569 84.8786 126.726L81.3012 124.788C79.1119 123.602 77.1058 122.106 75.3453 120.345L74.4302 119.43C71.8547 116.855 69.9959 113.652 69.0376 110.138L68.9902 109.964C68.0154 106.39 68.0381 102.617 69.056 99.0541C70.003 95.7394 71.7792 92.7208 74.2168 90.2832L74.4509 90.0491C77.1043 87.3957 80.4042 85.4807 84.0245 84.4933L86.5692 83.7993C88.5186 83.2677 90.5145 82.9249 92.5295 82.7756L98.1639 82.3582C101.38 82.12 104.612 82.1935 107.815 82.5778L111.68 83.0416C114.223 83.3468 116.739 83.8468 119.205 84.5373L125.536 86.3101C127.174 86.7687 128.759 87.3995 130.264 88.1918L134.18 90.2527C136.333 91.3859 138.053 93.1972 139.072 95.4063L139.119 95.5076C140.019 97.4573 140.311 99.6327 139.958 101.751C139.658 103.554 138.901 105.249 137.759 106.676L136.87 107.787C135.961 108.924 135.209 110.178 134.636 111.516L134.089 112.792C133.053 115.209 132.759 117.88 133.243 120.465L133.378 121.181C133.783 123.343 134.832 125.332 136.387 126.887C138.082 128.582 140.287 129.672 142.662 129.988L143.173 130.056C145.352 130.347 147.569 130.055 149.599 129.209L149.963 129.057C151.638 128.359 153.16 127.34 154.444 126.056L156.062 124.438C158.657 121.843 160.66 118.718 161.934 115.277L162.748 113.08C164.238 109.059 165 104.805 165 100.516V98.0865C165 94.72 164.428 91.3781 163.307 88.2035C162.439 85.7452 161.252 83.4119 159.775 81.2636L159.306 80.5813C157.444 77.8732 155.22 75.4332 152.695 73.3293L151.404 72.2532C148.808 70.0904 145.993 68.2067 143.003 66.6332L142.126 66.1717C139.381 64.727 136.508 63.5409 133.543 62.6287L125 60L113.567 57.8564C110.529 57.2867 107.444 57 104.353 57H100.255C97.4233 57 94.5971 57.2405 91.8065 57.7189L83.8705 59.0793C80.3007 59.6913 76.808 60.6893 73.4539 62.0558L71.2014 62.9735C67.0877 64.6495 63.2306 66.8969 59.7441 69.6494C56.9239 71.8759 54.3667 74.4166 52.122 77.2224L51.0978 78.5027C48.7107 81.4866 46.7479 84.7863 45.2651 88.308C44.0919 91.0943 43.2272 94.0006 42.6863 96.9751L42.2977 99.1127C41.767 102.032 41.5 104.992 41.5 107.959V108.808C41.5 112.586 41.9976 116.348 42.9798 119.997L43.2658 121.059C44.4127 125.318 46.3132 129.338 48.8773 132.928C51.2755 136.286 54.2192 139.218 57.5861 141.603L59.1294 142.696C62.6932 145.22 66.5839 147.248 70.6944 148.724L84 153.5L107.19 160.297C111.041 161.426 114.699 163.132 118.038 165.358L121.361 167.574C124.732 169.822 127.483 172.883 129.357 176.476C131.412 180.415 132.338 184.846 132.033 189.278L131.955 190.401C131.657 194.723 130.216 198.888 127.78 202.47C124.684 207.023 120.142 210.398 114.89 212.049L110.432 213.45C107.159 214.479 103.762 215.058 100.333 215.172L96.6376 215.295C92.5612 215.431 88.4835 215.068 84.4954 214.213L72.5856 211.661C70.5392 211.223 68.5669 210.491 66.7297 209.489L62.9629 207.434C60.1144 205.881 58.032 203.222 57.2062 200.084C56.4322 197.142 56.8247 194.016 58.3018 191.357L58.5918 190.835C60.1449 188.039 62.6548 185.898 65.6603 184.805L66.6927 184.43C70.0696 183.202 72.7629 180.593 74.0974 177.257C74.6936 175.766 75 174.175 75 172.57V170.625C75 167.984 73.9509 165.451 72.0834 163.583C71.0408 162.541 69.7797 161.743 68.3912 161.247L67.7058 161.002C64.9779 160.028 62.0053 159.978 59.2465 160.861L54.9989 162.22C52.3497 163.068 49.8512 164.33 47.5962 165.958L46.5291 166.729C43.5291 168.896 40.8957 171.529 38.729 174.529L38.1462 175.336C36.3874 177.771 34.9029 180.393 33.7197 183.154Z"/>
</mask>
<path d="M33.7197 183.154L32.1261 186.872C31.3781 188.618 30.8422 190.447 30.53 192.32C30.1783 194.43 30.1135 196.579 30.3375 198.706L30.4733 199.997C30.8225 203.313 31.6681 206.559 32.9818 209.624L33.274 210.306C34.75 213.75 36.7246 216.958 39.1346 219.827L39.6611 220.454C43.8347 225.422 49.0618 229.4 54.9632 232.097L57.9377 233.457C61.6321 235.146 65.5186 236.378 69.5112 237.127L74.9326 238.144C77.971 238.713 81.0557 239 84.147 239H95.9388C99.3043 239 102.661 238.66 105.959 237.986L116.549 235.82C120.831 234.944 124.98 233.51 128.89 231.555L132.211 229.895C136.707 227.646 140.812 224.688 144.368 221.132L146.9 218.6C148.293 217.207 149.485 215.626 150.442 213.904C154.181 207.174 161.275 203 168.974 203H185.958C194.845 203 202.637 208.934 205 217.5L209.933 231.919C210.947 234.883 212.945 237.412 215.594 239.086L215.766 239.194C219.084 241.29 223.159 241.813 226.899 240.623C230.172 239.582 232.915 237.314 234.554 234.295L241.5 221.5L247.657 209.329C253.97 196.849 271.828 196.95 278 209.5L283.982 223.06C284.992 225.349 286.208 227.541 287.614 229.609L292.177 236.319C293.37 238.074 295.015 239.474 296.938 240.371C299.852 241.731 303.195 241.841 306.192 240.675L306.421 240.586C309.06 239.56 311.267 237.658 312.672 235.2L313.529 233.698C314.174 232.57 314.69 231.372 315.065 230.127L316.38 225.774C320.014 213.736 331.103 205.5 343.678 205.5H350.907C361.916 205.5 371.025 214.067 371.697 225.056L371.812 226.922C371.935 228.946 372.532 230.912 373.554 232.663L373.614 232.767C374.845 234.877 376.663 236.582 378.847 237.674L379.531 238.016C380.826 238.663 382.254 239 383.701 239C386.713 239 389.539 237.546 391.289 235.095L391.659 234.577C392.86 232.896 393.542 230.9 393.619 228.836L393.935 220.475C394.257 211.944 400.93 205.013 409.443 204.368C419.187 203.63 427.5 211.337 427.5 221.108V225.633C427.5 227.525 427.884 229.396 428.629 231.135L428.93 231.838C430.814 236.233 435.004 239.2 439.775 239.518L440.444 239.563C444.509 239.834 448.415 237.942 450.722 234.586C451.886 232.893 452.577 230.919 452.724 228.87L452.839 227.254C453.493 218.096 461.114 211 470.295 211H510.028C518.573 211 525.5 218.043 525.5 226.589C525.5 227.848 525.664 229.116 525.989 230.333L526.497 232.24C527.14 234.652 528.697 236.718 530.837 238.002C531.934 238.661 533.153 239.093 534.42 239.274L536.823 239.618C538.566 239.867 540.344 239.578 541.919 238.791C543.594 237.953 544.953 236.594 545.791 234.919L546.597 233.305C547.521 231.458 548.027 229.43 548.078 227.365L550 150.5L549 66.5L547.36 51.7432C547.127 49.6438 546.186 47.6863 544.693 46.1926C543.269 44.7694 541.423 43.8461 539.43 43.5615L538.237 43.391C536.45 43.1358 534.628 43.4023 532.99 44.1585C530.462 45.3251 528.585 47.5562 527.868 50.246L527 53.5L525.896 59.0199C525.3 62.0004 524.977 65.0291 524.931 68.0683L524.147 119.816C524.067 125.074 519.585 129.185 514.339 128.81L510.218 128.516C506.508 128.251 503.992 124.626 505.042 121.058C505.342 120.039 505.357 118.957 505.087 117.93L504.64 116.232C503.615 112.335 500.721 109.202 496.917 107.871L495.816 107.485C493.958 106.835 491.987 106.575 490.025 106.72L486.918 106.951C482.05 107.311 477.349 108.883 473.243 111.522L465.5 116.5L464.363 117.44C459.824 121.189 452.932 118.522 452.099 112.694C451.727 110.09 450.024 107.868 447.606 106.831L446.373 106.303C445.137 105.773 443.807 105.5 442.463 105.5H439.035C437.382 105.5 435.766 105.989 434.391 106.906C432.841 107.939 431.68 109.459 431.091 111.226L428.736 118.291C427.917 120.748 427.5 123.32 427.5 125.909V133.66C427.5 142.684 420.184 150 411.16 150C402.61 150 395.506 143.408 394.866 134.882L394.5 130V122.649C394.5 118.605 393.558 114.617 391.75 111L390.978 109.455C389.677 106.854 389 103.986 389 101.078V96.5827C389 92.242 391.452 88.2738 395.335 86.3325C397.083 85.4587 398.578 84.1526 399.678 82.5382L401.512 79.8496C404.11 76.0385 405.5 71.5328 405.5 66.9201C405.5 64.0002 404.943 61.1071 403.858 58.3961L401.119 51.5478C400.713 50.5323 400.057 49.6355 399.213 48.9403L395.83 46.1538C393.972 44.6243 394.207 41.7125 396.285 40.5003C397.347 39.8809 398 38.7441 398 37.5148V36.6829C398 35.5922 397.636 34.5326 396.967 33.6716L396.683 33.3066C395.329 31.5664 393.159 30.6676 390.972 30.941L389.431 31.1336C387.527 31.3716 385.749 32.213 384.358 33.5346L378.603 39.0019C377.22 40.3155 375.548 41.2856 373.721 41.8336C372.254 42.2739 370.882 42.9876 369.68 43.937L366.689 46.298C363.601 48.736 361.088 51.8245 359.328 55.3437L359.211 55.5783C357.428 59.1438 356.5 63.0753 356.5 67.0616V69.0419C356.5 73.2369 357.842 77.3219 360.331 80.6991L361.522 82.3153C362.817 84.0732 364.558 85.4535 366.565 86.3137C371.076 88.2467 374 92.6817 374 97.5888V106.35C374 108.771 373.656 111.18 372.978 113.504L371.147 119.78C370.718 121.253 370.5 122.779 370.5 124.312V126.795C370.5 134.364 364.364 140.5 356.795 140.5C348.286 140.5 341.834 132.829 343.292 124.446L344.12 119.686C344.369 118.254 344.231 116.783 343.721 115.423C343.248 114.161 342.469 113.035 341.454 112.148L340.733 111.517C339.591 110.517 338.248 109.774 336.794 109.338C334.965 108.79 333.022 108.744 331.17 109.207L329.646 109.588C328.556 109.861 327.514 110.304 326.561 110.899C324.886 111.946 323.533 113.435 322.649 115.201L322.528 115.444C322.177 116.146 321.897 116.882 321.694 117.64L300.588 196.174C300.532 196.381 300.39 196.555 300.198 196.651C299.817 196.842 299.353 196.678 299.177 196.29L277 147.5L272.423 139.872C271.489 138.315 270.185 137.011 268.628 136.077C266.908 135.045 264.941 134.5 262.935 134.5H262.264C260.45 134.5 258.666 134.955 257.073 135.824C255.075 136.913 253.471 138.605 252.488 140.657L250.961 143.845C242.221 162.091 215.497 159.608 210.269 140.064L204.897 119.984C204.633 118.997 204.283 118.034 203.85 117.108L202.95 115.179C201.695 112.489 199.485 110.362 196.75 109.21L196.105 108.939C193.192 107.712 189.88 107.864 187.091 109.351C185.085 110.421 183.48 112.114 182.518 114.175L182.215 114.826C181.099 117.215 180.759 119.894 181.24 122.486L181.657 124.727C184.213 138.494 172.039 150.48 158.314 147.71L132.5 142.5L114 136L95.622 131.023C91.8866 130.011 88.2813 128.569 84.8786 126.726L81.3012 124.788C79.1119 123.602 77.1058 122.106 75.3453 120.345L74.4302 119.43C71.8547 116.855 69.9959 113.652 69.0376 110.138L68.9902 109.964C68.0154 106.39 68.0381 102.617 69.056 99.0541C70.003 95.7394 71.7792 92.7208 74.2168 90.2832L74.4509 90.0491C77.1043 87.3957 80.4042 85.4807 84.0245 84.4933L86.5692 83.7993C88.5186 83.2677 90.5145 82.9249 92.5295 82.7756L98.1639 82.3582C101.38 82.12 104.612 82.1935 107.815 82.5778L111.68 83.0416C114.223 83.3468 116.739 83.8468 119.205 84.5373L125.536 86.3101C127.174 86.7687 128.759 87.3995 130.264 88.1918L134.18 90.2527C136.333 91.3859 138.053 93.1972 139.072 95.4063L139.119 95.5076C140.019 97.4573 140.311 99.6327 139.958 101.751C139.658 103.554 138.901 105.249 137.759 106.676L136.87 107.787C135.961 108.924 135.209 110.178 134.636 111.516L134.089 112.792C133.053 115.209 132.759 117.88 133.243 120.465L133.378 121.181C133.783 123.343 134.832 125.332 136.387 126.887C138.082 128.582 140.287 129.672 142.662 129.988L143.173 130.056C145.352 130.347 147.569 130.055 149.599 129.209L149.963 129.057C151.638 128.359 153.16 127.34 154.444 126.056L156.062 124.438C158.657 121.843 160.66 118.718 161.934 115.277L162.748 113.08C164.238 109.059 165 104.805 165 100.516V98.0865C165 94.72 164.428 91.3781 163.307 88.2035C162.439 85.7452 161.252 83.4119 159.775 81.2636L159.306 80.5813C157.444 77.8732 155.22 75.4332 152.695 73.3293L151.404 72.2532C148.808 70.0904 145.993 68.2067 143.003 66.6332L142.126 66.1717C139.381 64.727 136.508 63.5409 133.543 62.6287L125 60L113.567 57.8564C110.529 57.2867 107.444 57 104.353 57H100.255C97.4233 57 94.5971 57.2405 91.8065 57.7189L83.8705 59.0793C80.3007 59.6913 76.808 60.6893 73.4539 62.0558L71.2014 62.9735C67.0877 64.6495 63.2306 66.8969 59.7441 69.6494C56.9239 71.8759 54.3667 74.4166 52.122 77.2224L51.0978 78.5027C48.7107 81.4866 46.7479 84.7863 45.2651 88.308C44.0919 91.0943 43.2272 94.0006 42.6863 96.9751L42.2977 99.1127C41.767 102.032 41.5 104.992 41.5 107.959V108.808C41.5 112.586 41.9976 116.348 42.9798 119.997L43.2658 121.059C44.4127 125.318 46.3132 129.338 48.8773 132.928C51.2755 136.286 54.2192 139.218 57.5861 141.603L59.1294 142.696C62.6932 145.22 66.5839 147.248 70.6944 148.724L84 153.5L107.19 160.297C111.041 161.426 114.699 163.132 118.038 165.358L121.361 167.574C124.732 169.822 127.483 172.883 129.357 176.476C131.412 180.415 132.338 184.846 132.033 189.278L131.955 190.401C131.657 194.723 130.216 198.888 127.78 202.47C124.684 207.023 120.142 210.398 114.89 212.049L110.432 213.45C107.159 214.479 103.762 215.058 100.333 215.172L96.6376 215.295C92.5612 215.431 88.4835 215.068 84.4954 214.213L72.5856 211.661C70.5392 211.223 68.5669 210.491 66.7297 209.489L62.9629 207.434C60.1144 205.881 58.032 203.222 57.2062 200.084C56.4322 197.142 56.8247 194.016 58.3018 191.357L58.5918 190.835C60.1449 188.039 62.6548 185.898 65.6603 184.805L66.6927 184.43C70.0696 183.202 72.7629 180.593 74.0974 177.257C74.6936 175.766 75 174.175 75 172.57V170.625C75 167.984 73.9509 165.451 72.0834 163.583C71.0408 162.541 69.7797 161.743 68.3912 161.247L67.7058 161.002C64.9779 160.028 62.0053 159.978 59.2465 160.861L54.9989 162.22C52.3497 163.068 49.8512 164.33 47.5962 165.958L46.5291 166.729C43.5291 168.896 40.8957 171.529 38.729 174.529L38.1462 175.336C36.3874 177.771 34.9029 180.393 33.7197 183.154Z" fill="#EACA79"/>
<path d="M33.7197 183.154L32.1261 186.872C31.3781 188.618 30.8422 190.447 30.53 192.32C30.1783 194.43 30.1135 196.579 30.3375 198.706L30.4733 199.997C30.8225 203.313 31.6681 206.559 32.9818 209.624L33.274 210.306C34.75 213.75 36.7246 216.958 39.1346 219.827L39.6611 220.454C43.8347 225.422 49.0618 229.4 54.9632 232.097L57.9377 233.457C61.6321 235.146 65.5186 236.378 69.5112 237.127L74.9326 238.144C77.971 238.713 81.0557 239 84.147 239H95.9388C99.3043 239 102.661 238.66 105.959 237.986L116.549 235.82C120.831 234.944 124.98 233.51 128.89 231.555L132.211 229.895C136.707 227.646 140.812 224.688 144.368 221.132L146.9 218.6C148.293 217.207 149.485 215.626 150.442 213.904C154.181 207.174 161.275 203 168.974 203H185.958C194.845 203 202.637 208.934 205 217.5L209.933 231.919C210.947 234.883 212.945 237.412 215.594 239.086L215.766 239.194C219.084 241.29 223.159 241.813 226.899 240.623C230.172 239.582 232.915 237.314 234.554 234.295L241.5 221.5L247.657 209.329C253.97 196.849 271.828 196.95 278 209.5L283.982 223.06C284.992 225.349 286.208 227.541 287.614 229.609L292.177 236.319C293.37 238.074 295.015 239.474 296.938 240.371C299.852 241.731 303.195 241.841 306.192 240.675L306.421 240.586C309.06 239.56 311.267 237.658 312.672 235.2L313.529 233.698C314.174 232.57 314.69 231.372 315.065 230.127L316.38 225.774C320.014 213.736 331.103 205.5 343.678 205.5H350.907C361.916 205.5 371.025 214.067 371.697 225.056L371.812 226.922C371.935 228.946 372.532 230.912 373.554 232.663L373.614 232.767C374.845 234.877 376.663 236.582 378.847 237.674L379.531 238.016C380.826 238.663 382.254 239 383.701 239C386.713 239 389.539 237.546 391.289 235.095L391.659 234.577C392.86 232.896 393.542 230.9 393.619 228.836L393.935 220.475C394.257 211.944 400.93 205.013 409.443 204.368C419.187 203.63 427.5 211.337 427.5 221.108V225.633C427.5 227.525 427.884 229.396 428.629 231.135L428.93 231.838C430.814 236.233 435.004 239.2 439.775 239.518L440.444 239.563C444.509 239.834 448.415 237.942 450.722 234.586C451.886 232.893 452.577 230.919 452.724 228.87L452.839 227.254C453.493 218.096 461.114 211 470.295 211H510.028C518.573 211 525.5 218.043 525.5 226.589C525.5 227.848 525.664 229.116 525.989 230.333L526.497 232.24C527.14 234.652 528.697 236.718 530.837 238.002C531.934 238.661 533.153 239.093 534.42 239.274L536.823 239.618C538.566 239.867 540.344 239.578 541.919 238.791C543.594 237.953 544.953 236.594 545.791 234.919L546.597 233.305C547.521 231.458 548.027 229.43 548.078 227.365L550 150.5L549 66.5L547.36 51.7432C547.127 49.6438 546.186 47.6863 544.693 46.1926C543.269 44.7694 541.423 43.8461 539.43 43.5615L538.237 43.391C536.45 43.1358 534.628 43.4023 532.99 44.1585C530.462 45.3251 528.585 47.5562 527.868 50.246L527 53.5L525.896 59.0199C525.3 62.0004 524.977 65.0291 524.931 68.0683L524.147 119.816C524.067 125.074 519.585 129.185 514.339 128.81L510.218 128.516C506.508 128.251 503.992 124.626 505.042 121.058C505.342 120.039 505.357 118.957 505.087 117.93L504.64 116.232C503.615 112.335 500.721 109.202 496.917 107.871L495.816 107.485C493.958 106.835 491.987 106.575 490.025 106.72L486.918 106.951C482.05 107.311 477.349 108.883 473.243 111.522L465.5 116.5L464.363 117.44C459.824 121.189 452.932 118.522 452.099 112.694C451.727 110.09 450.024 107.868 447.606 106.831L446.373 106.303C445.137 105.773 443.807 105.5 442.463 105.5H439.035C437.382 105.5 435.766 105.989 434.391 106.906C432.841 107.939 431.68 109.459 431.091 111.226L428.736 118.291C427.917 120.748 427.5 123.32 427.5 125.909V133.66C427.5 142.684 420.184 150 411.16 150C402.61 150 395.506 143.408 394.866 134.882L394.5 130V122.649C394.5 118.605 393.558 114.617 391.75 111L390.978 109.455C389.677 106.854 389 103.986 389 101.078V96.5827C389 92.242 391.452 88.2738 395.335 86.3325C397.083 85.4587 398.578 84.1526 399.678 82.5382L401.512 79.8496C404.11 76.0385 405.5 71.5328 405.5 66.9201C405.5 64.0002 404.943 61.1071 403.858 58.3961L401.119 51.5478C400.713 50.5323 400.057 49.6355 399.213 48.9403L395.83 46.1538C393.972 44.6243 394.207 41.7125 396.285 40.5003C397.347 39.8809 398 38.7441 398 37.5148V36.6829C398 35.5922 397.636 34.5326 396.967 33.6716L396.683 33.3066C395.329 31.5664 393.159 30.6676 390.972 30.941L389.431 31.1336C387.527 31.3716 385.749 32.213 384.358 33.5346L378.603 39.0019C377.22 40.3155 375.548 41.2856 373.721 41.8336C372.254 42.2739 370.882 42.9876 369.68 43.937L366.689 46.298C363.601 48.736 361.088 51.8245 359.328 55.3437L359.211 55.5783C357.428 59.1438 356.5 63.0753 356.5 67.0616V69.0419C356.5 73.2369 357.842 77.3219 360.331 80.6991L361.522 82.3153C362.817 84.0732 364.558 85.4535 366.565 86.3137C371.076 88.2467 374 92.6817 374 97.5888V106.35C374 108.771 373.656 111.18 372.978 113.504L371.147 119.78C370.718 121.253 370.5 122.779 370.5 124.312V126.795C370.5 134.364 364.364 140.5 356.795 140.5C348.286 140.5 341.834 132.829 343.292 124.446L344.12 119.686C344.369 118.254 344.231 116.783 343.721 115.423C343.248 114.161 342.469 113.035 341.454 112.148L340.733 111.517C339.591 110.517 338.248 109.774 336.794 109.338C334.965 108.79 333.022 108.744 331.17 109.207L329.646 109.588C328.556 109.861 327.514 110.304 326.561 110.899C324.886 111.946 323.533 113.435 322.649 115.201L322.528 115.444C322.177 116.146 321.897 116.882 321.694 117.64L300.588 196.174C300.532 196.381 300.39 196.555 300.198 196.651C299.817 196.842 299.353 196.678 299.177 196.29L277 147.5L272.423 139.872C271.489 138.315 270.185 137.011 268.628 136.077C266.908 135.045 264.941 134.5 262.935 134.5H262.264C260.45 134.5 258.666 134.955 257.073 135.824C255.075 136.913 253.471 138.605 252.488 140.657L250.961 143.845C242.221 162.091 215.497 159.608 210.269 140.064L204.897 119.984C204.633 118.997 204.283 118.034 203.85 117.108L202.95 115.179C201.695 112.489 199.485 110.362 196.75 109.21L196.105 108.939C193.192 107.712 189.88 107.864 187.091 109.351C185.085 110.421 183.48 112.114 182.518 114.175L182.215 114.826C181.099 117.215 180.759 119.894 181.24 122.486L181.657 124.727C184.213 138.494 172.039 150.48 158.314 147.71L132.5 142.5L114 136L95.622 131.023C91.8866 130.011 88.2813 128.569 84.8786 126.726L81.3012 124.788C79.1119 123.602 77.1058 122.106 75.3453 120.345L74.4302 119.43C71.8547 116.855 69.9959 113.652 69.0376 110.138L68.9902 109.964C68.0154 106.39 68.0381 102.617 69.056 99.0541C70.003 95.7394 71.7792 92.7208 74.2168 90.2832L74.4509 90.0491C77.1043 87.3957 80.4042 85.4807 84.0245 84.4933L86.5692 83.7993C88.5186 83.2677 90.5145 82.9249 92.5295 82.7756L98.1639 82.3582C101.38 82.12 104.612 82.1935 107.815 82.5778L111.68 83.0416C114.223 83.3468 116.739 83.8468 119.205 84.5373L125.536 86.3101C127.174 86.7687 128.759 87.3995 130.264 88.1918L134.18 90.2527C136.333 91.3859 138.053 93.1972 139.072 95.4063L139.119 95.5076C140.019 97.4573 140.311 99.6327 139.958 101.751C139.658 103.554 138.901 105.249 137.759 106.676L136.87 107.787C135.961 108.924 135.209 110.178 134.636 111.516L134.089 112.792C133.053 115.209 132.759 117.88 133.243 120.465L133.378 121.181C133.783 123.343 134.832 125.332 136.387 126.887C138.082 128.582 140.287 129.672 142.662 129.988L143.173 130.056C145.352 130.347 147.569 130.055 149.599 129.209L149.963 129.057C151.638 128.359 153.16 127.34 154.444 126.056L156.062 124.438C158.657 121.843 160.66 118.718 161.934 115.277L162.748 113.08C164.238 109.059 165 104.805 165 100.516V98.0865C165 94.72 164.428 91.3781 163.307 88.2035C162.439 85.7452 161.252 83.4119 159.775 81.2636L159.306 80.5813C157.444 77.8732 155.22 75.4332 152.695 73.3293L151.404 72.2532C148.808 70.0904 145.993 68.2067 143.003 66.6332L142.126 66.1717C139.381 64.727 136.508 63.5409 133.543 62.6287L125 60L113.567 57.8564C110.529 57.2867 107.444 57 104.353 57H100.255C97.4233 57 94.5971 57.2405 91.8065 57.7189L83.8705 59.0793C80.3007 59.6913 76.808 60.6893 73.4539 62.0558L71.2014 62.9735C67.0877 64.6495 63.2306 66.8969 59.7441 69.6494C56.9239 71.8759 54.3667 74.4166 52.122 77.2224L51.0978 78.5027C48.7107 81.4866 46.7479 84.7863 45.2651 88.308C44.0919 91.0943 43.2272 94.0006 42.6863 96.9751L42.2977 99.1127C41.767 102.032 41.5 104.992 41.5 107.959V108.808C41.5 112.586 41.9976 116.348 42.9798 119.997L43.2658 121.059C44.4127 125.318 46.3132 129.338 48.8773 132.928C51.2755 136.286 54.2192 139.218 57.5861 141.603L59.1294 142.696C62.6932 145.22 66.5839 147.248 70.6944 148.724L84 153.5L107.19 160.297C111.041 161.426 114.699 163.132 118.038 165.358L121.361 167.574C124.732 169.822 127.483 172.883 129.357 176.476C131.412 180.415 132.338 184.846 132.033 189.278L131.955 190.401C131.657 194.723 130.216 198.888 127.78 202.47C124.684 207.023 120.142 210.398 114.89 212.049L110.432 213.45C107.159 214.479 103.762 215.058 100.333 215.172L96.6376 215.295C92.5612 215.431 88.4835 215.068 84.4954 214.213L72.5856 211.661C70.5392 211.223 68.5669 210.491 66.7297 209.489L62.9629 207.434C60.1144 205.881 58.032 203.222 57.2062 200.084C56.4322 197.142 56.8247 194.016 58.3018 191.357L58.5918 190.835C60.1449 188.039 62.6548 185.898 65.6603 184.805L66.6927 184.43C70.0696 183.202 72.7629 180.593 74.0974 177.257C74.6936 175.766 75 174.175 75 172.57V170.625C75 167.984 73.9509 165.451 72.0834 163.583C71.0408 162.541 69.7797 161.743 68.3912 161.247L67.7058 161.002C64.9779 160.028 62.0053 159.978 59.2465 160.861L54.9989 162.22C52.3497 163.068 49.8512 164.33 47.5962 165.958L46.5291 166.729C43.5291 168.896 40.8957 171.529 38.729 174.529L38.1462 175.336C36.3874 177.771 34.9029 180.393 33.7197 183.154Z" stroke="#EACA79" stroke-width="60" mask="url(#path-1-outside-1_3_257)"/>
<path d="M33.7197 183.154L32.1261 186.872C31.3781 188.618 30.8422 190.447 30.53 192.32C30.1783 194.43 30.1135 196.579 30.3375 198.706L30.4733 199.997C30.8225 203.313 31.6681 206.559 32.9818 209.624L33.274 210.306C34.75 213.75 36.7246 216.958 39.1346 219.827L39.6611 220.454C43.8347 225.422 49.0618 229.4 54.9632 232.097L57.9377 233.457C61.6321 235.146 65.5186 236.378 69.5112 237.127L74.9326 238.144C77.971 238.713 81.0557 239 84.147 239H95.9388C99.3043 239 102.661 238.66 105.959 237.986L116.549 235.82C120.831 234.944 124.98 233.51 128.89 231.555L132.211 229.895C136.707 227.646 140.812 224.688 144.368 221.132L146.9 218.6C148.293 217.207 149.485 215.626 150.442 213.904C154.181 207.174 161.275 203 168.974 203H185.958C194.845 203 202.637 208.934 205 217.5L209.933 231.919C210.947 234.883 212.945 237.412 215.594 239.086L215.766 239.194C219.084 241.29 223.159 241.813 226.899 240.623C230.172 239.582 232.915 237.314 234.554 234.295L241.5 221.5L247.657 209.329C253.97 196.849 271.828 196.95 278 209.5L283.982 223.06C284.992 225.349 286.208 227.541 287.614 229.609L292.177 236.319C293.37 238.074 295.015 239.474 296.938 240.371C299.852 241.731 303.195 241.841 306.192 240.675L306.421 240.586C309.06 239.56 311.267 237.658 312.672 235.2L313.529 233.698C314.174 232.57 314.69 231.372 315.065 230.127L316.38 225.774C320.014 213.736 331.103 205.5 343.678 205.5H350.907C361.916 205.5 371.025 214.067 371.697 225.056L371.812 226.922C371.935 228.946 372.532 230.912 373.554 232.663L373.614 232.767C374.845 234.877 376.663 236.582 378.847 237.674L379.531 238.016C380.826 238.663 382.254 239 383.701 239C386.713 239 389.539 237.546 391.289 235.095L391.659 234.577C392.86 232.896 393.542 230.9 393.619 228.836L393.935 220.475C394.257 211.944 400.93 205.013 409.443 204.368C419.187 203.63 427.5 211.337 427.5 221.108V225.633C427.5 227.525 427.884 229.396 428.629 231.135L428.93 231.838C430.814 236.233 435.004 239.2 439.775 239.518L440.444 239.563C444.509 239.834 448.415 237.942 450.722 234.586C451.886 232.893 452.577 230.919 452.724 228.87L452.839 227.254C453.493 218.096 461.114 211 470.295 211H510.028C518.573 211 525.5 218.043 525.5 226.589C525.5 227.848 525.664 229.116 525.989 230.333L526.497 232.24C527.14 234.652 528.697 236.718 530.837 238.002C531.934 238.661 533.153 239.093 534.42 239.274L536.823 239.618C538.566 239.867 540.344 239.578 541.919 238.791C543.594 237.953 544.953 236.594 545.791 234.919L546.597 233.305C547.521 231.458 548.027 229.43 548.078 227.365L550 150.5L549 66.5L547.36 51.7432C547.127 49.6438 546.186 47.6863 544.693 46.1926C543.269 44.7694 541.423 43.8461 539.43 43.5615L538.237 43.391C536.45 43.1358 534.628 43.4023 532.99 44.1585C530.462 45.3251 528.585 47.5562 527.868 50.246L527 53.5L525.896 59.0199C525.3 62.0004 524.977 65.0291 524.931 68.0683L524.147 119.816C524.067 125.074 519.585 129.185 514.339 128.81L510.218 128.516C506.508 128.251 503.992 124.626 505.042 121.058C505.342 120.039 505.357 118.957 505.087 117.93L504.64 116.232C503.615 112.335 500.721 109.202 496.917 107.871L495.816 107.485C493.958 106.835 491.987 106.575 490.025 106.72L486.918 106.951C482.05 107.311 477.349 108.883 473.243 111.522L465.5 116.5L464.363 117.44C459.824 121.189 452.932 118.522 452.099 112.694C451.727 110.09 450.024 107.868 447.606 106.831L446.373 106.303C445.137 105.773 443.807 105.5 442.463 105.5H439.035C437.382 105.5 435.766 105.989 434.391 106.906C432.841 107.939 431.68 109.459 431.091 111.226L428.736 118.291C427.917 120.748 427.5 123.32 427.5 125.909V133.66C427.5 142.684 420.184 150 411.16 150C402.61 150 395.506 143.408 394.866 134.882L394.5 130V122.649C394.5 118.605 393.558 114.617 391.75 111L390.978 109.455C389.677 106.854 389 103.986 389 101.078V96.5827C389 92.242 391.452 88.2738 395.335 86.3325C397.083 85.4587 398.578 84.1526 399.678 82.5382L401.512 79.8496C404.11 76.0385 405.5 71.5328 405.5 66.9201C405.5 64.0002 404.943 61.1071 403.858 58.3961L401.119 51.5478C400.713 50.5323 400.057 49.6355 399.213 48.9403L395.83 46.1538C393.972 44.6243 394.207 41.7125 396.285 40.5003C397.347 39.8809 398 38.7441 398 37.5148V36.6829C398 35.5922 397.636 34.5326 396.967 33.6716L396.683 33.3066C395.329 31.5664 393.159 30.6676 390.972 30.941L389.431 31.1336C387.527 31.3716 385.749 32.213 384.358 33.5346L378.603 39.0019C377.22 40.3155 375.548 41.2856 373.721 41.8336C372.254 42.2739 370.882 42.9876 369.68 43.937L366.689 46.298C363.601 48.736 361.088 51.8245 359.328 55.3437L359.211 55.5783C357.428 59.1438 356.5 63.0753 356.5 67.0616V69.0419C356.5 73.2369 357.842 77.3219 360.331 80.6991L361.522 82.3153C362.817 84.0732 364.558 85.4535 366.565 86.3137C371.076 88.2467 374 92.6817 374 97.5888V106.35C374 108.771 373.656 111.18 372.978 113.504L371.147 119.78C370.718 121.253 370.5 122.779 370.5 124.312V126.795C370.5 134.364 364.364 140.5 356.795 140.5C348.286 140.5 341.834 132.829 343.292 124.446L344.12 119.686C344.369 118.254 344.231 116.783 343.721 115.423C343.248 114.161 342.469 113.035 341.454 112.148L340.733 111.517C339.591 110.517 338.248 109.774 336.794 109.338C334.965 108.79 333.022 108.744 331.17 109.207L329.646 109.588C328.556 109.861 327.514 110.304 326.561 110.899C324.886 111.946 323.533 113.435 322.649 115.201L322.528 115.444C322.177 116.146 321.897 116.882 321.694 117.64L300.588 196.174C300.532 196.381 300.39 196.555 300.198 196.651C299.817 196.842 299.353 196.678 299.177 196.29L277 147.5L272.423 139.872C271.489 138.315 270.185 137.011 268.628 136.077C266.908 135.045 264.941 134.5 262.935 134.5H262.264C260.45 134.5 258.666 134.955 257.073 135.824C255.075 136.913 253.471 138.605 252.488 140.657L250.961 143.845C242.221 162.091 215.497 159.608 210.269 140.064L204.897 119.984C204.633 118.997 204.283 118.034 203.85 117.108L202.95 115.179C201.695 112.489 199.485 110.362 196.75 109.21L196.105 108.939C193.192 107.712 189.88 107.864 187.091 109.351C185.085 110.421 183.48 112.114 182.518 114.175L182.215 114.826C181.099 117.215 180.759 119.894 181.24 122.486L181.657 124.727C184.213 138.494 172.039 150.48 158.314 147.71L132.5 142.5L114 136L95.622 131.023C91.8866 130.011 88.2813 128.569 84.8786 126.726L81.3012 124.788C79.1119 123.602 77.1058 122.106 75.3453 120.345L74.4302 119.43C71.8547 116.855 69.9959 113.652 69.0376 110.138L68.9902 109.964C68.0154 106.39 68.0381 102.617 69.056 99.0541C70.003 95.7394 71.7792 92.7208 74.2168 90.2832L74.4509 90.0491C77.1043 87.3957 80.4042 85.4807 84.0245 84.4933L86.5692 83.7993C88.5186 83.2677 90.5145 82.9249 92.5295 82.7756L98.1639 82.3582C101.38 82.12 104.612 82.1935 107.815 82.5778L111.68 83.0416C114.223 83.3468 116.739 83.8468 119.205 84.5373L125.536 86.3101C127.174 86.7687 128.759 87.3995 130.264 88.1918L134.18 90.2527C136.333 91.3859 138.053 93.1972 139.072 95.4063L139.119 95.5076C140.019 97.4573 140.311 99.6327 139.958 101.751C139.658 103.554 138.901 105.249 137.759 106.676L136.87 107.787C135.961 108.924 135.209 110.178 134.636 111.516L134.089 112.792C133.053 115.209 132.759 117.88 133.243 120.465L133.378 121.181C133.783 123.343 134.832 125.332 136.387 126.887C138.082 128.582 140.287 129.672 142.662 129.988L143.173 130.056C145.352 130.347 147.569 130.055 149.599 129.209L149.963 129.057C151.638 128.359 153.16 127.34 154.444 126.056L156.062 124.438C158.657 121.843 160.66 118.718 161.934 115.277L162.748 113.08C164.238 109.059 165 104.805 165 100.516V98.0865C165 94.72 164.428 91.3781 163.307 88.2035C162.439 85.7452 161.252 83.4119 159.775 81.2636L159.306 80.5813C157.444 77.8732 155.22 75.4332 152.695 73.3293L151.404 72.2532C148.808 70.0904 145.993 68.2067 143.003 66.6332L142.126 66.1717C139.381 64.727 136.508 63.5409 133.543 62.6287L125 60L113.567 57.8564C110.529 57.2867 107.444 57 104.353 57H100.255C97.4233 57 94.5971 57.2405 91.8065 57.7189L83.8705 59.0793C80.3007 59.6913 76.808 60.6893 73.4539 62.0558L71.2014 62.9735C67.0877 64.6495 63.2306 66.8969 59.7441 69.6494C56.9239 71.8759 54.3667 74.4166 52.122 77.2224L51.0978 78.5027C48.7107 81.4866 46.7479 84.7863 45.2651 88.308C44.0919 91.0943 43.2272 94.0006 42.6863 96.9751L42.2977 99.1127C41.767 102.032 41.5 104.992 41.5 107.959V108.808C41.5 112.586 41.9976 116.348 42.9798 119.997L43.2658 121.059C44.4127 125.318 46.3132 129.338 48.8773 132.928C51.2755 136.286 54.2192 139.218 57.5861 141.603L59.1294 142.696C62.6932 145.22 66.5839 147.248 70.6944 148.724L84 153.5L107.19 160.297C111.041 161.426 114.699 163.132 118.038 165.358L121.361 167.574C124.732 169.822 127.483 172.883 129.357 176.476C131.412 180.415 132.338 184.846 132.033 189.278L131.955 190.401C131.657 194.723 130.216 198.888 127.78 202.47C124.684 207.023 120.142 210.398 114.89 212.049L110.432 213.45C107.159 214.479 103.762 215.058 100.333 215.172L96.6376 215.295C92.5612 215.431 88.4835 215.068 84.4954 214.213L72.5856 211.661C70.5392 211.223 68.5669 210.491 66.7297 209.489L62.9629 207.434C60.1144 205.881 58.032 203.222 57.2062 200.084C56.4322 197.142 56.8247 194.016 58.3018 191.357L58.5918 190.835C60.1449 188.039 62.6548 185.898 65.6603 184.805L66.6927 184.43C70.0696 183.202 72.7629 180.593 74.0974 177.257C74.6936 175.766 75 174.175 75 172.57V170.625C75 167.984 73.9509 165.451 72.0834 163.583C71.0408 162.541 69.7797 161.743 68.3912 161.247L67.7058 161.002C64.9779 160.028 62.0053 159.978 59.2465 160.861L54.9989 162.22C52.3497 163.068 49.8512 164.33 47.5962 165.958L46.5291 166.729C43.5291 168.896 40.8957 171.529 38.729 174.529L38.1462 175.336C36.3874 177.771 34.9029 180.393 33.7197 183.154Z" fill="#EACA79" stroke="#EACA79" stroke-width="30"/>
<path d="M100.824 57.2641C105.603 57.2641 111.064 57.6908 117.208 58.5441C123.523 59.2268 129.411 60.5921 134.872 62.6401C140.333 64.5174 144.941 67.0774 148.696 70.3201C152.451 73.3921 154.328 77.2321 154.328 81.8401C154.328 84.5708 153.56 86.8748 152.024 88.7521C150.488 90.6294 148.013 91.5681 144.6 91.5681C142.04 91.5681 139.395 91.0561 136.664 90.0321C134.104 89.0081 131.117 87.9841 127.704 86.9601C124.461 85.7654 120.621 84.6561 116.184 83.6321C111.917 82.6081 106.883 82.0961 101.08 82.0961C89.816 82.0961 81.4534 84.1441 75.9921 88.2401C70.7014 92.1654 68.0561 97.6268 68.0561 104.624C68.0561 109.403 69.2507 113.413 71.6401 116.656C74.0294 119.899 77.1867 122.715 81.1121 125.104C85.2081 127.323 89.7307 129.2 94.68 130.736C99.8 132.272 105.005 133.723 110.296 135.088C116.269 136.624 122.157 138.501 127.96 140.72C133.933 142.939 139.224 145.84 143.832 149.424C148.44 153.008 152.109 157.531 154.84 162.992C157.741 168.453 159.192 175.365 159.192 183.728C159.192 192.432 157.571 200.283 154.328 207.28C151.085 214.107 146.648 219.995 141.016 224.944C135.384 229.723 128.643 233.477 120.792 236.208C112.941 238.768 104.408 240.048 95.1921 240.048C90.0721 240.048 84.0987 239.536 77.2721 238.512C70.4454 237.659 63.9601 236.123 57.8161 233.904C51.6721 231.515 46.4667 228.443 42.2 224.688C37.9334 220.763 35.8 215.984 35.8 210.352C35.8 206.939 36.6534 204.208 38.36 202.16C40.2374 200.112 42.9681 199.088 46.5521 199.088C49.4534 199.088 51.8427 199.685 53.7201 200.88C55.5974 201.904 57.2187 203.099 58.5841 204.464C63.7041 208.901 69.5067 211.888 75.9921 213.424C82.4774 214.96 89.1334 215.728 95.9601 215.728C99.8854 215.728 103.981 215.472 108.248 214.96C112.685 214.277 116.696 212.997 120.28 211.12C123.864 209.243 126.851 206.597 129.24 203.184C131.629 199.6 132.824 194.821 132.824 188.848C132.824 183.387 131.715 178.949 129.496 175.536C127.448 171.952 124.632 168.965 121.048 166.576C117.464 164.187 113.197 162.224 108.248 160.688C103.469 159.152 98.2641 157.616 92.6321 156.08C86.3174 154.373 80.0881 152.496 73.9441 150.448C67.8001 148.4 62.3387 145.669 57.5601 142.256C52.7814 138.672 48.8561 134.235 45.784 128.944C42.8827 123.483 41.432 116.571 41.432 108.208C41.432 99.8454 42.9681 92.5067 46.04 86.1921C49.112 79.8774 53.2934 74.5867 58.5841 70.3201C63.8747 66.0534 70.104 62.8108 77.2721 60.5921C84.6107 58.3734 92.4614 57.2641 100.824 57.2641Z" fill="#E0C3FF"/>
<path d="M251.824 141.232C252.848 139.013 254.299 137.392 256.176 136.368C258.224 135.173 260.443 134.576 262.832 134.576C264.88 134.576 266.843 135.088 268.72 136.112C270.768 137.136 272.389 138.757 273.584 140.976C278.533 150.192 282.971 159.579 286.896 169.136C290.992 178.523 295.344 188.08 299.952 197.808C304.219 183.984 307.973 170.672 311.216 157.872C314.459 144.901 317.787 132.187 321.2 119.728C322.395 115.291 324.016 112.389 326.064 111.024C328.112 109.488 330.757 108.72 334 108.72C336.901 108.72 339.291 109.573 341.168 111.28C343.045 112.816 343.984 114.949 343.984 117.68C343.984 119.899 343.387 123.824 342.192 129.456C341.168 134.917 339.717 141.317 337.84 148.656C336.133 155.824 334.171 163.504 331.952 171.696C329.904 179.888 327.771 187.739 325.552 195.248C323.504 202.757 321.541 209.584 319.664 215.728C317.787 221.872 316.336 226.48 315.312 229.552C313.947 233.477 312.325 236.379 310.448 238.256C308.571 240.304 305.669 241.328 301.744 241.328C298.16 241.328 295.173 239.963 292.784 237.232C290.395 234.331 288.176 230.917 286.128 226.992C285.445 225.627 284.336 223.323 282.8 220.08C281.264 216.837 279.387 212.997 277.168 208.56C275.12 204.123 272.816 199.259 270.256 193.968C267.867 188.677 265.392 183.301 262.832 177.84C260.272 183.301 257.627 188.677 254.896 193.968C252.336 199.259 249.947 204.208 247.728 208.816C245.509 213.253 243.547 217.093 241.84 220.336C240.304 223.579 239.195 225.883 238.512 227.248C236.464 231.173 234.245 234.587 231.856 237.488C229.637 240.219 226.651 241.584 222.896 241.584C216.923 241.584 212.4 237.659 209.328 229.808C208.133 226.736 206.597 222.213 204.72 216.24C202.843 210.096 200.88 203.269 198.832 195.76C196.784 188.251 194.736 180.485 192.688 172.464C190.64 164.272 188.763 156.592 187.056 149.424C185.52 142.256 184.24 135.941 183.216 130.48C182.192 125.019 181.68 121.093 181.68 118.704C181.68 115.803 182.448 113.413 183.984 111.536C185.691 109.659 188.08 108.72 191.152 108.72C194.565 108.72 197.296 109.488 199.344 111.024C201.563 112.389 203.269 115.291 204.464 119.728C207.877 132.187 211.205 144.901 214.448 157.872C217.691 170.672 221.445 183.984 225.712 197.808C229.467 189.616 233.221 181.083 236.976 172.208C240.731 163.333 245.68 153.008 251.824 141.232Z" fill="#E0C3FF"/>
<path d="M371.408 222.128C371.067 215.813 370.725 208.645 370.384 200.624C370.213 192.432 370.128 183.472 370.128 173.744C370.128 161.627 370.213 151.301 370.384 142.768C370.555 134.064 370.981 126.981 371.664 121.52C372.517 115.888 373.797 111.792 375.504 109.232C377.211 106.501 379.6 105.136 382.672 105.136C385.573 105.136 388.133 106.16 390.352 108.208C392.571 110.256 393.851 114.693 394.192 121.52C395.216 139.44 395.728 156.763 395.728 173.488C395.728 182.021 395.557 190.043 395.216 197.552C394.875 204.891 394.533 212.997 394.192 221.872C394.021 225.968 393.595 229.125 392.912 231.344C392.4 233.563 391.632 235.269 390.608 236.464C389.584 237.659 388.389 238.341 387.024 238.512C385.829 238.853 384.379 239.024 382.672 239.024C379.6 239.024 377.04 238 374.992 235.952C372.944 233.733 371.749 229.125 371.408 222.128ZM382.928 58.8001C386.853 58.8001 390.437 60.3361 393.68 63.4081C397.093 66.4801 398.8 70.1494 398.8 74.4161C398.8 78.5121 397.093 82.0961 393.68 85.1681C390.267 88.0694 386.427 89.5201 382.16 89.5201C378.576 89.5201 375.163 88.0694 371.92 85.1681C368.848 82.0961 367.312 78.3414 367.312 73.9041C367.312 69.8081 368.848 66.3094 371.92 63.4081C375.163 60.3361 378.832 58.8001 382.928 58.8001Z" fill="#E0C3FF"/>
<path d="M428.646 222.384C427.963 216.411 427.537 209.157 427.366 200.624C427.195 192.091 427.11 181.765 427.11 169.648C427.11 157.701 427.11 148.059 427.11 140.72C427.281 133.381 427.793 126.896 428.646 121.264C429.499 114.267 430.779 109.744 432.486 107.696C434.363 105.648 436.753 104.624 439.654 104.624C441.702 104.624 443.494 104.795 445.03 105.136C446.737 105.477 448.187 106.245 449.382 107.44C450.747 108.464 451.771 110 452.454 112.048C453.137 114.096 453.478 116.912 453.478 120.496C453.478 121.179 453.563 121.861 453.734 122.544C453.734 123.227 453.734 123.995 453.734 124.848C453.905 125.531 453.99 126.384 453.99 127.408C458.598 121.605 463.803 116.656 469.606 112.56C475.579 108.464 482.321 106.416 489.83 106.416C499.899 106.416 504.934 110.597 504.934 118.96C504.934 122.032 504.251 124.592 502.886 126.64C501.691 128.688 499.899 130.395 497.51 131.76C495.291 132.955 492.646 133.893 489.574 134.576C486.673 135.259 483.43 135.941 479.846 136.624C474.385 137.648 469.265 139.611 464.486 142.512C459.707 145.243 456.465 148.741 454.758 153.008C454.758 156.251 454.758 158.64 454.758 160.176C454.929 161.712 455.014 162.992 455.014 164.016C455.185 165.04 455.27 166.149 455.27 167.344C455.27 168.539 455.27 170.416 455.27 172.976C455.27 181.68 455.099 189.872 454.758 197.552C454.417 205.061 454.075 213.253 453.734 222.128C453.563 226.224 453.051 229.381 452.198 231.6C451.515 233.819 450.577 235.525 449.382 236.72C448.358 237.915 447.163 238.597 445.798 238.768C444.433 239.109 443.067 239.28 441.702 239.28C436.923 239.28 433.681 238.256 431.974 236.208C430.438 233.989 429.329 229.381 428.646 222.384Z" fill="#E0C3FF"/>
<path d="M525.402 223.152C525.231 217.008 525.061 209.84 524.89 201.648C524.719 193.456 524.549 184.581 524.378 175.024C524.378 165.467 524.293 155.397 524.122 144.816C524.122 134.235 524.122 123.397 524.122 112.304C524.122 100.187 524.207 89.7761 524.378 81.0721C524.549 72.3681 524.975 65.2001 525.658 59.5681C526.511 53.9361 527.791 49.8401 529.498 47.2801C531.205 44.5494 533.594 43.1841 536.666 43.1841C539.567 43.1841 542.127 44.1227 544.346 46.0001C546.565 47.8774 547.845 52.2294 548.186 59.0561C548.869 71.3441 549.295 84.1441 549.466 97.4561C549.637 110.597 549.722 123.568 549.722 136.368C549.722 144.048 549.722 151.472 549.722 158.64C549.722 165.637 549.637 172.635 549.466 179.632C549.295 186.459 549.125 193.456 548.954 200.624C548.783 207.792 548.527 215.216 548.186 222.896C548.015 226.992 547.589 230.149 546.906 232.368C546.394 234.587 545.626 236.293 544.602 237.488C543.578 238.683 542.383 239.365 541.018 239.536C539.823 239.877 538.373 240.048 536.666 240.048C533.594 240.048 531.034 239.024 528.986 236.976C526.938 234.757 525.743 230.149 525.402 223.152Z" fill="#E0C3FF"/>
<path fill-rule="evenodd" clip-rule="evenodd" d="M75.592 169.333C77.341 176.011 73.3451 182.843 66.6668 184.592L64.3409 185.201C56.1045 187.359 51.9865 198.48 58.0069 204.5C62.8884 209.382 64.2202 216.457 59.3386 221.339C54.4571 226.221 45.8816 227.882 41 223C21.3269 203.327 31.0927 168.066 58.0069 161.017L60.3328 160.408C67.0111 158.659 73.8429 162.655 75.592 169.333Z" fill="#E0C3FF"/>
<path d="M145.07 118V118C156.947 107.106 154.867 87.8216 140.939 79.7116L138 78" stroke="#E0C3FF" stroke-width="25" stroke-linecap="round"/>
<mask id="mask0_3_257" style="mask-type:alpha" maskUnits="userSpaceOnUse" x="30" y="43" width="520" height="199">
<path d="M100.824 57.2641C105.603 57.2641 111.064 57.6908 117.208 58.5441C123.523 59.2268 129.411 60.5921 134.872 62.6401C140.333 64.5174 144.941 67.0774 148.696 70.3201C152.451 73.3921 154.328 77.2321 154.328 81.8401C154.328 84.5708 153.56 86.8748 152.024 88.7521C150.488 90.6294 148.013 91.5681 144.6 91.5681C142.04 91.5681 139.395 91.0561 136.664 90.0321C134.104 89.0081 131.117 87.9841 127.704 86.9601C124.461 85.7654 120.621 84.6561 116.184 83.6321C111.917 82.6081 106.883 82.0961 101.08 82.0961C89.816 82.0961 81.4534 84.1441 75.9921 88.2401C70.7014 92.1654 68.0561 97.6268 68.0561 104.624C68.0561 109.403 69.2507 113.413 71.6401 116.656C74.0294 119.899 77.1867 122.715 81.1121 125.104C85.2081 127.323 89.7307 129.2 94.68 130.736C99.8 132.272 105.005 133.723 110.296 135.088C116.269 136.624 122.157 138.501 127.96 140.72C133.933 142.939 139.224 145.84 143.832 149.424C148.44 153.008 152.109 157.531 154.84 162.992C157.741 168.453 159.192 175.365 159.192 183.728C159.192 192.432 157.571 200.283 154.328 207.28C151.085 214.107 146.648 219.995 141.016 224.944C135.384 229.723 128.643 233.477 120.792 236.208C112.941 238.768 104.408 240.048 95.1921 240.048C90.0721 240.048 84.0987 239.536 77.2721 238.512C70.4454 237.659 63.9601 236.123 57.8161 233.904C51.6721 231.515 46.4667 228.443 42.2 224.688C37.9334 220.763 35.8 215.984 35.8 210.352C35.8 206.939 36.6534 204.208 38.36 202.16C40.2374 200.112 42.9681 199.088 46.5521 199.088C49.4534 199.088 51.8427 199.685 53.7201 200.88C55.5974 201.904 57.2187 203.099 58.5841 204.464C63.7041 208.901 69.5067 211.888 75.9921 213.424C82.4774 214.96 89.1334 215.728 95.9601 215.728C99.8854 215.728 103.981 215.472 108.248 214.96C112.685 214.277 116.696 212.997 120.28 211.12C123.864 209.243 126.851 206.597 129.24 203.184C131.629 199.6 132.824 194.821 132.824 188.848C132.824 183.387 131.715 178.949 129.496 175.536C127.448 171.952 124.632 168.965 121.048 166.576C117.464 164.187 113.197 162.224 108.248 160.688C103.469 159.152 98.2641 157.616 92.6321 156.08C86.3174 154.373 80.0881 152.496 73.9441 150.448C67.8001 148.4 62.3387 145.669 57.5601 142.256C52.7814 138.672 48.8561 134.235 45.784 128.944C42.8827 123.483 41.432 116.571 41.432 108.208C41.432 99.8454 42.9681 92.5067 46.04 86.1921C49.112 79.8774 53.2934 74.5867 58.5841 70.3201C63.8747 66.0534 70.104 62.8108 77.2721 60.5921C84.6107 58.3734 92.4614 57.2641 100.824 57.2641Z" fill="#E0C3FF"/>
<path d="M251.824 141.232C252.848 139.013 254.299 137.392 256.176 136.368C258.224 135.173 260.443 134.576 262.832 134.576C264.88 134.576 266.843 135.088 268.72 136.112C270.768 137.136 272.389 138.757 273.584 140.976C278.533 150.192 282.971 159.579 286.896 169.136C290.992 178.523 295.344 188.08 299.952 197.808C304.219 183.984 307.973 170.672 311.216 157.872C314.459 144.901 317.787 132.187 321.2 119.728C322.395 115.291 324.016 112.389 326.064 111.024C328.112 109.488 330.757 108.72 334 108.72C336.901 108.72 339.291 109.573 341.168 111.28C343.045 112.816 343.984 114.949 343.984 117.68C343.984 119.899 343.387 123.824 342.192 129.456C341.168 134.917 339.717 141.317 337.84 148.656C336.133 155.824 334.171 163.504 331.952 171.696C329.904 179.888 327.771 187.739 325.552 195.248C323.504 202.757 321.541 209.584 319.664 215.728C317.787 221.872 316.336 226.48 315.312 229.552C313.947 233.477 312.325 236.379 310.448 238.256C308.571 240.304 305.669 241.328 301.744 241.328C298.16 241.328 295.173 239.963 292.784 237.232C290.395 234.331 288.176 230.917 286.128 226.992C285.445 225.627 284.336 223.323 282.8 220.08C281.264 216.837 279.387 212.997 277.168 208.56C275.12 204.123 272.816 199.259 270.256 193.968C267.867 188.677 265.392 183.301 262.832 177.84C260.272 183.301 257.627 188.677 254.896 193.968C252.336 199.259 249.947 204.208 247.728 208.816C245.509 213.253 243.547 217.093 241.84 220.336C240.304 223.579 239.195 225.883 238.512 227.248C236.464 231.173 234.245 234.587 231.856 237.488C229.637 240.219 226.651 241.584 222.896 241.584C216.923 241.584 212.4 237.659 209.328 229.808C208.133 226.736 206.597 222.213 204.72 216.24C202.843 210.096 200.88 203.269 198.832 195.76C196.784 188.251 194.736 180.485 192.688 172.464C190.64 164.272 188.763 156.592 187.056 149.424C185.52 142.256 184.24 135.941 183.216 130.48C182.192 125.019 181.68 121.093 181.68 118.704C181.68 115.803 182.448 113.413 183.984 111.536C185.691 109.659 188.08 108.72 191.152 108.72C194.565 108.72 197.296 109.488 199.344 111.024C201.563 112.389 203.269 115.291 204.464 119.728C207.877 132.187 211.205 144.901 214.448 157.872C217.691 170.672 221.445 183.984 225.712 197.808C229.467 189.616 233.221 181.083 236.976 172.208C240.731 163.333 245.68 153.008 251.824 141.232Z" fill="#E0C3FF"/>
<path d="M371.408 222.128C371.067 215.813 370.725 208.645 370.384 200.624C370.213 192.432 370.128 183.472 370.128 173.744C370.128 161.627 370.213 151.301 370.384 142.768C370.555 134.064 370.981 126.981 371.664 121.52C372.517 115.888 373.797 111.792 375.504 109.232C377.211 106.501 379.6 105.136 382.672 105.136C385.573 105.136 388.133 106.16 390.352 108.208C392.571 110.256 393.851 114.693 394.192 121.52C395.216 139.44 395.728 156.763 395.728 173.488C395.728 182.021 395.557 190.043 395.216 197.552C394.875 204.891 394.533 212.997 394.192 221.872C394.021 225.968 393.595 229.125 392.912 231.344C392.4 233.563 391.632 235.269 390.608 236.464C389.584 237.659 388.389 238.341 387.024 238.512C385.829 238.853 384.379 239.024 382.672 239.024C379.6 239.024 377.04 238 374.992 235.952C372.944 233.733 371.749 229.125 371.408 222.128ZM382.928 58.8001C386.853 58.8001 390.437 60.3361 393.68 63.4081C397.093 66.4801 398.8 70.1494 398.8 74.4161C398.8 78.5121 397.093 82.0961 393.68 85.1681C390.267 88.0694 386.427 89.5201 382.16 89.5201C378.576 89.5201 375.163 88.0694 371.92 85.1681C368.848 82.0961 367.312 78.3414 367.312 73.9041C367.312 69.8081 368.848 66.3094 371.92 63.4081C375.163 60.3361 378.832 58.8001 382.928 58.8001Z" fill="#E0C3FF"/>
<path d="M428.646 222.384C427.963 216.411 427.537 209.157 427.366 200.624C427.195 192.091 427.11 181.765 427.11 169.648C427.11 157.701 427.11 148.059 427.11 140.72C427.281 133.381 427.793 126.896 428.646 121.264C429.499 114.267 430.779 109.744 432.486 107.696C434.363 105.648 436.753 104.624 439.654 104.624C441.702 104.624 443.494 104.795 445.03 105.136C446.737 105.477 448.187 106.245 449.382 107.44C450.747 108.464 451.771 110 452.454 112.048C453.137 114.096 453.478 116.912 453.478 120.496C453.478 121.179 453.563 121.861 453.734 122.544C453.734 123.227 453.734 123.995 453.734 124.848C453.905 125.531 453.99 126.384 453.99 127.408C458.598 121.605 463.803 116.656 469.606 112.56C475.579 108.464 482.321 106.416 489.83 106.416C499.899 106.416 504.934 110.597 504.934 118.96C504.934 122.032 504.251 124.592 502.886 126.64C501.691 128.688 499.899 130.395 497.51 131.76C495.291 132.955 492.646 133.893 489.574 134.576C486.673 135.259 483.43 135.941 479.846 136.624C474.385 137.648 469.265 139.611 464.486 142.512C459.707 145.243 456.465 148.741 454.758 153.008C454.758 156.251 454.758 158.64 454.758 160.176C454.929 161.712 455.014 162.992 455.014 164.016C455.185 165.04 455.27 166.149 455.27 167.344C455.27 168.539 455.27 170.416 455.27 172.976C455.27 181.68 455.099 189.872 454.758 197.552C454.417 205.061 454.075 213.253 453.734 222.128C453.563 226.224 453.051 229.381 452.198 231.6C451.515 233.819 450.577 235.525 449.382 236.72C448.358 237.915 447.163 238.597 445.798 238.768C444.433 239.109 443.067 239.28 441.702 239.28C436.923 239.28 433.681 238.256 431.974 236.208C430.438 233.989 429.329 229.381 428.646 222.384Z" fill="#E0C3FF"/>
<path d="M525.402 223.152C525.231 217.008 525.061 209.84 524.89 201.648C524.719 193.456 524.549 184.581 524.378 175.024C524.378 165.467 524.293 155.397 524.122 144.816C524.122 134.235 524.122 123.397 524.122 112.304C524.122 100.187 524.207 89.7761 524.378 81.0721C524.549 72.3681 524.975 65.2001 525.658 59.5681C526.511 53.9361 527.791 49.8401 529.498 47.2801C531.205 44.5494 533.594 43.1841 536.666 43.1841C539.567 43.1841 542.127 44.1227 544.346 46.0001C546.565 47.8774 547.845 52.2294 548.186 59.0561C548.869 71.3441 549.295 84.1441 549.466 97.4561C549.637 110.597 549.722 123.568 549.722 136.368C549.722 144.048 549.722 151.472 549.722 158.64C549.722 165.637 549.637 172.635 549.466 179.632C549.295 186.459 549.125 193.456 548.954 200.624C548.783 207.792 548.527 215.216 548.186 222.896C548.015 226.992 547.589 230.149 546.906 232.368C546.394 234.587 545.626 236.293 544.602 237.488C543.578 238.683 542.383 239.365 541.018 239.536C539.823 239.877 538.373 240.048 536.666 240.048C533.594 240.048 531.034 239.024 528.986 236.976C526.938 234.757 525.743 230.149 525.402 223.152Z" fill="#E0C3FF"/>
<path fill-rule="evenodd" clip-rule="evenodd" d="M75.592 169.333C77.341 176.011 73.3451 182.843 66.6668 184.592L64.3409 185.201C56.1045 187.359 51.9865 198.48 58.0069 204.5C62.8884 209.382 64.2202 216.457 59.3386 221.339C54.4571 226.221 45.8816 227.882 41 223C21.3269 203.327 31.0927 168.066 58.0069 161.017L60.3328 160.408C67.0111 158.659 73.8429 162.655 75.592 169.333Z" fill="#E0C3FF"/>
<path d="M145.07 118V118C156.947 107.106 154.867 87.8216 140.939 79.7116L138 78" stroke="#E0C3FF" stroke-width="25" stroke-linecap="round"/>
</mask>
<g mask="url(#mask0_3_257)">
<path d="M144.724 78.611L130.696 58.8069C119.016 42.3177 99.4096 33.3346 79.2945 35.2564C52.551 37.8115 31.3192 58.8709 28.5462 85.5927L28.3159 87.812C27.9818 91.0315 27.9126 94.2731 28.1089 97.5039L32.5627 170.788C33.0608 178.984 34.7661 187.062 37.6236 194.759L43.3867 210.284C52.0592 233.647 74.3498 249.149 99.2705 249.149H100.195C117.944 249.149 134.705 240.983 145.644 227.006C151.976 218.915 156.033 209.281 157.397 199.098L162.814 158.649V135.446C162.814 115.085 156.493 95.226 144.724 78.611Z" fill="#D8B4FF"/>
<path d="M164.91 89.4616L150.882 69.6574C139.203 53.1683 119.596 44.1851 99.4806 46.1069C72.7371 48.6621 51.5053 69.7214 48.7323 96.4432L48.502 98.6625C48.1679 101.882 48.0987 105.124 48.295 108.354L52.7488 181.639C53.2469 189.835 54.9522 197.912 57.8097 205.61L63.5728 221.135C72.2454 244.498 94.536 260 119.457 260H120.381C138.13 260 154.891 251.833 165.83 237.856C172.162 229.766 176.219 220.131 177.583 209.949L183 169.5V146.296C183 125.935 176.679 106.077 164.91 89.4616Z" fill="#D0A4FF"/>
<path d="M217.91 97.4616L203.882 77.6574C192.203 61.1683 172.596 52.1851 152.481 54.1069C125.737 56.6621 104.505 77.7214 101.732 104.443L101.502 106.663C101.168 109.882 101.099 113.124 101.295 116.354L105.749 189.639C106.247 197.835 107.952 205.912 110.81 213.61L116.573 229.135C125.245 252.498 147.536 268 172.457 268H173.381C191.13 268 207.891 259.833 218.83 245.856C225.162 237.766 229.219 228.131 230.583 217.949L236 177.5V154.296C236 133.935 229.679 114.077 217.91 97.4616Z" fill="#C289FF"/>
<path d="M314.91 97.4616L300.882 77.6574C289.203 61.1683 269.596 52.1851 249.481 54.1069C222.737 56.6621 201.505 77.7214 198.732 104.443L198.502 106.663C198.168 109.882 198.099 113.124 198.295 116.354L202.749 189.639C203.247 197.835 204.952 205.912 207.81 213.61L213.573 229.135C222.245 252.498 244.536 268 269.457 268H270.381C288.13 268 304.891 259.833 315.83 245.856C322.162 237.766 326.219 228.131 327.583 217.949L333 177.5V154.296C333 133.935 326.679 114.077 314.91 97.4616Z" fill="#B875FF"/>
<path d="M435.91 89.4616L421.882 69.6574C410.203 53.1683 390.596 44.1851 370.481 46.1069C343.737 48.6621 322.505 69.7214 319.732 96.4432L319.502 98.6625C319.168 101.882 319.099 105.124 319.295 108.354L323.749 181.639C324.247 189.835 325.952 197.912 328.81 205.61L334.573 221.135C343.245 244.498 365.536 260 390.457 260H391.381C409.13 260 425.891 251.833 436.83 237.856C443.162 229.766 447.219 220.131 448.583 209.949L454 169.5V146.296C454 125.935 447.679 106.077 435.91 89.4616Z" fill="#AE63FF"/>
<path d="M518.91 85.4616L504.882 65.6574C493.203 49.1683 473.596 40.1851 453.481 42.1069C426.737 44.6621 405.505 65.7214 402.732 92.4432L402.502 94.6625C402.168 97.8821 402.099 101.124 402.295 104.354L406.749 177.639C407.247 185.835 408.952 193.912 411.81 201.61L417.573 217.135C426.245 240.498 448.536 256 473.457 256H474.381C492.13 256 508.891 247.833 519.83 233.856C526.162 225.766 530.219 216.131 531.583 205.949L537 165.5V142.296C537 121.935 530.679 102.077 518.91 85.4616Z" fill="#A047FF"/>
<path d="M604.91 79.4616L590.882 59.6574C579.203 43.1683 559.596 34.1851 539.481 36.1069C512.737 38.6621 491.505 59.7214 488.732 86.4432L488.502 88.6625C488.168 91.8821 488.099 95.1236 488.295 98.3545L492.749 171.639C493.247 179.835 494.952 187.912 497.81 195.61L503.573 211.135C512.245 234.498 534.536 250 559.457 250H560.381C578.13 250 594.891 241.833 605.83 227.856C612.162 219.766 616.219 210.131 617.583 199.949L623 159.5V136.296C623 115.935 616.679 96.0765 604.91 79.4616Z" fill="#922BFF"/>
<path d="M604.91 79.4616L590.882 59.6574C579.203 43.1683 559.596 34.1851 539.481 36.1069C512.737 38.6621 491.505 59.7214 488.732 86.4432L488.502 88.6625C488.168 91.8821 488.099 95.1236 488.295 98.3545L492.749 171.639C493.247 179.835 494.952 187.912 497.81 195.61L503.573 211.135C512.245 234.498 534.536 250 559.457 250H560.381C578.13 250 594.891 241.833 605.83 227.856C612.162 219.766 616.219 210.131 617.583 199.949L623 159.5V136.296C623 115.935 616.679 96.0765 604.91 79.4616Z" fill="#922CFF"/>
</g>
<path d="M380.065 49.1069L380.858 45.8218C381.158 44.5799 381.68 43.4024 382.398 42.3459V42.3459C383.659 40.4915 385.475 39.0845 387.586 38.3268L391.282 37" stroke="#00C434" stroke-width="10" stroke-linecap="round"/>
<path d="M399.728 75.6967C400.836 73.5563 401.267 71.1098 401.267 68.4878C401.267 56.741 392.935 45.8872 381.134 45.8872C369.332 45.8872 361 56.741 361 68.4878C361 70.2169 361.157 71.8438 361.538 73.3466C362.623 77.6269 365.561 80.6201 368.885 82.4783C372.17 84.3146 376.05 85.1927 379.798 85.3184C383.561 85.4445 387.501 84.8243 390.986 83.3536C394.457 81.8888 397.796 79.4316 399.728 75.6967Z" fill="#FF5353"/>
<path d="M399.728 75.6967C400.836 73.5563 401.267 71.1098 401.267 68.4878C401.267 56.741 392.935 45.8872 381.134 45.8872C369.332 45.8872 361 56.741 361 68.4878C361 70.2169 361.157 71.8438 361.538 73.3466C362.623 77.6269 365.561 80.6201 368.885 82.4783C372.17 84.3146 376.05 85.1927 379.798 85.3184C383.561 85.4445 387.501 84.8243 390.986 83.3536C394.457 81.8888 397.796 79.4316 399.728 75.6967Z" stroke="#FF6666" stroke-width="10"/>
<path d="M399.728 75.6967C400.836 73.5563 401.267 71.1098 401.267 68.4878C401.267 56.741 392.935 45.8872 381.134 45.8872C369.332 45.8872 361 56.741 361 68.4878C361 70.2169 361.157 71.8438 361.538 73.3466C362.623 77.6269 365.561 80.6201 368.885 82.4783C372.17 84.3146 376.05 85.1927 379.798 85.3184C383.561 85.4445 387.501 84.8243 390.986 83.3536C394.457 81.8888 397.796 79.4316 399.728 75.6967Z" stroke="black" stroke-opacity="0.2" stroke-width="10"/>
<path d="M370.986 62.9942L371.846 60.6107C372.761 58.0768 374.818 56.1228 377.395 55.3384V55.3384" stroke="#FFFEF2" stroke-width="10" stroke-linecap="round"/>
</svg>
