<svg width="416" height="938" viewBox="0 0 416 938" fill="none" xmlns="http://www.w3.org/2000/svg">
<path d="M165.786 901.87C177.964 929.993 217.845 929.993 230.022 901.87L329.471 672.202C339.478 649.092 322.537 623.294 297.353 623.294H98.455C73.2715 623.294 56.33 649.092 66.3369 672.202L165.786 901.87Z" fill="#FDE09D" stroke="#7A725E" stroke-width="30"/>
<path d="M196 689V908H199.5L204.5 907L207.5 906L210 904L215 899.5L319 658L309 648.5L297 674L277 689L233.5 694L196 689Z" fill="#CFB984"/>
<g filter="url(#filter0_d_12_238)">
<path d="M184.5 900L188.578 903.059C189.852 904.014 191.263 904.772 192.762 905.308V905.308C195.845 906.409 199.193 906.53 202.347 905.654L202.789 905.531C205.233 904.852 207.498 903.644 209.424 901.994L209.937 901.554C212.281 899.544 214.138 897.027 215.366 894.194L220 883.5L266.5 775L317.5 656" stroke="#5D5031" stroke-opacity="0.5" stroke-width="5" stroke-linecap="round" shape-rendering="crispEdges"/>
</g>
<path d="M209.5 902L207.041 903.565C205.038 904.84 202.781 905.663 200.427 905.976V905.976C197.846 906.321 195.221 906.043 192.769 905.168L192.443 905.051C190.496 904.356 188.685 903.326 187.092 902.008L186.43 901.46C183.718 899.216 181.565 896.371 180.144 893.151L175.724 883.138L128.64 775.287L77 657" stroke="#5D5031" stroke-opacity="0.5" stroke-width="5" stroke-linecap="round"/>
<path d="M165.786 901.87C177.964 929.993 217.845 929.993 230.022 901.87L329.471 672.202C339.478 649.092 322.537 623.294 297.353 623.294H98.455C73.2715 623.294 56.33 649.092 66.3369 672.202L165.786 901.87Z" stroke="#7A725E" stroke-width="30"/>
<rect x="115" y="686" width="40" height="40" rx="5" fill="#C7AB66" stroke="#7A725E" stroke-width="10"/>
<rect x="177" y="686" width="40" height="40" rx="5" fill="#C7AB66" stroke="#7A725E" stroke-width="10"/>
<rect x="239" y="686" width="40" height="40" rx="5" fill="#C7AB66" stroke="#7A725E" stroke-width="10"/>
<rect x="150" y="771" width="40" height="40" rx="5" fill="#C7AB66" stroke="#7A725E" stroke-width="10"/>
<rect x="204" y="771" width="40" height="40" rx="5" fill="#C7AB66" stroke="#7A725E" stroke-width="10"/>
<path d="M209 806H234C236.761 806 239 803.761 239 801V776" stroke="#5D5031" stroke-opacity="0.4" stroke-width="10" stroke-linecap="round"/>
<path d="M155 806H180C182.761 806 185 803.761 185 801V776" stroke="#5D5031" stroke-opacity="0.4" stroke-width="10" stroke-linecap="round"/>
<path d="M120 721H145C147.761 721 150 718.761 150 716V691" stroke="#5D5031" stroke-opacity="0.4" stroke-width="10" stroke-linecap="round"/>
<path d="M183 721H208C210.761 721 213 718.761 213 716V691" stroke="#5D5031" stroke-opacity="0.4" stroke-width="10" stroke-linecap="round"/>
<path d="M244 721H269C271.761 721 274 718.761 274 716V691" stroke="#5D5031" stroke-opacity="0.4" stroke-width="10" stroke-linecap="round"/>
<rect x="115" y="686" width="40" height="40" rx="5" stroke="#7A725E" stroke-width="10"/>
<rect x="177" y="686" width="40" height="40" rx="5" stroke="#7A725E" stroke-width="10"/>
<rect x="239" y="686" width="40" height="40" rx="5" stroke="#7A725E" stroke-width="10"/>
<rect x="150" y="771" width="40" height="40" rx="5" stroke="#7A725E" stroke-width="10"/>
<rect x="204" y="771" width="40" height="40" rx="5" stroke="#7A725E" stroke-width="10"/>
<path d="M205.254 651.399C213.443 650.569 222.076 649.828 230.62 649.095C241.178 648.189 251.602 647.294 260.891 646.255C278.368 644.301 295.396 641.532 310.266 636.139C325.335 630.675 338.993 622.228 348.697 608.475C358.388 594.74 363 577.32 363 556C363 466.246 288.84 394 198 394C107.16 394 33 466.246 33 556C33 576.746 36.5895 593.688 44.6247 607.147C52.8347 620.9 64.7545 629.467 78.3903 635.007C91.6428 640.392 106.961 643.097 122.736 645.103C130.11 646.041 137.871 646.857 145.78 647.688C146.419 647.755 147.058 647.822 147.698 647.89C156.332 648.798 165.205 649.747 174.38 650.937C184.577 652.259 194.951 652.445 205.254 651.399Z" fill="#FFFACC"/>
<path d="M205.254 651.399C213.443 650.569 222.076 649.828 230.62 649.095C241.178 648.189 251.602 647.294 260.891 646.255C278.368 644.301 295.396 641.532 310.266 636.139C325.335 630.675 338.993 622.228 348.697 608.475C358.388 594.74 363 577.32 363 556C363 466.246 288.84 394 198 394C107.16 394 33 466.246 33 556C33 576.746 36.5895 593.688 44.6247 607.147C52.8347 620.9 64.7545 629.467 78.3903 635.007C91.6428 640.392 106.961 643.097 122.736 645.103C130.11 646.041 137.871 646.857 145.78 647.688C146.419 647.755 147.058 647.822 147.698 647.89C156.332 648.798 165.205 649.747 174.38 650.937C184.577 652.259 194.951 652.445 205.254 651.399Z" stroke="#79765F" stroke-width="30"/>
<path d="M205.254 651.399C213.443 650.569 222.076 649.828 230.62 649.095C241.178 648.189 251.602 647.294 260.891 646.255C278.368 644.301 295.396 641.532 310.266 636.139C325.335 630.675 338.993 622.228 348.697 608.475C358.388 594.74 363 577.32 363 556C363 466.246 288.84 394 198 394C107.16 394 33 466.246 33 556C33 576.746 36.5895 593.688 44.6247 607.147C52.8347 620.9 64.7545 629.467 78.3903 635.007C91.6428 640.392 106.961 643.097 122.736 645.103C130.11 646.041 137.871 646.857 145.78 647.688C146.419 647.755 147.058 647.822 147.698 647.89C156.332 648.798 165.205 649.747 174.38 650.937C184.577 652.259 194.951 652.445 205.254 651.399Z" stroke="black" stroke-opacity="0.2" stroke-width="30"/>
<path d="M78.5508 662.002C83.9744 661.178 91.93 659.498 98.3298 653.766C105.469 647.371 108 638.54 108 629.306C108 603.415 89.1785 579 62 579C34.8215 579 16 603.415 16 629.306C16 637.379 17.62 645.706 23.4838 652.213C29.2097 658.568 36.6796 660.538 41.6794 661.478C53.9036 663.776 66.4886 663.833 78.5508 662.002Z" fill="#FFFACC"/>
<path d="M78.5508 662.002C83.9744 661.178 91.93 659.498 98.3298 653.766C105.469 647.371 108 638.54 108 629.306C108 603.415 89.1785 579 62 579C34.8215 579 16 603.415 16 629.306C16 637.379 17.62 645.706 23.4838 652.213C29.2097 658.568 36.6796 660.538 41.6794 661.478C53.9036 663.776 66.4886 663.833 78.5508 662.002Z" stroke="#79765F" stroke-width="30"/>
<path d="M78.5508 662.002C83.9744 661.178 91.93 659.498 98.3298 653.766C105.469 647.371 108 638.54 108 629.306C108 603.415 89.1785 579 62 579C34.8215 579 16 603.415 16 629.306C16 637.379 17.62 645.706 23.4838 652.213C29.2097 658.568 36.6796 660.538 41.6794 661.478C53.9036 663.776 66.4886 663.833 78.5508 662.002Z" stroke="black" stroke-opacity="0.2" stroke-width="30"/>
<path d="M256.376 677.453C264.226 676.347 274.995 674.348 283.392 666.888C292.566 658.736 296 646.955 296 633.131C296 614.411 290.307 596.889 280.39 583.713C270.468 570.53 255.631 561 238 561C220.369 561 205.532 570.53 195.61 583.713C185.693 596.889 180 614.411 180 633.131C180 645.833 182.376 657.153 190.094 665.394C197.628 673.437 207.677 675.614 214.704 676.808C228.384 679.133 242.546 679.402 256.376 677.453Z" fill="#FFFACC"/>
<path d="M256.376 677.453C264.226 676.347 274.995 674.348 283.392 666.888C292.566 658.736 296 646.955 296 633.131C296 614.411 290.307 596.889 280.39 583.713C270.468 570.53 255.631 561 238 561C220.369 561 205.532 570.53 195.61 583.713C185.693 596.889 180 614.411 180 633.131C180 645.833 182.376 657.153 190.094 665.394C197.628 673.437 207.677 675.614 214.704 676.808C228.384 679.133 242.546 679.402 256.376 677.453Z" stroke="#79765F" stroke-width="30" stroke-linejoin="round"/>
<path d="M256.376 677.453C264.226 676.347 274.995 674.348 283.392 666.888C292.566 658.736 296 646.955 296 633.131C296 614.411 290.307 596.889 280.39 583.713C270.468 570.53 255.631 561 238 561C220.369 561 205.532 570.53 195.61 583.713C185.693 596.889 180 614.411 180 633.131C180 645.833 182.376 657.153 190.094 665.394C197.628 673.437 207.677 675.614 214.704 676.808C228.384 679.133 242.546 679.402 256.376 677.453Z" stroke="black" stroke-opacity="0.2" stroke-width="30" stroke-linejoin="round"/>
<path d="M359.205 641.868L359.289 641.861C366.28 641.301 376.052 640.518 383.917 636.612C388.365 634.403 392.72 630.995 395.814 625.814C398.863 620.708 400 615.031 400 609.38C400 581.067 374.806 561 347.5 561C320.194 561 295 581.067 295 609.38C295 614.494 295.802 619.741 298.192 624.6C300.698 629.692 304.467 633.375 308.78 635.884C315.956 640.058 324.955 640.928 331.002 641.513C331.195 641.531 331.385 641.55 331.572 641.568C340.668 642.453 349.938 642.611 359.205 641.868Z" fill="#FFFACC"/>
<path d="M359.205 641.868L359.289 641.861C366.28 641.301 376.052 640.518 383.917 636.612C388.365 634.403 392.72 630.995 395.814 625.814C398.863 620.708 400 615.031 400 609.38C400 581.067 374.806 561 347.5 561C320.194 561 295 581.067 295 609.38C295 614.494 295.802 619.741 298.192 624.6C300.698 629.692 304.467 633.375 308.78 635.884C315.956 640.058 324.955 640.928 331.002 641.513C331.195 641.531 331.385 641.55 331.572 641.568C340.668 642.453 349.938 642.611 359.205 641.868Z" stroke="#79765F" stroke-width="30" stroke-linejoin="round"/>
<path d="M359.205 641.868L359.289 641.861C366.28 641.301 376.052 640.518 383.917 636.612C388.365 634.403 392.72 630.995 395.814 625.814C398.863 620.708 400 615.031 400 609.38C400 581.067 374.806 561 347.5 561C320.194 561 295 581.067 295 609.38C295 614.494 295.802 619.741 298.192 624.6C300.698 629.692 304.467 633.375 308.78 635.884C315.956 640.058 324.955 640.928 331.002 641.513C331.195 641.531 331.385 641.55 331.572 641.568C340.668 642.453 349.938 642.611 359.205 641.868Z" stroke="black" stroke-opacity="0.2" stroke-width="30" stroke-linejoin="round"/>
<path d="M204.094 642.399C282.028 634.319 348 638.465 348 559.852C348 476.539 280.843 409 198 409C115.157 409 48 476.539 48 559.852C48 638.337 101.163 632.055 175.96 641.964C185.283 643.199 194.739 643.369 204.094 642.399Z" fill="#FFFACC"/>
<path d="M76.5 663.5L83.8652 659.251C87.5568 657.121 90.624 654.059 92.7594 650.37L93.4448 649.186C94.473 647.41 95.8164 645.837 97.4091 644.543V644.543C100.981 641.641 105.582 640.323 110.148 640.894L112.332 641.166C114.104 641.388 115.843 641.824 117.51 642.465L122.101 644.231C126.024 645.74 130.089 646.848 134.234 647.539L138.241 648.207C143.405 649.067 148.631 649.5 153.866 649.5H159.069C161.019 649.5 162.966 649.667 164.888 649.998L182.341 653.007C187.44 653.886 191.3 658.1 191.73 663.257V663.257C192.178 668.636 196.35 672.957 201.711 673.593L222 676L226.827 676.965C231.93 677.986 237.121 678.5 242.325 678.5H245.194C249.053 678.5 252.901 678.078 256.668 677.241L267.054 674.932C274.064 673.375 280.171 669.102 284.037 663.051L287.437 657.729C288.767 655.647 289.301 653.154 288.939 650.71V650.71C288.134 645.281 291.75 640.183 297.14 639.146L307.923 637.073C311.579 636.369 315.355 636.618 318.888 637.796L331.5 642" stroke="#615E4C" stroke-width="30"/>
<path d="M323.981 736.718C323.994 736.334 324 735.942 324 735.541C324 729.177 322.566 723.168 319.995 718.574C317.513 714.142 313.296 710 307.5 710C301.704 710 297.487 714.142 295.005 718.574C292.434 723.168 291 729.177 291 735.541C291 740.329 293.322 744.056 296.526 746.472C299.609 748.796 303.474 749.919 307.123 750.081C310.764 750.242 314.715 749.468 317.95 747.367C321.348 745.16 323.824 741.532 323.981 736.718Z" fill="#FFFACC"/>
<path d="M323.981 736.718C323.994 736.334 324 735.942 324 735.541C324 729.177 322.566 723.168 319.995 718.574C317.513 714.142 313.296 710 307.5 710C301.704 710 297.487 714.142 295.005 718.574C292.434 723.168 291 729.177 291 735.541C291 740.329 293.322 744.056 296.526 746.472C299.609 748.796 303.474 749.919 307.123 750.081C310.764 750.242 314.715 749.468 317.95 747.367C321.348 745.16 323.824 741.532 323.981 736.718Z" stroke="#615E4C" stroke-width="10"/>
<path d="M323.981 736.718C323.994 736.334 324 735.942 324 735.541C324 729.177 322.566 723.168 319.995 718.574C317.513 714.142 313.296 710 307.5 710C301.704 710 297.487 714.142 295.005 718.574C292.434 723.168 291 729.177 291 735.541C291 740.329 293.322 744.056 296.526 746.472C299.609 748.796 303.474 749.919 307.123 750.081C310.764 750.242 314.715 749.468 317.95 747.367C321.348 745.16 323.824 741.532 323.981 736.718Z" stroke="black" stroke-opacity="0.1" stroke-width="10"/>
<path d="M63.9813 736.718C63.9938 736.334 64 735.942 64 735.541C64 729.177 62.5664 723.168 59.9946 718.574C57.5131 714.142 53.2964 710 47.5 710C41.7036 710 37.4869 714.142 35.0054 718.574C32.4336 723.168 31 729.177 31 735.541C31 740.329 33.3219 744.056 36.5262 746.472C39.6092 748.796 43.4741 749.919 47.1231 750.081C50.7641 750.242 54.7151 749.468 57.9502 747.367C61.3475 745.16 63.8241 741.532 63.9813 736.718Z" fill="#FFFACC"/>
<path d="M63.9813 736.718C63.9938 736.334 64 735.942 64 735.541C64 729.177 62.5664 723.168 59.9946 718.574C57.5131 714.142 53.2964 710 47.5 710C41.7036 710 37.4869 714.142 35.0054 718.574C32.4336 723.168 31 729.177 31 735.541C31 740.329 33.3219 744.056 36.5262 746.472C39.6092 748.796 43.4741 749.919 47.1231 750.081C50.7641 750.242 54.7151 749.468 57.9502 747.367C61.3475 745.16 63.8241 741.532 63.9813 736.718Z" stroke="#615E4C" stroke-width="10"/>
<path d="M63.9813 736.718C63.9938 736.334 64 735.942 64 735.541C64 729.177 62.5664 723.168 59.9946 718.574C57.5131 714.142 53.2964 710 47.5 710C41.7036 710 37.4869 714.142 35.0054 718.574C32.4336 723.168 31 729.177 31 735.541C31 740.329 33.3219 744.056 36.5262 746.472C39.6092 748.796 43.4741 749.919 47.1231 750.081C50.7641 750.242 54.7151 749.468 57.9502 747.367C61.3475 745.16 63.8241 741.532 63.9813 736.718Z" stroke="black" stroke-opacity="0.1" stroke-width="10"/>
<path d="M344.981 670.718C344.994 670.334 345 669.942 345 669.541C345 663.177 343.566 657.168 340.995 652.574C338.513 648.142 334.296 644 328.5 644C322.704 644 318.487 648.142 316.005 652.574C313.434 657.168 312 663.177 312 669.541C312 674.329 314.322 678.056 317.526 680.472C320.609 682.796 324.474 683.919 328.123 684.081C331.764 684.242 335.715 683.468 338.95 681.367C342.348 679.16 344.824 675.532 344.981 670.718Z" fill="#FFFACC"/>
<path d="M344.981 670.718C344.994 670.334 345 669.942 345 669.541C345 663.177 343.566 657.168 340.995 652.574C338.513 648.142 334.296 644 328.5 644C322.704 644 318.487 648.142 316.005 652.574C313.434 657.168 312 663.177 312 669.541C312 674.329 314.322 678.056 317.526 680.472C320.609 682.796 324.474 683.919 328.123 684.081C331.764 684.242 335.715 683.468 338.95 681.367C342.348 679.16 344.824 675.532 344.981 670.718Z" stroke="#615E4C" stroke-width="10"/>
<path d="M344.981 670.718C344.994 670.334 345 669.942 345 669.541C345 663.177 343.566 657.168 340.995 652.574C338.513 648.142 334.296 644 328.5 644C322.704 644 318.487 648.142 316.005 652.574C313.434 657.168 312 663.177 312 669.541C312 674.329 314.322 678.056 317.526 680.472C320.609 682.796 324.474 683.919 328.123 684.081C331.764 684.242 335.715 683.468 338.95 681.367C342.348 679.16 344.824 675.532 344.981 670.718Z" stroke="black" stroke-opacity="0.1" stroke-width="10"/>
<path d="M206.254 516.399C214.443 515.569 223.076 514.828 231.62 514.095C242.178 513.189 252.602 512.294 261.891 511.255C279.368 509.301 296.396 506.532 311.266 501.139C326.335 495.675 339.993 487.228 349.697 473.475C359.388 459.74 364 442.32 364 421C364 331.246 289.84 259 199 259C108.16 259 34 331.246 34 421C34 441.746 37.5895 458.688 45.6247 472.147C53.8347 485.9 65.7545 494.467 79.3903 500.007C92.6428 505.392 107.961 508.097 123.736 510.103C131.11 511.041 138.871 511.857 146.78 512.688C147.419 512.755 148.058 512.822 148.698 512.89C157.332 513.798 166.205 514.747 175.38 515.937C185.577 517.259 195.951 517.445 206.254 516.399Z" fill="#FFFACC"/>
<path d="M206.254 516.399C214.443 515.569 223.076 514.828 231.62 514.095C242.178 513.189 252.602 512.294 261.891 511.255C279.368 509.301 296.396 506.532 311.266 501.139C326.335 495.675 339.993 487.228 349.697 473.475C359.388 459.74 364 442.32 364 421C364 331.246 289.84 259 199 259C108.16 259 34 331.246 34 421C34 441.746 37.5895 458.688 45.6247 472.147C53.8347 485.9 65.7545 494.467 79.3903 500.007C92.6428 505.392 107.961 508.097 123.736 510.103C131.11 511.041 138.871 511.857 146.78 512.688C147.419 512.755 148.058 512.822 148.698 512.89C157.332 513.798 166.205 514.747 175.38 515.937C185.577 517.259 195.951 517.445 206.254 516.399Z" stroke="#79765F" stroke-width="30"/>
<path d="M206.254 516.399C214.443 515.569 223.076 514.828 231.62 514.095C242.178 513.189 252.602 512.294 261.891 511.255C279.368 509.301 296.396 506.532 311.266 501.139C326.335 495.675 339.993 487.228 349.697 473.475C359.388 459.74 364 442.32 364 421C364 331.246 289.84 259 199 259C108.16 259 34 331.246 34 421C34 441.746 37.5895 458.688 45.6247 472.147C53.8347 485.9 65.7545 494.467 79.3903 500.007C92.6428 505.392 107.961 508.097 123.736 510.103C131.11 511.041 138.871 511.857 146.78 512.688C147.419 512.755 148.058 512.822 148.698 512.89C157.332 513.798 166.205 514.747 175.38 515.937C185.577 517.259 195.951 517.445 206.254 516.399Z" stroke="black" stroke-opacity="0.2" stroke-width="30"/>
<path d="M79.5508 527.002C84.9744 526.178 92.93 524.498 99.3298 518.766C106.469 512.371 109 503.54 109 494.306C109 468.415 90.1785 444 63 444C35.8215 444 17 468.415 17 494.306C17 502.379 18.62 510.706 24.4838 517.213C30.2097 523.568 37.6796 525.538 42.6794 526.478C54.9036 528.776 67.4886 528.833 79.5508 527.002Z" fill="#FFFACC"/>
<path d="M79.5508 527.002C84.9744 526.178 92.93 524.498 99.3298 518.766C106.469 512.371 109 503.54 109 494.306C109 468.415 90.1785 444 63 444C35.8215 444 17 468.415 17 494.306C17 502.379 18.62 510.706 24.4838 517.213C30.2097 523.568 37.6796 525.538 42.6794 526.478C54.9036 528.776 67.4886 528.833 79.5508 527.002Z" stroke="#79765F" stroke-width="30"/>
<path d="M79.5508 527.002C84.9744 526.178 92.93 524.498 99.3298 518.766C106.469 512.371 109 503.54 109 494.306C109 468.415 90.1785 444 63 444C35.8215 444 17 468.415 17 494.306C17 502.379 18.62 510.706 24.4838 517.213C30.2097 523.568 37.6796 525.538 42.6794 526.478C54.9036 528.776 67.4886 528.833 79.5508 527.002Z" stroke="black" stroke-opacity="0.2" stroke-width="30"/>
<path d="M257.376 542.453C265.226 541.347 275.995 539.348 284.392 531.888C293.566 523.736 297 511.955 297 498.131C297 479.411 291.307 461.889 281.39 448.713C271.468 435.53 256.631 426 239 426C221.369 426 206.532 435.53 196.61 448.713C186.693 461.889 181 479.411 181 498.131C181 510.833 183.376 522.153 191.094 530.394C198.628 538.437 208.677 540.614 215.704 541.808C229.384 544.133 243.546 544.402 257.376 542.453Z" fill="#FFFACC"/>
<path d="M257.376 542.453C265.226 541.347 275.995 539.348 284.392 531.888C293.566 523.736 297 511.955 297 498.131C297 479.411 291.307 461.889 281.39 448.713C271.468 435.53 256.631 426 239 426C221.369 426 206.532 435.53 196.61 448.713C186.693 461.889 181 479.411 181 498.131C181 510.833 183.376 522.153 191.094 530.394C198.628 538.437 208.677 540.614 215.704 541.808C229.384 544.133 243.546 544.402 257.376 542.453Z" stroke="#79765F" stroke-width="30" stroke-linejoin="round"/>
<path d="M257.376 542.453C265.226 541.347 275.995 539.348 284.392 531.888C293.566 523.736 297 511.955 297 498.131C297 479.411 291.307 461.889 281.39 448.713C271.468 435.53 256.631 426 239 426C221.369 426 206.532 435.53 196.61 448.713C186.693 461.889 181 479.411 181 498.131C181 510.833 183.376 522.153 191.094 530.394C198.628 538.437 208.677 540.614 215.704 541.808C229.384 544.133 243.546 544.402 257.376 542.453Z" stroke="black" stroke-opacity="0.2" stroke-width="30" stroke-linejoin="round"/>
<path d="M360.205 506.868L360.289 506.861C367.28 506.301 377.052 505.518 384.917 501.612C389.365 499.403 393.72 495.995 396.814 490.814C399.863 485.708 401 480.031 401 474.38C401 446.067 375.806 426 348.5 426C321.194 426 296 446.067 296 474.38C296 479.494 296.802 484.741 299.192 489.6C301.698 494.692 305.467 498.375 309.78 500.884C316.956 505.058 325.955 505.928 332.002 506.513C332.195 506.531 332.385 506.55 332.572 506.568C341.668 507.453 350.938 507.611 360.205 506.868Z" fill="#FFFACC"/>
<path d="M360.205 506.868L360.289 506.861C367.28 506.301 377.052 505.518 384.917 501.612C389.365 499.403 393.72 495.995 396.814 490.814C399.863 485.708 401 480.031 401 474.38C401 446.067 375.806 426 348.5 426C321.194 426 296 446.067 296 474.38C296 479.494 296.802 484.741 299.192 489.6C301.698 494.692 305.467 498.375 309.78 500.884C316.956 505.058 325.955 505.928 332.002 506.513C332.195 506.531 332.385 506.55 332.572 506.568C341.668 507.453 350.938 507.611 360.205 506.868Z" stroke="#79765F" stroke-width="30" stroke-linejoin="round"/>
<path d="M360.205 506.868L360.289 506.861C367.28 506.301 377.052 505.518 384.917 501.612C389.365 499.403 393.72 495.995 396.814 490.814C399.863 485.708 401 480.031 401 474.38C401 446.067 375.806 426 348.5 426C321.194 426 296 446.067 296 474.38C296 479.494 296.802 484.741 299.192 489.6C301.698 494.692 305.467 498.375 309.78 500.884C316.956 505.058 325.955 505.928 332.002 506.513C332.195 506.531 332.385 506.55 332.572 506.568C341.668 507.453 350.938 507.611 360.205 506.868Z" stroke="black" stroke-opacity="0.2" stroke-width="30" stroke-linejoin="round"/>
<path d="M205.094 507.399C283.028 499.319 349 503.465 349 424.852C349 341.539 281.843 274 199 274C116.157 274 49 341.539 49 424.852C49 503.337 102.163 497.055 176.96 506.964C186.283 508.199 195.739 508.369 205.094 507.399Z" fill="#FFFACC"/>
<path d="M77.5 528.5L84.8652 524.251C88.5568 522.121 91.624 519.059 93.7594 515.37L94.4448 514.186C95.473 512.41 96.8164 510.837 98.4091 509.543V509.543C101.981 506.641 106.582 505.323 111.148 505.894L113.332 506.166C115.104 506.388 116.843 506.824 118.51 507.465L123.101 509.231C127.024 510.74 131.089 511.848 135.234 512.539L139.241 513.207C144.405 514.067 149.631 514.5 154.866 514.5H160.069C162.019 514.5 163.966 514.667 165.888 514.998L183.341 518.007C188.44 518.886 192.3 523.1 192.73 528.257V528.257C193.178 533.636 197.35 537.957 202.711 538.593L223 541L227.827 541.965C232.93 542.986 238.121 543.5 243.325 543.5H246.194C250.053 543.5 253.901 543.078 257.668 542.241L268.054 539.932C275.064 538.375 281.171 534.102 285.037 528.051L288.437 522.729C289.767 520.647 290.301 518.154 289.939 515.71V515.71C289.134 510.281 292.75 505.183 298.14 504.146L308.923 502.073C312.579 501.369 316.355 501.618 319.888 502.796L332.5 507" stroke="#615E4C" stroke-width="30"/>
<path d="M204.254 387.399C212.443 386.569 221.076 385.828 229.62 385.095C240.178 384.189 250.602 383.294 259.891 382.255C277.368 380.301 294.396 377.532 309.266 372.139C324.335 366.675 337.993 358.228 347.697 344.475C357.388 330.74 362 313.32 362 292C362 202.246 287.84 130 197 130C106.16 130 32 202.246 32 292C32 312.746 35.5895 329.688 43.6247 343.147C51.8347 356.9 63.7545 365.467 77.3903 371.007C90.6428 376.392 105.961 379.097 121.736 381.103C129.11 382.041 136.871 382.857 144.78 383.688C145.419 383.755 146.058 383.822 146.698 383.89C155.332 384.798 164.205 385.747 173.38 386.937C183.577 388.259 193.951 388.445 204.254 387.399Z" fill="#FFFACC"/>
<path d="M204.254 387.399C212.443 386.569 221.076 385.828 229.62 385.095C240.178 384.189 250.602 383.294 259.891 382.255C277.368 380.301 294.396 377.532 309.266 372.139C324.335 366.675 337.993 358.228 347.697 344.475C357.388 330.74 362 313.32 362 292C362 202.246 287.84 130 197 130C106.16 130 32 202.246 32 292C32 312.746 35.5895 329.688 43.6247 343.147C51.8347 356.9 63.7545 365.467 77.3903 371.007C90.6428 376.392 105.961 379.097 121.736 381.103C129.11 382.041 136.871 382.857 144.78 383.688C145.419 383.755 146.058 383.822 146.698 383.89C155.332 384.798 164.205 385.747 173.38 386.937C183.577 388.259 193.951 388.445 204.254 387.399Z" stroke="#79765F" stroke-width="30"/>
<path d="M204.254 387.399C212.443 386.569 221.076 385.828 229.62 385.095C240.178 384.189 250.602 383.294 259.891 382.255C277.368 380.301 294.396 377.532 309.266 372.139C324.335 366.675 337.993 358.228 347.697 344.475C357.388 330.74 362 313.32 362 292C362 202.246 287.84 130 197 130C106.16 130 32 202.246 32 292C32 312.746 35.5895 329.688 43.6247 343.147C51.8347 356.9 63.7545 365.467 77.3903 371.007C90.6428 376.392 105.961 379.097 121.736 381.103C129.11 382.041 136.871 382.857 144.78 383.688C145.419 383.755 146.058 383.822 146.698 383.89C155.332 384.798 164.205 385.747 173.38 386.937C183.577 388.259 193.951 388.445 204.254 387.399Z" stroke="black" stroke-opacity="0.2" stroke-width="30"/>
<path d="M77.5508 398.002C82.9744 397.178 90.93 395.498 97.3298 389.766C104.469 383.371 107 374.54 107 365.306C107 339.415 88.1785 315 61 315C33.8215 315 15 339.415 15 365.306C15 373.379 16.62 381.706 22.4838 388.213C28.2097 394.568 35.6796 396.538 40.6794 397.478C52.9036 399.776 65.4886 399.833 77.5508 398.002Z" fill="#FFFACC"/>
<path d="M77.5508 398.002C82.9744 397.178 90.93 395.498 97.3298 389.766C104.469 383.371 107 374.54 107 365.306C107 339.415 88.1785 315 61 315C33.8215 315 15 339.415 15 365.306C15 373.379 16.62 381.706 22.4838 388.213C28.2097 394.568 35.6796 396.538 40.6794 397.478C52.9036 399.776 65.4886 399.833 77.5508 398.002Z" stroke="#79765F" stroke-width="30"/>
<path d="M77.5508 398.002C82.9744 397.178 90.93 395.498 97.3298 389.766C104.469 383.371 107 374.54 107 365.306C107 339.415 88.1785 315 61 315C33.8215 315 15 339.415 15 365.306C15 373.379 16.62 381.706 22.4838 388.213C28.2097 394.568 35.6796 396.538 40.6794 397.478C52.9036 399.776 65.4886 399.833 77.5508 398.002Z" stroke="black" stroke-opacity="0.2" stroke-width="30"/>
<path d="M255.376 413.453C263.226 412.347 273.995 410.348 282.392 402.888C291.566 394.736 295 382.955 295 369.131C295 350.411 289.307 332.889 279.39 319.713C269.468 306.53 254.631 297 237 297C219.369 297 204.532 306.53 194.61 319.713C184.693 332.889 179 350.411 179 369.131C179 381.833 181.376 393.153 189.094 401.394C196.628 409.437 206.677 411.614 213.704 412.808C227.384 415.133 241.546 415.402 255.376 413.453Z" fill="#FFFACC"/>
<path d="M255.376 413.453C263.226 412.347 273.995 410.348 282.392 402.888C291.566 394.736 295 382.955 295 369.131C295 350.411 289.307 332.889 279.39 319.713C269.468 306.53 254.631 297 237 297C219.369 297 204.532 306.53 194.61 319.713C184.693 332.889 179 350.411 179 369.131C179 381.833 181.376 393.153 189.094 401.394C196.628 409.437 206.677 411.614 213.704 412.808C227.384 415.133 241.546 415.402 255.376 413.453Z" stroke="#79765F" stroke-width="30" stroke-linejoin="round"/>
<path d="M255.376 413.453C263.226 412.347 273.995 410.348 282.392 402.888C291.566 394.736 295 382.955 295 369.131C295 350.411 289.307 332.889 279.39 319.713C269.468 306.53 254.631 297 237 297C219.369 297 204.532 306.53 194.61 319.713C184.693 332.889 179 350.411 179 369.131C179 381.833 181.376 393.153 189.094 401.394C196.628 409.437 206.677 411.614 213.704 412.808C227.384 415.133 241.546 415.402 255.376 413.453Z" stroke="black" stroke-opacity="0.2" stroke-width="30" stroke-linejoin="round"/>
<path d="M358.205 377.868L358.289 377.861C365.28 377.301 375.052 376.518 382.917 372.612C387.365 370.403 391.72 366.995 394.814 361.814C397.863 356.708 399 351.031 399 345.38C399 317.067 373.806 297 346.5 297C319.194 297 294 317.067 294 345.38C294 350.494 294.802 355.741 297.192 360.6C299.698 365.692 303.467 369.375 307.78 371.884C314.956 376.058 323.955 376.928 330.002 377.513C330.195 377.531 330.385 377.55 330.572 377.568C339.668 378.453 348.938 378.611 358.205 377.868Z" fill="#FFFACC"/>
<path d="M358.205 377.868L358.289 377.861C365.28 377.301 375.052 376.518 382.917 372.612C387.365 370.403 391.72 366.995 394.814 361.814C397.863 356.708 399 351.031 399 345.38C399 317.067 373.806 297 346.5 297C319.194 297 294 317.067 294 345.38C294 350.494 294.802 355.741 297.192 360.6C299.698 365.692 303.467 369.375 307.78 371.884C314.956 376.058 323.955 376.928 330.002 377.513C330.195 377.531 330.385 377.55 330.572 377.568C339.668 378.453 348.938 378.611 358.205 377.868Z" stroke="#79765F" stroke-width="30" stroke-linejoin="round"/>
<path d="M358.205 377.868L358.289 377.861C365.28 377.301 375.052 376.518 382.917 372.612C387.365 370.403 391.72 366.995 394.814 361.814C397.863 356.708 399 351.031 399 345.38C399 317.067 373.806 297 346.5 297C319.194 297 294 317.067 294 345.38C294 350.494 294.802 355.741 297.192 360.6C299.698 365.692 303.467 369.375 307.78 371.884C314.956 376.058 323.955 376.928 330.002 377.513C330.195 377.531 330.385 377.55 330.572 377.568C339.668 378.453 348.938 378.611 358.205 377.868Z" stroke="black" stroke-opacity="0.2" stroke-width="30" stroke-linejoin="round"/>
<path d="M203.094 378.399C281.028 370.319 347 374.465 347 295.852C347 212.539 279.843 145 197 145C114.157 145 47 212.539 47 295.852C47 374.337 100.163 368.055 174.96 377.964C184.283 379.199 193.739 379.369 203.094 378.399Z" fill="#FFFACC"/>
<path d="M75.5 399.5L82.8652 395.251C86.5568 393.121 89.624 390.059 91.7594 386.37L92.4448 385.186C93.473 383.41 94.8164 381.837 96.4091 380.543V380.543C99.9806 377.641 104.582 376.323 109.148 376.894L111.332 377.166C113.104 377.388 114.843 377.824 116.51 378.465L121.101 380.231C125.024 381.74 129.089 382.848 133.234 383.539L137.241 384.207C142.405 385.067 147.631 385.5 152.866 385.5H158.069C160.019 385.5 161.966 385.667 163.888 385.998L181.341 389.007C186.44 389.886 190.3 394.1 190.73 399.257V399.257C191.178 404.636 195.35 408.957 200.711 409.593L221 412L225.827 412.965C230.93 413.986 236.121 414.5 241.325 414.5H244.194C248.053 414.5 251.901 414.078 255.668 413.241L266.054 410.932C273.064 409.375 279.171 405.102 283.037 399.051L286.437 393.729C287.767 391.647 288.301 389.154 287.939 386.71V386.71C287.134 381.281 290.75 376.183 296.14 375.146L306.923 373.073C310.579 372.369 314.355 372.618 317.888 373.796L330.5 378" stroke="#615E4C" stroke-width="30"/>
<path d="M103.58 177.852L110.478 172.712C117.792 167.263 125.816 162.84 134.329 159.566L147.5 154.5L162.522 150.581C167.832 149.196 173.246 148.25 178.711 147.753L198 146L210.829 146.503C219.243 146.833 227.581 148.224 235.646 150.644L240.88 152.214C245.952 153.736 250.895 155.658 255.662 157.962L269.234 164.521C275.395 167.499 281.234 171.102 286.66 175.272L294.941 181.638C299.983 185.513 304.643 189.86 308.86 194.621L310.568 196.55C314.61 201.114 318.226 206.037 321.372 211.26L335.164 234.162C335.621 234.919 335.992 235.725 336.27 236.565L340.318 248.753C340.9 250.504 339.596 252.311 337.751 252.311C337.614 252.311 337.478 252.321 337.343 252.342L334.308 252.805C322.997 254.531 311.464 251.696 302.241 244.923L294.339 239.12C293.771 238.702 293.26 238.211 292.82 237.66C288.802 232.619 280.776 234.164 278.917 240.337L275.394 252.038C271.191 265.996 251.286 265.585 247.663 251.465L246.074 245.267C244.964 240.943 242.118 237.27 238.207 235.116L229.107 230.104C223.903 227.237 218.058 225.734 212.116 225.734H189.984C187.331 225.734 185 227.495 184.276 230.048C182.445 236.501 172.991 235.435 172.643 228.736L172.458 225.167C172.078 217.851 161.787 216.618 159.689 223.637L154.729 240.235C154.577 240.744 154.382 241.24 154.147 241.716L149.091 251.977C143.66 262.999 128.657 264.728 120.861 255.231C113.136 245.821 98.2966 247.416 92.7475 258.253L91.6107 260.472C89.0156 265.54 84.2359 269.135 78.647 270.221L75.1305 270.905C71.4304 271.625 67.6121 271.449 63.9935 270.394L61.2858 269.604C58.8115 268.883 56.5891 267.482 54.8705 265.561C51.2906 261.56 50.3585 255.845 52.4816 250.914L62.0901 228.597C63.6912 224.879 65.7224 221.36 68.1422 218.114L85 195.5L89.6127 190.468C93.8614 185.833 98.5378 181.609 103.58 177.852Z" fill="#5D5031" stroke="#5D5031" stroke-width="5" stroke-linecap="round"/>
<path d="M157.499 289.95C158.949 287.696 159.5 285.035 159.5 282.19C159.5 270.726 151.034 260.5 139.5 260.5C127.966 260.5 119.5 270.726 119.5 282.19C119.5 284.088 119.705 285.886 120.23 287.536C122.788 295.583 131.368 298.443 138.082 298.623C144.928 298.807 153.347 296.405 157.499 289.95Z" fill="#B2A585"/>
<path d="M157.499 289.95C158.949 287.696 159.5 285.035 159.5 282.19C159.5 270.726 151.034 260.5 139.5 260.5C127.966 260.5 119.5 270.726 119.5 282.19C119.5 284.088 119.705 285.886 120.23 287.536C122.788 295.583 131.368 298.443 138.082 298.623C144.928 298.807 153.347 296.405 157.499 289.95Z" stroke="#B9AC8A" stroke-width="10"/>
<path d="M157.499 289.95C158.949 287.696 159.5 285.035 159.5 282.19C159.5 270.726 151.034 260.5 139.5 260.5C127.966 260.5 119.5 270.726 119.5 282.19C119.5 284.088 119.705 285.886 120.23 287.536C122.788 295.583 131.368 298.443 138.082 298.623C144.928 298.807 153.347 296.405 157.499 289.95Z" stroke="black" stroke-opacity="0.2" stroke-width="10"/>
<path d="M258.401 351.388C258.469 350.851 258.5 350.311 258.5 349.771C258.5 341.233 251.456 334.5 243 334.5C234.544 334.5 227.5 341.233 227.5 349.771C227.5 354.161 230.1 357.255 232.965 359.048C235.752 360.791 239.161 361.61 242.325 361.757C245.495 361.905 248.963 361.405 251.913 359.952C254.924 358.47 257.851 355.705 258.401 351.388Z" fill="#B2A585"/>
<path d="M258.401 351.388C258.469 350.851 258.5 350.311 258.5 349.771C258.5 341.233 251.456 334.5 243 334.5C234.544 334.5 227.5 341.233 227.5 349.771C227.5 354.161 230.1 357.255 232.965 359.048C235.752 360.791 239.161 361.61 242.325 361.757C245.495 361.905 248.963 361.405 251.913 359.952C254.924 358.47 257.851 355.705 258.401 351.388Z" stroke="#B9AC8A" stroke-width="10"/>
<path d="M258.401 351.388C258.469 350.851 258.5 350.311 258.5 349.771C258.5 341.233 251.456 334.5 243 334.5C234.544 334.5 227.5 341.233 227.5 349.771C227.5 354.161 230.1 357.255 232.965 359.048C235.752 360.791 239.161 361.61 242.325 361.757C245.495 361.905 248.963 361.405 251.913 359.952C254.924 358.47 257.851 355.705 258.401 351.388Z" stroke="black" stroke-opacity="0.2" stroke-width="10"/>
<path d="M252.401 224.388C252.469 223.851 252.5 223.311 252.5 222.771C252.5 214.233 245.456 207.5 237 207.5C228.544 207.5 221.5 214.233 221.5 222.771C221.5 227.161 224.1 230.255 226.965 232.048C229.752 233.791 233.161 234.61 236.325 234.757C239.495 234.905 242.963 234.405 245.913 232.952C248.924 231.47 251.851 228.705 252.401 224.388Z" fill="#B2A585"/>
<path d="M252.401 224.388C252.469 223.851 252.5 223.311 252.5 222.771C252.5 214.233 245.456 207.5 237 207.5C228.544 207.5 221.5 214.233 221.5 222.771C221.5 227.161 224.1 230.255 226.965 232.048C229.752 233.791 233.161 234.61 236.325 234.757C239.495 234.905 242.963 234.405 245.913 232.952C248.924 231.47 251.851 228.705 252.401 224.388Z" stroke="#B9AC8A" stroke-width="10"/>
<path d="M252.401 224.388C252.469 223.851 252.5 223.311 252.5 222.771C252.5 214.233 245.456 207.5 237 207.5C228.544 207.5 221.5 214.233 221.5 222.771C221.5 227.161 224.1 230.255 226.965 232.048C229.752 233.791 233.161 234.61 236.325 234.757C239.495 234.905 242.963 234.405 245.913 232.952C248.924 231.47 251.851 228.705 252.401 224.388Z" stroke="black" stroke-opacity="0.2" stroke-width="10"/>
<path d="M66.5 250L74.5125 233.043C83.2907 214.466 97.578 199.044 115.431 188.875L127.5 182M146 175L163 168.5" stroke="#FFFEF2" stroke-width="10" stroke-linecap="round"/>
<path d="M153.999 458.95C155.449 456.696 156 454.035 156 451.19C156 439.726 147.534 429.5 136 429.5C124.466 429.5 116 439.726 116 451.19C116 453.088 116.205 454.886 116.73 456.536C119.288 464.583 127.868 467.443 134.582 467.623C141.428 467.807 149.847 465.405 153.999 458.95Z" fill="#B2A585"/>
<path d="M153.999 458.95C155.449 456.696 156 454.035 156 451.19C156 439.726 147.534 429.5 136 429.5C124.466 429.5 116 439.726 116 451.19C116 453.088 116.205 454.886 116.73 456.536C119.288 464.583 127.868 467.443 134.582 467.623C141.428 467.807 149.847 465.405 153.999 458.95Z" stroke="#B9AC8A" stroke-width="10"/>
<path d="M153.999 458.95C155.449 456.696 156 454.035 156 451.19C156 439.726 147.534 429.5 136 429.5C124.466 429.5 116 439.726 116 451.19C116 453.088 116.205 454.886 116.73 456.536C119.288 464.583 127.868 467.443 134.582 467.623C141.428 467.807 149.847 465.405 153.999 458.95Z" stroke="black" stroke-opacity="0.2" stroke-width="10"/>
<path d="M302.901 472.888C302.969 472.351 303 471.811 303 471.271C303 462.733 295.956 456 287.5 456C279.044 456 272 462.733 272 471.271C272 475.661 274.6 478.755 277.465 480.548C280.252 482.291 283.661 483.11 286.825 483.257C289.995 483.405 293.463 482.905 296.413 481.452C299.424 479.97 302.351 477.205 302.901 472.888Z" fill="#B2A585"/>
<path d="M302.901 472.888C302.969 472.351 303 471.811 303 471.271C303 462.733 295.956 456 287.5 456C279.044 456 272 462.733 272 471.271C272 475.661 274.6 478.755 277.465 480.548C280.252 482.291 283.661 483.11 286.825 483.257C289.995 483.405 293.463 482.905 296.413 481.452C299.424 479.97 302.351 477.205 302.901 472.888Z" stroke="#B9AC8A" stroke-width="10"/>
<path d="M302.901 472.888C302.969 472.351 303 471.811 303 471.271C303 462.733 295.956 456 287.5 456C279.044 456 272 462.733 272 471.271C272 475.661 274.6 478.755 277.465 480.548C280.252 482.291 283.661 483.11 286.825 483.257C289.995 483.405 293.463 482.905 296.413 481.452C299.424 479.97 302.351 477.205 302.901 472.888Z" stroke="black" stroke-opacity="0.2" stroke-width="10"/>
<path d="M226.453 609.259C229.429 608.967 232.892 608.447 235.67 606.863C237.167 606.009 238.577 604.789 239.582 603.065C240.585 601.341 241 599.431 241 597.48C241 591.709 237.695 586.969 233.328 583.87C228.95 580.764 223.161 579 217 579C210.839 579 205.05 580.764 200.672 583.87C196.305 586.969 193 591.709 193 597.48C193 601.119 194.291 604.309 197.261 606.422C199.755 608.198 202.878 608.762 205.413 609.072C212.413 609.929 219.503 609.939 226.453 609.259Z" fill="#B2A585"/>
<path d="M226.453 609.259C229.429 608.967 232.892 608.447 235.67 606.863C237.167 606.009 238.577 604.789 239.582 603.065C240.585 601.341 241 599.431 241 597.48C241 591.709 237.695 586.969 233.328 583.87C228.95 580.764 223.161 579 217 579C210.839 579 205.05 580.764 200.672 583.87C196.305 586.969 193 591.709 193 597.48C193 601.119 194.291 604.309 197.261 606.422C199.755 608.198 202.878 608.762 205.413 609.072C212.413 609.929 219.503 609.939 226.453 609.259Z" stroke="#B9AC8A" stroke-width="10"/>
<path d="M226.453 609.259C229.429 608.967 232.892 608.447 235.67 606.863C237.167 606.009 238.577 604.789 239.582 603.065C240.585 601.341 241 599.431 241 597.48C241 591.709 237.695 586.969 233.328 583.87C228.95 580.764 223.161 579 217 579C210.839 579 205.05 580.764 200.672 583.87C196.305 586.969 193 591.709 193 597.48C193 601.119 194.291 604.309 197.261 606.422C199.755 608.198 202.878 608.762 205.413 609.072C212.413 609.929 219.503 609.939 226.453 609.259Z" stroke="black" stroke-opacity="0.2" stroke-width="10"/>
<path d="M102.901 607.888C102.969 607.351 103 606.811 103 606.271C103 597.733 95.9558 591 87.5 591C79.0442 591 72 597.733 72 606.271C72 610.661 74.6 613.755 77.4654 615.548C80.2518 617.291 83.6605 618.11 86.8253 618.257C89.9948 618.405 93.4631 617.905 96.4135 616.452C99.424 614.97 102.351 612.205 102.901 607.888Z" fill="#B2A585"/>
<path d="M102.901 607.888C102.969 607.351 103 606.811 103 606.271C103 597.733 95.9558 591 87.5 591C79.0442 591 72 597.733 72 606.271C72 610.661 74.6 613.755 77.4654 615.548C80.2518 617.291 83.6605 618.11 86.8253 618.257C89.9948 618.405 93.4631 617.905 96.4135 616.452C99.424 614.97 102.351 612.205 102.901 607.888Z" stroke="#B9AC8A" stroke-width="10"/>
<path d="M102.901 607.888C102.969 607.351 103 606.811 103 606.271C103 597.733 95.9558 591 87.5 591C79.0442 591 72 597.733 72 606.271C72 610.661 74.6 613.755 77.4654 615.548C80.2518 617.291 83.6605 618.11 86.8253 618.257C89.9948 618.405 93.4631 617.905 96.4135 616.452C99.424 614.97 102.351 612.205 102.901 607.888Z" stroke="black" stroke-opacity="0.2" stroke-width="10"/>
<path d="M210 39L212.227 29.7745C213.069 26.2869 214.534 22.98 216.551 20.0131V20.0131C220.092 14.8053 225.193 10.8538 231.12 8.72601L241.5 5" stroke="#00C434" stroke-width="10" stroke-linecap="round"/>
<path d="M227.585 124.135C235.617 123.236 244 121.939 250.272 117.483C257.074 112.653 260.5 104.876 260.5 93.4279C260.5 64.1034 239.915 39 213 39C186.085 39 165.5 64.1034 165.5 93.4279C165.5 104.319 168.034 111.928 173.838 116.814C179.282 121.398 186.719 122.706 193.832 123.666C204.97 125.168 216.361 125.391 227.585 124.135Z" fill="#FF5353"/>
<path d="M227.585 124.135C235.617 123.236 244 121.939 250.272 117.483C257.074 112.653 260.5 104.876 260.5 93.4279C260.5 64.1034 239.915 39 213 39C186.085 39 165.5 64.1034 165.5 93.4279C165.5 104.319 168.034 111.928 173.838 116.814C179.282 121.398 186.719 122.706 193.832 123.666C204.97 125.168 216.361 125.391 227.585 124.135Z" stroke="#FF6666" stroke-width="10"/>
<path d="M227.585 124.135C235.617 123.236 244 121.939 250.272 117.483C257.074 112.653 260.5 104.876 260.5 93.4279C260.5 64.1034 239.915 39 213 39C186.085 39 165.5 64.1034 165.5 93.4279C165.5 104.319 168.034 111.928 173.838 116.814C179.282 121.398 186.719 122.706 193.832 123.666C204.97 125.168 216.361 125.391 227.585 124.135Z" stroke="black" stroke-opacity="0.2" stroke-width="10"/>
<path d="M184.5 78L186.917 71.3062C189.487 64.1902 195.262 58.7029 202.5 56.5V56.5" stroke="#FFFEF2" stroke-width="10" stroke-linecap="round"/>
<path d="M122.548 202L109.5 215.562" stroke="#25C7E0" stroke-width="15" stroke-linecap="round"/>
<path d="M323.5 325L335.5 329.562" stroke="#25C7E0" stroke-width="15" stroke-linecap="round"/>
<path d="M233 504L245 508.562" stroke="#25C7E0" stroke-width="15" stroke-linecap="round"/>
<path d="M209.5 304.5L218.789 297.315" stroke="#FBE51D" stroke-width="15" stroke-linecap="round"/>
<path d="M249.5 641L229 635.5" stroke="#FBE51D" stroke-width="15" stroke-linecap="round"/>
<path d="M195.548 236L204.5 255" stroke="#5FEE69" stroke-width="15" stroke-linecap="round"/>
<path d="M281.5 287L271.5 273.562" stroke="#FF5A88" stroke-width="15" stroke-linecap="round"/>
<path d="M88.5 319.438L93.5 307" stroke="#FF5A88" stroke-width="15" stroke-linecap="round"/>
<path d="M78 445.438L89 436" stroke="#FF9C2A" stroke-width="15" stroke-linecap="round"/>
<path d="M308 586L317 564" stroke="#FF9C2A" stroke-width="15" stroke-linecap="round"/>
<path d="M160.5 325L182.5 334.562" stroke="#FF9C2A" stroke-width="15" stroke-linecap="round"/>
<path d="M313 430.438L325 419" stroke="#FF5A88" stroke-width="15" stroke-linecap="round"/>
<path d="M123 564.438L135 553" stroke="#FF5A88" stroke-width="15" stroke-linecap="round"/>
<path d="M207.048 440L201 450" stroke="#5FEE69" stroke-width="15" stroke-linecap="round"/>
<path d="M143 615L152 617" stroke="#5FEE69" stroke-width="15" stroke-linecap="round"/>
<defs>
<filter id="filter0_d_12_238" x="178" y="653.499" width="146" height="263.233" filterUnits="userSpaceOnUse" color-interpolation-filters="sRGB">
<feFlood flood-opacity="0" result="BackgroundImageFix"/>
<feColorMatrix in="SourceAlpha" type="matrix" values="0 0 0 0 0 0 0 0 0 0 0 0 0 0 0 0 0 0 127 0" result="hardAlpha"/>
<feOffset dy="4"/>
<feGaussianBlur stdDeviation="2"/>
<feComposite in2="hardAlpha" operator="out"/>
<feColorMatrix type="matrix" values="0 0 0 0 0 0 0 0 0 0 0 0 0 0 0 0 0 0 0.25 0"/>
<feBlend mode="normal" in2="BackgroundImageFix" result="effect1_dropShadow_12_238"/>
<feBlend mode="normal" in="SourceGraphic" in2="effect1_dropShadow_12_238" result="shape"/>
</filter>
</defs>
</svg>
